<svg width="2337" height="990" xmlns="http://www.w3.org/2000/svg" xmlns:xlink="http://www.w3.org/1999/xlink" overflow="hidden"><defs><clipPath id="clip0"><rect x="1503" y="1425" width="2337" height="990"/></clipPath><clipPath id="clip1"><rect x="1506" y="1428" width="2329" height="984"/></clipPath><clipPath id="clip2"><rect x="1506" y="1428" width="2329" height="984"/></clipPath><clipPath id="clip3"><rect x="1637" y="1598" width="2106" height="708"/></clipPath><clipPath id="clip4"><rect x="1506" y="1428" width="2329" height="984"/></clipPath><clipPath id="clip5"><rect x="1506" y="1428" width="2329" height="984"/></clipPath><clipPath id="clip6"><rect x="1506" y="1428" width="2329" height="984"/></clipPath><clipPath id="clip7"><rect x="1506" y="1428" width="2329" height="984"/></clipPath><clipPath id="clip8"><rect x="1506" y="1428" width="2329" height="984"/></clipPath><clipPath id="clip9"><rect x="1506" y="1428" width="2329" height="984"/></clipPath><clipPath id="clip10"><rect x="1506" y="1428" width="2329" height="984"/></clipPath><clipPath id="clip11"><rect x="1506" y="1428" width="2329" height="984"/></clipPath><clipPath id="clip12"><rect x="1506" y="1428" width="2329" height="984"/></clipPath><clipPath id="clip13"><rect x="1506" y="1428" width="2329" height="984"/></clipPath><clipPath id="clip14"><rect x="1506" y="1428" width="2329" height="984"/></clipPath><clipPath id="clip15"><rect x="1506" y="1428" width="2329" height="984"/></clipPath><clipPath id="clip16"><rect x="1506" y="1428" width="2329" height="984"/></clipPath><clipPath id="clip17"><rect x="1506" y="1428" width="2329" height="984"/></clipPath><clipPath id="clip18"><rect x="1506" y="1428" width="2329" height="984"/></clipPath><clipPath id="clip19"><rect x="1506" y="1428" width="2329" height="984"/></clipPath><clipPath id="clip20"><rect x="1506" y="1428" width="2329" height="984"/></clipPath><clipPath id="clip21"><rect x="1506" y="1428" width="2329" height="984"/></clipPath><clipPath id="clip22"><rect x="1506" y="1428" width="2329" height="984"/></clipPath><clipPath id="clip23"><rect x="1506" y="1428" width="2329" height="984"/></clipPath><clipPath id="clip24"><rect x="1506" y="1428" width="2329" height="984"/></clipPath><clipPath id="clip25"><rect x="1506" y="1428" width="2329" height="984"/></clipPath><clipPath id="clip26"><rect x="1506" y="1428" width="2329" height="984"/></clipPath><clipPath id="clip27"><rect x="1506" y="1428" width="2329" height="984"/></clipPath><clipPath id="clip28"><rect x="1506" y="1428" width="2329" height="984"/></clipPath></defs><g clip-path="url(#clip0)" transform="translate(-1503 -1425)"><rect x="1507" y="1428" width="2329" height="985" fill="#FFFFFF" fill-opacity="1"/><g clip-path="url(#clip1)"><path d="M1637.5 2306.5 3743.5 2306.5" stroke="#D9D9D9" stroke-width="3.4375" stroke-linecap="butt" stroke-linejoin="round" stroke-miterlimit="10" stroke-opacity="1" fill="none" fill-rule="evenodd"/></g><g clip-path="url(#clip2)"><path d="M1648.46 2145.94C1648.46 2152.01 1643.53 2156.94 1637.46 2156.94 1631.38 2156.94 1626.46 2152.01 1626.46 2145.94 1626.46 2139.86 1631.38 2134.94 1637.46 2134.94 1643.53 2134.94 1648.46 2139.86 1648.46 2145.94Z" stroke="#002060" stroke-width="3.4375" stroke-linecap="butt" stroke-linejoin="round" stroke-miterlimit="10" stroke-opacity="1" fill="#002060" fill-rule="nonzero" fill-opacity="1"/><path d="M1824.46 2196.94C1824.46 2203.01 1819.53 2207.94 1813.46 2207.94 1807.38 2207.94 1802.46 2203.01 1802.46 2196.94 1802.46 2190.86 1807.38 2185.94 1813.46 2185.94 1819.53 2185.94 1824.46 2190.86 1824.46 2196.94Z" stroke="#002060" stroke-width="3.4375" stroke-linecap="butt" stroke-linejoin="round" stroke-miterlimit="10" stroke-opacity="1" fill="#002060" fill-rule="nonzero" fill-opacity="1"/><path d="M1999.46 2190.94C1999.46 2197.01 1994.53 2201.94 1988.46 2201.94 1982.38 2201.94 1977.46 2197.01 1977.46 2190.94 1977.46 2184.86 1982.38 2179.94 1988.46 2179.94 1994.53 2179.94 1999.46 2184.86 1999.46 2190.94Z" stroke="#002060" stroke-width="3.4375" stroke-linecap="butt" stroke-linejoin="round" stroke-miterlimit="10" stroke-opacity="1" fill="#002060" fill-rule="nonzero" fill-opacity="1"/><path d="M2175.46 2018.94C2175.46 2025.01 2170.53 2029.94 2164.46 2029.94 2158.38 2029.94 2153.46 2025.01 2153.46 2018.94 2153.46 2012.86 2158.38 2007.94 2164.46 2007.94 2170.53 2007.94 2175.46 2012.86 2175.46 2018.94Z" stroke="#002060" stroke-width="3.4375" stroke-linecap="butt" stroke-linejoin="round" stroke-miterlimit="10" stroke-opacity="1" fill="#002060" fill-rule="nonzero" fill-opacity="1"/><path d="M2350.46 2213.94C2350.46 2220.01 2345.53 2224.94 2339.46 2224.94 2333.38 2224.94 2328.46 2220.01 2328.46 2213.94 2328.46 2207.86 2333.38 2202.94 2339.46 2202.94 2345.53 2202.94 2350.46 2207.86 2350.46 2213.94Z" stroke="#002060" stroke-width="3.4375" stroke-linecap="butt" stroke-linejoin="round" stroke-miterlimit="10" stroke-opacity="1" fill="#002060" fill-rule="nonzero" fill-opacity="1"/><path d="M2526.46 1883.94C2526.46 1890.01 2521.53 1894.94 2515.46 1894.94 2509.38 1894.94 2504.46 1890.01 2504.46 1883.94 2504.46 1877.86 2509.38 1872.94 2515.46 1872.94 2521.53 1872.94 2526.46 1877.86 2526.46 1883.94Z" stroke="#002060" stroke-width="3.4375" stroke-linecap="butt" stroke-linejoin="round" stroke-miterlimit="10" stroke-opacity="1" fill="#002060" fill-rule="nonzero" fill-opacity="1"/><path d="M2701.46 2260.94C2701.46 2267.01 2696.53 2271.94 2690.46 2271.94 2684.38 2271.94 2679.46 2267.01 2679.46 2260.94 2679.46 2254.86 2684.38 2249.94 2690.46 2249.94 2696.53 2249.94 2701.46 2254.86 2701.46 2260.94Z" stroke="#002060" stroke-width="3.4375" stroke-linecap="butt" stroke-linejoin="round" stroke-miterlimit="10" stroke-opacity="1" fill="#002060" fill-rule="nonzero" fill-opacity="1"/><path d="M2877.46 2079.94C2877.46 2086.01 2872.53 2090.94 2866.46 2090.94 2860.38 2090.94 2855.46 2086.01 2855.46 2079.94 2855.46 2073.86 2860.38 2068.94 2866.46 2068.94 2872.53 2068.94 2877.46 2073.86 2877.46 2079.94Z" stroke="#002060" stroke-width="3.4375" stroke-linecap="butt" stroke-linejoin="round" stroke-miterlimit="10" stroke-opacity="1" fill="#002060" fill-rule="nonzero" fill-opacity="1"/><path d="M3052.46 2106.94C3052.46 2113.01 3047.53 2117.94 3041.46 2117.94 3035.38 2117.94 3030.46 2113.01 3030.46 2106.94 3030.46 2100.86 3035.38 2095.94 3041.46 2095.94 3047.53 2095.94 3052.46 2100.86 3052.46 2106.94Z" stroke="#002060" stroke-width="3.4375" stroke-linecap="butt" stroke-linejoin="round" stroke-miterlimit="10" stroke-opacity="1" fill="#002060" fill-rule="nonzero" fill-opacity="1"/><path d="M3227.46 1918.94C3227.46 1925.01 3222.53 1929.94 3216.46 1929.94 3210.38 1929.94 3205.46 1925.01 3205.46 1918.94 3205.46 1912.86 3210.38 1907.94 3216.46 1907.94 3222.53 1907.94 3227.46 1912.86 3227.46 1918.94Z" stroke="#002060" stroke-width="3.4375" stroke-linecap="butt" stroke-linejoin="round" stroke-miterlimit="10" stroke-opacity="1" fill="#002060" fill-rule="nonzero" fill-opacity="1"/><path d="M3403.46 1722.94C3403.46 1729.01 3398.53 1733.94 3392.46 1733.94 3386.38 1733.94 3381.46 1729.01 3381.46 1722.94 3381.46 1716.86 3386.38 1711.94 3392.46 1711.94 3398.53 1711.94 3403.46 1716.86 3403.46 1722.94Z" stroke="#002060" stroke-width="3.4375" stroke-linecap="butt" stroke-linejoin="round" stroke-miterlimit="10" stroke-opacity="1" fill="#002060" fill-rule="nonzero" fill-opacity="1"/><path d="M3578.46 1929.94C3578.46 1936.01 3573.53 1940.94 3567.46 1940.94 3561.38 1940.94 3556.46 1936.01 3556.46 1929.94 3556.46 1923.86 3561.38 1918.94 3567.46 1918.94 3573.53 1918.94 3578.46 1923.86 3578.46 1929.94Z" stroke="#002060" stroke-width="3.4375" stroke-linecap="butt" stroke-linejoin="round" stroke-miterlimit="10" stroke-opacity="1" fill="#002060" fill-rule="nonzero" fill-opacity="1"/><path d="M3754.46 1790.94C3754.46 1797.01 3749.53 1801.94 3743.46 1801.94 3737.38 1801.94 3732.46 1797.01 3732.46 1790.94 3732.46 1784.86 3737.38 1779.94 3743.46 1779.94 3749.53 1779.94 3754.46 1784.86 3754.46 1790.94Z" stroke="#002060" stroke-width="3.4375" stroke-linecap="butt" stroke-linejoin="round" stroke-miterlimit="10" stroke-opacity="1" fill="#002060" fill-rule="nonzero" fill-opacity="1"/></g><g clip-path="url(#clip3)"><path d="M0.599496-3.38482 0.606266-3.38362C2.47565-3.05253 3.72268-1.26869 3.39159 0.600695 3.0605 2.47008 1.27666 3.71711-0.592727 3.38602L-0.599496 3.38482C-2.46888 3.05373-3.71591 1.26989-3.38482-0.599496-3.05373-2.46888-1.26989-3.71591 0.599496-3.38482ZM14.1455-0.985636 14.1523-0.984437C16.0217-0.653344 17.2687 1.1305 16.9376 2.99988 16.6065 4.86927 14.8227 6.1163 12.9533 5.7852L12.9466 5.784C11.0772 5.45291 9.83014 3.66907 10.1612 1.79969 10.4923-0.0696988 12.2762-1.31673 14.1455-0.985636ZM27.6916 1.41355 27.6984 1.41475C29.5678 1.74584 30.8148 3.52968 30.4837 5.39907 30.1526 7.26845 28.3688 8.51548 26.4994 8.18439L26.4926 8.18319C24.6232 7.8521 23.3762 6.06826 23.7073 4.19887 24.0384 2.32949 25.8222 1.08245 27.6916 1.41355ZM41.2377 3.81273 41.2444 3.81393C43.1138 4.14502 44.3608 5.92886 44.0297 7.79825 43.6987 9.66763 41.9148 10.9147 40.0454 10.5836L40.0387 10.5824C38.1693 10.2513 36.9222 8.46744 37.2533 6.59805 37.5844 4.72867 39.3683 3.48164 41.2377 3.81273ZM54.7835 6.21187 54.7902 6.21307C56.6596 6.54403 57.9068 8.32778 57.5758 10.1972 57.2449 12.0666 55.4611 13.3138 53.5917 12.9828L53.5849 12.9816C51.7155 12.6506 50.4684 10.8669 50.7993 8.99748 51.1303 7.12807 52.9141 5.88091 54.7835 6.21187ZM68.3299 8.61112 68.3366 8.61232C70.206 8.94347 71.453 10.7273 71.1218 12.5967 70.7907 14.4661 69.0068 15.7131 67.1374 15.3819L67.1307 15.3807C65.2613 15.0496 64.0143 13.2657 64.3455 11.3963 64.6766 9.52695 66.4605 8.27997 68.3299 8.61112ZM81.8759 11.0103 81.8827 11.0115C83.7521 11.3427 84.999 13.1265 84.6679 14.9959 84.3367 16.8653 82.5529 18.1123 80.6835 17.7811L80.6767 17.7799C78.8073 17.4488 77.5604 15.6649 77.8915 13.7955 78.2227 11.9261 80.0065 10.6792 81.8759 11.0103ZM95.4224 13.4096 95.4292 13.4108C97.2985 13.7422 98.5453 15.5262 98.2139 17.3956 97.8824 19.2649 96.0984 20.5116 94.229 20.1802L94.2223 20.179C92.353 19.8476 91.1062 18.0635 91.4376 16.1942 91.7691 14.3249 93.5531 13.0782 95.4224 13.4096ZM108.968 15.8088 108.975 15.81C110.845 16.1414 112.091 17.9254 111.76 19.7948 111.428 21.6641 109.644 22.9108 107.775 22.5794L107.768 22.5782C105.899 22.2468 104.652 20.4627 104.984 18.5934 105.315 16.7241 107.099 15.4773 108.968 15.8088ZM122.515 18.2079 122.521 18.2091C124.391 18.5406 125.637 20.3246 125.306 22.1939 124.975 24.0633 123.19 25.31 121.321 24.9786L121.314 24.9774C119.445 24.646 118.198 22.8619 118.53 20.9926 118.861 19.1233 120.645 17.8765 122.515 18.2079ZM136.06 20.607 136.067 20.6082C137.936 20.9392 139.183 22.723 138.852 24.5924 138.521 26.4618 136.737 27.7089 134.868 27.3779L134.861 27.3767C132.992 27.0456 131.745 25.2618 132.076 23.3924 132.407 21.5231 134.191 20.276 136.06 20.607ZM149.606 23.0062 149.613 23.0074C151.482 23.3384 152.729 25.1222 152.398 26.9916 152.067 28.861 150.283 30.1081 148.414 29.7771L148.407 29.7759C146.538 29.4448 145.291 27.661 145.622 25.7916 145.953 23.9222 147.737 22.6752 149.606 23.0062ZM163.152 25.4054 163.159 25.4066C165.028 25.7376 166.275 27.5214 165.944 29.3908 165.613 31.2602 163.829 32.5073 161.96 32.1763L161.953 32.175C160.084 31.844 158.837 30.0602 159.168 28.1908 159.499 26.3214 161.283 25.0743 163.152 25.4054ZM176.698 27.8046 176.705 27.8058C178.574 28.1368 179.821 29.9206 179.49 31.79 179.159 33.6594 177.375 34.9065 175.506 34.5754L175.499 34.5742C173.63 34.2432 172.383 32.4594 172.714 30.59 173.045 28.7206 174.829 27.4735 176.698 27.8046ZM190.244 30.2037 190.251 30.2049C192.12 30.536 193.367 32.3198 193.036 34.1892 192.705 36.0586 190.921 37.3057 189.052 36.9746L189.045 36.9734C187.176 36.6424 185.929 34.8586 186.26 32.9892 186.591 31.1198 188.375 29.8727 190.244 30.2037ZM203.79 32.6029 203.797 32.6041C205.666 32.9352 206.913 34.719 206.582 36.5884 206.251 38.4578 204.468 39.7048 202.598 39.3738L202.591 39.3726C200.722 39.0416 199.475 37.2578 199.806 35.3884 200.137 33.519 201.921 32.2719 203.79 32.6029ZM217.336 35.0021 217.343 35.0033C219.212 35.3344 220.459 37.1182 220.128 38.9875 219.797 40.8569 218.014 42.104 216.144 41.773L216.137 41.7718C214.268 41.4408 213.021 39.6569 213.352 37.7876 213.683 35.9182 215.467 34.6711 217.336 35.0021ZM230.882 37.4013 230.889 37.4025C232.758 37.7335 234.006 39.5173 233.674 41.3867 233.343 43.2561 231.56 44.5032 229.69 44.1722L229.683 44.171C227.814 43.8399 226.567 42.0561 226.898 40.1867 227.229 38.3173 229.013 37.0703 230.882 37.4013ZM244.428 39.8005 244.435 39.8017C246.304 40.1327 247.552 41.9165 247.221 43.7859 246.889 45.6553 245.106 46.9024 243.236 46.5714L243.23 46.5702C241.36 46.2391 240.113 44.4553 240.444 42.5859 240.775 40.7165 242.559 39.4694 244.428 39.8005ZM257.974 42.1997 257.981 42.2009C259.851 42.5319 261.098 44.3157 260.767 46.1851 260.436 48.0545 258.652 49.3016 256.782 48.9705L256.776 48.9693C254.906 48.6383 253.659 46.8545 253.99 44.9851 254.321 43.1157 256.105 41.8686 257.974 42.1997ZM271.522 44.5991 271.529 44.6003C273.398 44.9321 274.644 46.7164 274.312 48.5857 273.981 50.4549 272.196 51.7013 270.327 51.3695L270.32 51.3683C268.451 51.0365 267.205 49.2522 267.536 47.3829 267.868 45.5137 269.653 44.2673 271.522 44.5991ZM285.068 46.9983 285.075 46.9995C286.944 47.3313 288.19 49.1156 287.858 50.9848 287.527 52.8541 285.742 54.1005 283.873 53.7687L283.866 53.7675C281.997 53.4357 280.751 51.6514 281.082 49.7821 281.414 47.9128 283.199 46.6665 285.068 46.9983ZM298.614 49.3975 298.621 49.3987C300.49 49.7305 301.736 51.5148 301.404 53.384 301.073 55.2533 299.288 56.4996 297.419 56.1679L297.412 56.1667C295.543 55.8349 294.297 54.0506 294.629 52.1813 294.96 50.312 296.745 49.0657 298.614 49.3975ZM312.16 51.7966 312.167 51.7978C314.036 52.1296 315.282 53.9139 314.951 55.7832 314.619 57.6525 312.834 58.8988 310.965 58.567L310.958 58.5658C309.089 58.234 307.843 56.4497 308.175 54.5805 308.506 52.7112 310.291 51.4649 312.16 51.7966ZM325.706 54.1958 325.713 54.197C327.582 54.5288 328.828 56.3131 328.497 58.1824 328.165 60.0517 326.38 61.298 324.511 60.9662L324.504 60.965C322.635 60.6332 321.389 58.8489 321.721 56.9797 322.052 55.1104 323.837 53.864 325.706 54.1958ZM339.252 56.595 339.259 56.5962C341.128 56.928 342.374 58.7123 342.043 60.5816 341.711 62.4508 339.927 63.6972 338.057 63.3654L338.051 63.3642C336.181 63.0324 334.935 61.2481 335.267 59.3788 335.598 57.5096 337.383 56.2632 339.252 56.595ZM352.798 58.9942 352.805 58.9954C354.674 59.3272 355.92 61.1115 355.589 62.9808 355.257 64.85 353.473 66.0964 351.603 65.7646L351.597 65.7634C349.727 65.4316 348.481 63.6473 348.813 61.778 349.145 59.9088 350.929 58.6624 352.798 58.9942ZM366.344 61.3934 366.351 61.3946C368.22 61.7264 369.467 63.5107 369.135 65.3799 368.803 67.2492 367.019 68.4956 365.149 68.1638L365.143 68.1626C363.273 67.8308 362.027 66.0465 362.359 64.1772 362.691 62.308 364.475 61.0616 366.344 61.3934ZM379.89 63.7926 379.897 63.7938C381.766 64.1256 383.013 65.9099 382.681 67.7791 382.349 69.6484 380.565 70.8948 378.695 70.563L378.689 70.5618C376.819 70.23 375.573 68.4457 375.905 66.5764 376.237 64.7071 378.021 63.4608 379.89 63.7926ZM393.436 66.1917 393.443 66.193C395.312 66.5247 396.559 68.3091 396.227 70.1783 395.895 72.0476 394.111 73.2939 392.241 72.9621L392.235 72.9609C390.365 72.6292 389.119 70.8448 389.451 68.9756 389.783 67.1063 391.567 65.86 393.436 66.1917ZM406.982 68.5909 406.989 68.5921C408.858 68.9239 410.105 70.7082 409.773 72.5775 409.441 74.4468 407.657 75.6931 405.788 75.3613L405.781 75.3601C403.911 75.0283 402.665 73.244 402.997 71.3748 403.329 69.5055 405.113 68.2591 406.982 68.5909ZM420.528 70.9901 420.535 70.9913C422.404 71.3231 423.651 73.1074 423.319 74.9767 422.987 76.8459 421.203 78.0923 419.334 77.7605L419.327 77.7593C417.458 77.4275 416.211 75.6432 416.543 73.7739 416.875 71.9047 418.659 70.6583 420.528 70.9901ZM434.074 73.3893 434.081 73.3905C435.95 73.7223 437.197 75.5066 436.865 77.3759 436.533 79.2451 434.749 80.4915 432.88 80.1597L432.873 80.1585C431.004 79.8267 429.757 78.0424 430.089 76.1731 430.421 74.3039 432.205 73.0575 434.074 73.3893ZM447.62 75.7885 447.627 75.7897C449.496 76.1215 450.743 77.9058 450.411 79.7751 450.079 81.6443 448.295 82.8907 446.426 82.5589L446.419 82.5577C444.55 82.2259 443.303 80.4416 443.635 78.5723 443.967 76.7031 445.751 75.4567 447.62 75.7885ZM461.166 78.1877 461.173 78.1889C463.043 78.5207 464.289 80.305 463.957 82.1742 463.625 84.0435 461.841 85.2899 459.972 84.9581L459.965 84.9569C458.096 84.6251 456.849 82.8408 457.181 80.9715 457.513 79.1022 459.297 77.8559 461.166 78.1877ZM474.713 80.5869 474.719 80.5881C476.589 80.9199 477.835 82.7042 477.503 84.5734 477.171 86.4427 475.387 87.689 473.518 87.3573L473.511 87.356C471.642 87.0243 470.395 85.24 470.727 83.3707 471.059 81.5014 472.843 80.2551 474.713 80.5869ZM488.259 82.986 488.265 82.9872C490.135 83.319 491.381 85.1033 491.049 86.9726 490.717 88.8419 488.933 90.0882 487.064 89.7564L487.057 89.7552C485.188 89.4234 483.941 87.6391 484.273 85.7699 484.605 83.9006 486.389 82.6543 488.259 82.986ZM501.805 85.3852 501.811 85.3864C503.681 85.7182 504.927 87.5025 504.595 89.3718 504.263 91.2411 502.479 92.4874 500.61 92.1556L500.603 92.1544C498.734 91.8226 497.487 90.0383 497.819 88.1691 498.151 86.2998 499.935 85.0534 501.805 85.3852ZM515.351 87.7844 515.357 87.7856C517.227 88.1174 518.473 89.9017 518.141 91.771 517.81 93.6402 516.025 94.8866 514.156 94.5548L514.149 94.5536C512.28 94.2218 511.034 92.4375 511.365 90.5682 511.697 88.699 513.481 87.4526 515.351 87.7844ZM528.897 90.1836 528.904 90.1848C530.773 90.5166 532.019 92.3009 531.687 94.1702 531.356 96.0394 529.571 97.2858 527.702 96.954L527.695 96.9528C525.826 96.621 524.58 94.8367 524.911 92.9674 525.243 91.0982 527.027 89.8518 528.897 90.1836ZM542.44 92.5823 542.447 92.5835C544.316 92.9138 545.564 94.6971 545.234 96.5666 544.904 98.4361 543.12 99.6839 541.251 99.3537L541.244 99.3525C539.374 99.0222 538.127 97.2389 538.457 95.3693 538.787 93.4998 540.57 92.252 542.44 92.5823ZM555.986 94.9815 555.993 94.9827C557.862 95.313 559.11 97.0962 558.78 98.9658 558.45 100.835 556.666 102.083 554.797 101.753L554.79 101.752C552.921 101.421 551.673 99.6381 552.003 97.7685 552.333 95.899 554.117 94.6512 555.986 94.9815ZM569.532 97.3807 569.539 97.3819C571.408 97.7121 572.656 99.4954 572.326 101.365 571.996 103.234 570.212 104.482 568.343 104.152L568.336 104.151C566.467 103.821 565.219 102.037 565.549 100.168 565.879 98.2982 567.663 97.0504 569.532 97.3807ZM583.078 99.7798 583.085 99.781C584.955 100.111 586.202 101.895 585.872 103.764 585.542 105.634 583.758 106.881 581.889 106.551L581.882 106.55C580.013 106.22 578.765 104.436 579.095 102.567 579.425 100.697 581.209 99.4495 583.078 99.7798ZM596.624 102.179 596.631 102.18C598.501 102.51 599.748 104.294 599.418 106.163 599.088 108.033 597.305 109.281 595.435 108.95L595.428 108.949C593.559 108.619 592.311 106.836 592.641 104.966 592.971 103.097 594.755 101.849 596.624 102.179ZM610.17 104.578 610.177 104.579C612.047 104.91 613.294 106.693 612.964 108.562 612.634 110.432 610.851 111.68 608.981 111.35L608.974 111.348C607.105 111.018 605.857 109.235 606.187 107.365 606.517 105.496 608.301 104.248 610.17 104.578ZM623.716 106.977 623.723 106.979C625.593 107.309 626.84 109.092 626.51 110.962 626.18 112.831 624.397 114.079 622.527 113.749L622.52 113.748C620.651 113.417 619.403 111.634 619.733 109.764 620.064 107.895 621.847 106.647 623.716 106.977ZM637.262 109.377 637.269 109.378C639.139 109.708 640.386 111.491 640.056 113.361 639.726 115.23 637.943 116.478 636.073 116.148L636.066 116.147C634.197 115.816 632.949 114.033 633.279 112.164 633.61 110.294 635.393 109.046 637.262 109.377ZM650.808 111.776 650.815 111.777C652.685 112.107 653.933 113.89 653.602 115.76 653.272 117.63 651.489 118.877 649.619 118.547L649.612 118.546C647.743 118.216 646.495 116.432 646.825 114.563 647.156 112.693 648.939 111.445 650.808 111.776ZM664.355 114.175 664.361 114.176C666.231 114.506 667.479 116.29 667.148 118.159 666.818 120.029 665.035 121.277 663.165 120.946L663.158 120.945C661.289 120.615 660.041 118.831 660.371 116.962 660.702 115.092 662.485 113.845 664.355 114.175ZM677.901 116.574 677.907 116.575C679.777 116.906 681.025 118.689 680.694 120.558 680.364 122.428 678.581 123.676 676.711 123.345L676.704 123.344C674.835 123.014 673.587 121.231 673.917 119.361 674.248 117.492 676.031 116.244 677.901 116.574ZM691.447 118.973 691.453 118.974C693.323 119.305 694.571 121.088 694.24 122.958 693.91 124.827 692.127 126.075 690.257 125.745L690.251 125.743C688.381 125.413 687.133 123.63 687.464 121.76 687.794 119.891 689.577 118.643 691.447 118.973ZM704.993 121.372 704.999 121.374C706.869 121.704 708.117 123.487 707.786 125.357 707.456 127.226 705.673 128.474 703.803 128.144L703.797 128.143C701.927 127.812 700.679 126.029 701.01 124.159 701.34 122.29 703.123 121.042 704.993 121.372ZM718.539 123.772 718.545 123.773C720.415 124.103 721.663 125.886 721.333 127.756 721.002 129.625 719.219 130.873 717.349 130.543L717.343 130.542C715.473 130.212 714.225 128.428 714.556 126.559 714.886 124.689 716.669 123.441 718.539 123.772ZM732.085 126.171 732.092 126.172C733.961 126.502 735.209 128.286 734.879 130.155 734.548 132.025 732.765 133.272 730.895 132.942L730.889 132.941C729.019 132.611 727.771 130.827 728.102 128.958 728.432 127.088 730.215 125.841 732.085 126.171ZM745.631 128.57 745.638 128.571C747.507 128.901 748.755 130.685 748.425 132.554 748.094 134.424 746.311 135.672 744.442 135.341L744.435 135.34C742.565 135.01 741.317 133.227 741.648 131.357 741.978 129.488 743.761 128.24 745.631 128.57ZM759.177 130.969 759.184 130.97C761.053 131.301 762.301 133.084 761.971 134.953 761.64 136.823 759.857 138.071 757.988 137.741L757.981 137.739C756.111 137.409 754.863 135.626 755.194 133.756 755.524 131.887 757.307 130.639 759.177 130.969ZM772.723 133.368 772.73 133.37C774.599 133.7 775.847 135.483 775.517 137.353 775.186 139.222 773.403 140.47 771.534 140.14L771.527 140.138C769.657 139.808 768.409 138.025 768.74 136.155 769.07 134.286 770.853 133.038 772.723 133.368ZM786.269 135.768 786.276 135.769C788.145 136.099 789.393 137.882 789.063 139.752 788.732 141.621 786.949 142.869 785.08 142.539L785.073 142.538C783.203 142.207 781.955 140.424 782.286 138.555 782.616 136.685 784.399 135.437 786.269 135.768ZM799.815 138.167 799.822 138.168C801.691 138.498 802.939 140.281 802.609 142.151 802.278 144.021 800.495 145.268 798.626 144.938L798.619 144.937C796.749 144.607 795.501 142.823 795.832 140.954 796.162 139.084 797.945 137.836 799.815 138.167ZM813.361 140.566 813.368 140.567C815.237 140.897 816.485 142.681 816.155 144.55 815.824 146.42 814.041 147.668 812.172 147.337L812.165 147.336C810.295 147.006 809.047 145.222 809.378 143.353 809.708 141.483 811.491 140.236 813.361 140.566ZM826.907 142.965 826.914 142.966C828.783 143.297 830.031 145.08 829.701 146.949 829.37 148.819 827.587 150.067 825.718 149.736L825.711 149.735C823.841 149.405 822.594 147.622 822.924 145.752 823.254 143.883 825.037 142.635 826.907 142.965ZM840.453 145.364 840.46 145.365C842.329 145.696 843.577 147.479 843.247 149.349 842.916 151.218 841.133 152.466 839.264 152.136L839.257 152.134C837.387 151.804 836.139 150.021 836.47 148.151 836.8 146.282 838.583 145.034 840.453 145.364ZM853.999 147.763 854.006 147.765C855.875 148.095 857.123 149.878 856.793 151.748 856.462 153.617 854.679 154.865 852.81 154.535L852.803 154.534C850.933 154.203 849.685 152.42 850.016 150.55 850.346 148.681 852.129 147.433 853.999 147.763ZM867.545 150.163 867.552 150.164C869.421 150.494 870.669 152.277 870.339 154.147 870.008 156.016 868.225 157.264 866.356 156.934L866.349 156.933C864.479 156.602 863.232 154.819 863.562 152.95 863.892 151.08 865.675 149.832 867.545 150.163ZM881.091 152.562 881.098 152.563C882.967 152.893 884.215 154.677 883.885 156.546 883.554 158.416 881.771 159.663 879.902 159.333L879.895 159.332C878.025 159.002 876.778 157.218 877.108 155.349 877.438 153.479 879.221 152.231 881.091 152.562ZM894.637 154.961 894.644 154.962C896.513 155.292 897.761 157.076 897.431 158.945 897.1 160.815 895.317 162.063 893.448 161.732L893.441 161.731C891.571 161.401 890.323 159.618 890.654 157.748 890.984 155.878 892.767 154.631 894.637 154.961ZM908.183 157.36 908.19 157.361C910.059 157.692 911.307 159.475 910.977 161.344 910.646 163.214 908.863 164.462 906.994 164.131L906.987 164.13C905.117 163.8 903.87 162.017 904.2 160.147 904.53 158.278 906.313 157.03 908.183 157.36ZM921.729 159.759 921.736 159.76C923.605 160.091 924.853 161.874 924.523 163.744 924.192 165.613 922.409 166.861 920.54 166.531L920.533 166.529C918.663 166.199 917.416 164.416 917.746 162.546 918.076 160.677 919.859 159.429 921.729 159.759ZM935.275 162.158 935.282 162.16C937.151 162.49 938.399 164.273 938.069 166.143 937.738 168.012 935.955 169.26 934.086 168.93L934.079 168.929C932.209 168.598 930.962 166.815 931.292 164.946 931.622 163.076 933.405 161.828 935.275 162.158ZM948.821 164.558 948.828 164.559C950.697 164.889 951.945 166.672 951.615 168.542 951.284 170.411 949.501 171.659 947.632 171.329L947.625 171.328C945.755 170.998 944.508 169.214 944.838 167.345 945.168 165.475 946.951 164.227 948.821 164.558ZM962.367 166.957 962.374 166.958C964.243 167.288 965.491 169.072 965.161 170.941 964.83 172.811 963.047 174.058 961.178 173.728L961.171 173.727C959.301 173.397 958.054 171.613 958.384 169.744 958.714 167.874 960.497 166.627 962.367 166.957ZM975.913 169.356 975.92 169.357C977.789 169.688 979.037 171.471 978.707 173.34 978.376 175.21 976.593 176.458 974.724 176.127L974.717 176.126C972.847 175.796 971.6 174.013 971.93 172.143 972.26 170.274 974.043 169.026 975.913 169.356ZM989.459 171.755 989.466 171.756C991.335 172.087 992.583 173.87 992.253 175.74 991.922 177.609 990.139 178.857 988.27 178.527L988.263 178.525C986.393 178.195 985.146 176.412 985.476 174.542 985.806 172.673 987.589 171.425 989.459 171.755ZM1003 174.154 1003.01 174.156C1004.88 174.486 1006.13 176.269 1005.8 178.139 1005.47 180.008 1003.69 181.256 1001.82 180.926L1001.81 180.925C999.939 180.594 998.692 178.811 999.022 176.941 999.352 175.072 1001.14 173.824 1003 174.154ZM1016.55 176.554 1016.56 176.555C1018.43 176.885 1019.68 178.668 1019.34 180.538 1019.01 182.407 1017.23 183.655 1015.36 183.325L1015.35 183.324C1013.49 182.993 1012.24 181.21 1012.57 179.341 1012.9 177.471 1014.68 176.223 1016.55 176.554ZM1030.1 178.953 1030.1 178.954C1031.97 179.284 1033.22 181.068 1032.89 182.937 1032.56 184.807 1030.78 186.054 1028.91 185.724L1028.9 185.723C1027.03 185.393 1025.78 183.609 1026.11 181.74 1026.44 179.87 1028.23 178.622 1030.1 178.953ZM1043.64 181.352 1043.65 181.353C1045.52 181.683 1046.77 183.467 1046.44 185.336 1046.11 187.206 1044.32 188.454 1042.45 188.123L1042.45 188.122C1040.58 187.792 1039.33 186.008 1039.66 184.139 1039.99 182.269 1041.77 181.022 1043.64 181.352ZM1057.19 183.751 1057.2 183.752C1059.07 184.083 1060.31 185.866 1059.98 187.735 1059.65 189.605 1057.87 190.853 1056 190.522L1055.99 190.521C1054.12 190.191 1052.88 188.408 1053.21 186.538 1053.54 184.669 1055.32 183.421 1057.19 183.751ZM1070.73 186.15 1070.74 186.151C1072.61 186.482 1073.86 188.265 1073.53 190.135 1073.2 192.004 1071.42 193.252 1069.55 192.922L1069.54 192.92C1067.67 192.59 1066.42 190.807 1066.75 188.937 1067.08 187.068 1068.87 185.82 1070.73 186.15ZM1084.28 188.549 1084.29 188.551C1086.16 188.881 1087.41 190.664 1087.07 192.534 1086.74 194.403 1084.96 195.651 1083.09 195.321L1083.08 195.32C1081.22 194.989 1079.97 193.206 1080.3 191.337 1080.63 189.467 1082.41 188.219 1084.28 188.549ZM1097.83 190.949 1097.83 190.95C1099.7 191.28 1100.95 193.063 1100.62 194.933 1100.29 196.802 1098.51 198.05 1096.64 197.72L1096.63 197.719C1094.76 197.389 1093.51 195.605 1093.84 193.736 1094.17 191.866 1095.96 190.618 1097.83 190.949ZM1111.37 193.348 1111.38 193.349C1113.25 193.679 1114.5 195.463 1114.17 197.332 1113.84 199.202 1112.05 200.449 1110.18 200.119L1110.18 200.118C1108.31 199.788 1107.06 198.004 1107.39 196.135 1107.72 194.265 1109.5 193.018 1111.37 193.348ZM1124.92 195.747 1124.93 195.748C1126.8 196.079 1128.04 197.862 1127.71 199.731 1127.38 201.601 1125.6 202.849 1123.73 202.518L1123.72 202.517C1121.85 202.187 1120.61 200.404 1120.94 198.534 1121.27 196.665 1123.05 195.417 1124.92 195.747ZM1138.46 198.146 1138.47 198.147C1140.34 198.478 1141.59 200.261 1141.26 202.131 1140.93 204 1139.15 205.248 1137.28 204.918L1137.27 204.916C1135.4 204.586 1134.15 202.803 1134.48 200.933 1134.81 199.064 1136.6 197.816 1138.46 198.146ZM1152.01 200.545 1152.02 200.547C1153.89 200.877 1155.14 202.66 1154.8 204.53 1154.47 206.399 1152.69 207.647 1150.82 207.317L1150.81 207.316C1148.95 206.985 1147.7 205.202 1148.03 203.332 1148.36 201.463 1150.14 200.215 1152.01 200.545ZM1165.56 202.945 1165.56 202.946C1167.43 203.276 1168.68 205.059 1168.35 206.929 1168.02 208.798 1166.24 210.046 1164.37 209.716L1164.36 209.715C1162.49 209.384 1161.24 207.601 1161.57 205.732 1161.9 203.862 1163.69 202.614 1165.56 202.945ZM1179.1 205.344 1179.11 205.345C1180.98 205.675 1182.23 207.459 1181.9 209.328 1181.57 211.198 1179.78 212.445 1177.91 212.115L1177.91 212.114C1176.04 211.784 1174.79 210 1175.12 208.131 1175.45 206.261 1177.23 205.014 1179.1 205.344ZM1192.65 207.743 1192.66 207.744C1194.53 208.074 1195.77 209.858 1195.44 211.727 1195.11 213.597 1193.33 214.845 1191.46 214.514L1191.45 214.513C1189.58 214.183 1188.34 212.4 1188.67 210.53 1189 208.661 1190.78 207.413 1192.65 207.743ZM1206.2 210.142 1206.2 210.143C1208.07 210.474 1209.32 212.257 1208.99 214.126 1208.66 215.996 1206.88 217.244 1205.01 216.914L1205 216.912C1203.13 216.582 1201.88 214.799 1202.21 212.929 1202.54 211.06 1204.33 209.812 1206.2 210.142ZM1219.74 212.541 1219.75 212.543C1221.62 212.873 1222.87 214.656 1222.53 216.526 1222.2 218.395 1220.42 219.643 1218.55 219.313L1218.55 219.312C1216.68 218.981 1215.43 217.198 1215.76 215.328 1216.09 213.459 1217.87 212.211 1219.74 212.541ZM1233.29 214.941 1233.29 214.942C1235.16 215.272 1236.41 217.055 1236.08 218.925 1235.75 220.794 1233.97 222.042 1232.1 221.712L1232.09 221.711C1230.22 221.38 1228.97 219.597 1229.3 217.728 1229.63 215.858 1231.42 214.61 1233.29 214.941ZM1246.83 217.34 1246.84 217.341C1248.71 217.671 1249.96 219.455 1249.63 221.324 1249.3 223.194 1247.51 224.441 1245.64 224.111L1245.64 224.11C1243.77 223.78 1242.52 221.996 1242.85 220.127 1243.18 218.257 1244.96 217.009 1246.83 217.34ZM1260.38 219.739 1260.39 219.74C1262.26 220.07 1263.5 221.854 1263.17 223.723 1262.84 225.593 1261.06 226.841 1259.19 226.51L1259.18 226.509C1257.31 226.179 1256.07 224.395 1256.4 222.526 1256.73 220.656 1258.51 219.409 1260.38 219.739ZM1273.93 222.138 1273.93 222.139C1275.8 222.47 1277.05 224.253 1276.72 226.122 1276.39 227.992 1274.61 229.24 1272.74 228.909L1272.73 228.908C1270.86 228.578 1269.61 226.795 1269.94 224.925 1270.27 223.056 1272.06 221.808 1273.93 222.138ZM1287.47 224.537 1287.48 224.538C1289.35 224.869 1290.6 226.652 1290.27 228.522 1289.93 230.391 1288.15 231.639 1286.28 231.309L1286.28 231.307C1284.41 230.977 1283.16 229.194 1283.49 227.324 1283.82 225.455 1285.6 224.207 1287.47 224.537ZM1301.02 226.936 1301.02 226.938C1302.89 227.268 1304.14 229.051 1303.81 230.921 1303.48 232.79 1301.7 234.038 1299.83 233.708L1299.82 233.707C1297.95 233.376 1296.7 231.593 1297.03 229.723 1297.36 227.854 1299.15 226.606 1301.02 226.936ZM1314.56 229.336 1314.57 229.337C1316.44 229.667 1317.69 231.45 1317.36 233.32 1317.03 235.189 1315.24 236.437 1313.37 236.107L1313.37 236.106C1311.5 235.775 1310.25 233.992 1310.58 232.123 1310.91 230.253 1312.69 229.005 1314.56 229.336ZM1328.11 231.735 1328.12 231.736C1329.99 232.066 1331.23 233.85 1330.9 235.719 1330.57 237.589 1328.79 238.836 1326.92 238.506L1326.91 238.505C1325.04 238.175 1323.8 236.391 1324.13 234.522 1324.46 232.652 1326.24 231.404 1328.11 231.735ZM1341.66 234.134 1341.66 234.135C1343.53 234.465 1344.78 236.249 1344.45 238.118 1344.12 239.988 1342.34 241.236 1340.47 240.905L1340.46 240.904C1338.59 240.574 1337.34 238.791 1337.67 236.921 1338 235.051 1339.79 233.804 1341.66 234.134ZM1355.2 236.533 1355.21 236.534C1357.08 236.865 1358.33 238.648 1358 240.517 1357.66 242.387 1355.88 243.635 1354.01 243.305L1354.01 243.303C1352.14 242.973 1350.89 241.19 1351.22 239.32 1351.55 237.451 1353.33 236.203 1355.2 236.533ZM1368.75 238.932 1368.75 238.934C1370.62 239.264 1371.87 241.047 1371.54 242.917 1371.21 244.786 1369.43 246.034 1367.56 245.704L1367.55 245.702C1365.68 245.372 1364.43 243.589 1364.76 241.719 1365.09 239.85 1366.88 238.602 1368.75 238.932ZM1382.29 241.331 1382.3 241.333C1384.17 241.663 1385.42 243.446 1385.09 245.316 1384.76 247.185 1382.97 248.433 1381.1 248.103L1381.1 248.102C1379.23 247.771 1377.98 245.988 1378.31 244.119 1378.64 242.249 1380.42 241.001 1382.29 241.331ZM1395.84 243.731 1395.85 243.732C1397.72 244.062 1398.96 245.845 1398.63 247.715 1398.3 249.585 1396.52 250.832 1394.65 250.502L1394.64 250.501C1392.77 250.171 1391.53 248.387 1391.86 246.518 1392.19 244.648 1393.97 243.4 1395.84 243.731ZM1409.39 246.13 1409.39 246.131C1411.26 246.461 1412.51 248.245 1412.18 250.114 1411.85 251.984 1410.07 253.232 1408.2 252.901L1408.19 252.9C1406.32 252.57 1405.07 250.786 1405.4 248.917 1405.73 247.047 1407.52 245.8 1409.39 246.13ZM1422.93 248.529 1422.94 248.53C1424.81 248.861 1426.06 250.644 1425.73 252.513 1425.4 254.383 1423.61 255.631 1421.74 255.3L1421.74 255.299C1419.87 254.969 1418.62 253.186 1418.95 251.316 1419.28 249.447 1421.06 248.199 1422.93 248.529ZM1436.48 250.928 1436.48 250.929C1438.35 251.26 1439.6 253.043 1439.27 254.913 1438.94 256.782 1437.16 258.03 1435.29 257.7L1435.28 257.698C1433.41 257.368 1432.16 255.585 1432.49 253.715 1432.82 251.846 1434.61 250.598 1436.48 250.928ZM1450.02 253.327 1450.03 253.329C1451.9 253.659 1453.15 255.442 1452.82 257.312 1452.49 259.181 1450.7 260.429 1448.83 260.099L1448.83 260.098C1446.96 259.767 1445.71 257.984 1446.04 256.114 1446.37 254.245 1448.15 252.997 1450.02 253.327ZM1463.57 255.727 1463.58 255.728C1465.45 256.058 1466.69 257.841 1466.36 259.711 1466.03 261.58 1464.25 262.828 1462.38 262.498L1462.37 262.497C1460.5 262.166 1459.26 260.383 1459.59 258.514 1459.92 256.644 1461.7 255.396 1463.57 255.727ZM1477.12 258.126 1477.12 258.127C1478.99 258.457 1480.24 260.241 1479.91 262.11 1479.58 263.98 1477.8 265.227 1475.93 264.897L1475.92 264.896C1474.05 264.566 1472.8 262.782 1473.13 260.913 1473.46 259.043 1475.25 257.795 1477.12 258.126ZM1490.66 260.525 1490.67 260.526C1492.54 260.856 1493.79 262.64 1493.46 264.509 1493.13 266.379 1491.34 267.627 1489.47 267.296L1489.47 267.295C1487.6 266.965 1486.35 265.182 1486.68 263.312 1487.01 261.442 1488.79 260.195 1490.66 260.525ZM1504.21 262.924 1504.21 262.925C1506.08 263.256 1507.33 265.039 1507 266.908 1506.67 268.778 1504.89 270.026 1503.02 269.695L1503.01 269.694C1501.14 269.364 1499.89 267.581 1500.22 265.711 1500.55 263.842 1502.34 262.594 1504.21 262.924ZM1517.75 265.322 1517.75 265.323C1519.62 265.649 1520.88 267.43 1520.55 269.3 1520.22 271.17 1518.44 272.422 1516.57 272.096L1516.57 272.095C1514.69 271.769 1513.44 269.988 1513.77 268.118 1514.1 266.248 1515.88 264.996 1517.75 265.322ZM1531.29 267.721 1531.3 267.722C1533.17 268.048 1534.42 269.829 1534.1 271.699 1533.77 273.569 1531.99 274.821 1530.12 274.495L1530.11 274.494C1528.24 274.168 1526.99 272.387 1527.32 270.517 1527.64 268.647 1529.42 267.395 1531.29 267.721ZM1544.84 270.12 1544.85 270.122C1546.72 270.448 1547.97 272.228 1547.64 274.098 1547.32 275.969 1545.53 277.22 1543.66 276.894L1543.66 276.893C1541.79 276.567 1540.54 274.787 1540.86 272.916 1541.19 271.046 1542.97 269.794 1544.84 270.12ZM1558.38 272.52 1558.39 272.521C1560.26 272.847 1561.51 274.627 1561.19 276.498 1560.86 278.368 1559.08 279.62 1557.21 279.294L1557.2 279.292C1555.33 278.966 1554.08 277.186 1554.41 275.316 1554.73 273.445 1556.51 272.193 1558.38 272.52ZM1571.93 274.919 1571.94 274.92C1573.81 275.246 1575.06 277.026 1574.73 278.897 1574.41 280.767 1572.63 282.019 1570.76 281.693L1570.75 281.691C1568.88 281.365 1567.63 279.585 1567.95 277.715 1568.28 275.844 1570.06 274.593 1571.93 274.919ZM1585.48 277.318 1585.48 277.319C1587.35 277.645 1588.61 279.426 1588.28 281.296 1587.95 283.166 1586.17 284.418 1584.3 284.092L1584.3 284.091C1582.43 283.765 1581.17 281.984 1581.5 280.114 1581.83 278.244 1583.61 276.992 1585.48 277.318ZM1599.02 279.717 1599.03 279.718C1600.9 280.044 1602.15 281.825 1601.83 283.695 1601.5 285.565 1599.72 286.817 1597.85 286.491L1597.84 286.49C1595.97 286.164 1594.72 284.383 1595.05 282.513 1595.37 280.643 1597.15 279.391 1599.02 279.717ZM1612.57 282.116 1612.58 282.117C1614.45 282.443 1615.7 284.224 1615.37 286.094 1615.05 287.965 1613.27 289.216 1611.39 288.89L1611.39 288.889C1609.52 288.563 1608.27 286.783 1608.59 284.912 1608.92 283.042 1610.7 281.79 1612.57 282.116ZM1626.11 284.515 1626.12 284.517C1627.99 284.843 1629.24 286.623 1628.92 288.493 1628.59 290.364 1626.81 291.615 1624.94 291.289L1624.93 291.288C1623.06 290.962 1621.81 289.182 1622.14 287.311 1622.46 285.441 1624.24 284.189 1626.11 284.515ZM1639.66 286.915 1639.67 286.916C1641.54 287.242 1642.79 289.022 1642.46 290.893 1642.14 292.763 1640.36 294.015 1638.49 293.689L1638.48 293.687C1636.61 293.361 1635.36 291.581 1635.68 289.711 1636.01 287.84 1637.79 286.589 1639.66 286.915ZM1653.21 289.314 1653.21 289.315C1655.08 289.641 1656.34 291.421 1656.01 293.292 1655.68 295.162 1653.9 296.414 1652.03 296.088L1652.03 296.087C1650.16 295.761 1648.9 293.98 1649.23 292.11 1649.56 290.24 1651.34 288.988 1653.21 289.314ZM1666.75 291.713 1666.76 291.714C1668.63 292.04 1669.88 293.821 1669.56 295.691 1669.23 297.561 1667.45 298.813 1665.58 298.487L1665.57 298.486C1663.7 298.16 1662.45 296.379 1662.78 294.509 1663.1 292.639 1664.88 291.387 1666.75 291.713ZM1680.3 294.112 1680.31 294.113C1682.18 294.439 1683.43 296.22 1683.1 298.09 1682.78 299.96 1681 301.212 1679.13 300.886L1679.12 300.885C1677.25 300.559 1676 298.778 1676.32 296.908 1676.65 295.038 1678.43 293.786 1680.3 294.112ZM1693.85 296.511 1693.85 296.513C1695.72 296.839 1696.97 298.619 1696.65 300.489 1696.32 302.36 1694.54 303.611 1692.67 303.285L1692.66 303.284C1690.79 302.958 1689.54 301.178 1689.87 299.307 1690.19 297.437 1691.97 296.185 1693.85 296.511ZM1707.39 298.91 1707.4 298.912C1709.27 299.238 1710.52 301.018 1710.19 302.888 1709.87 304.759 1708.09 306.011 1706.22 305.685L1706.21 305.683C1704.34 305.357 1703.09 303.577 1703.41 301.707 1703.74 299.836 1705.52 298.584 1707.39 298.91ZM1720.94 301.31 1720.94 301.311C1722.81 301.637 1724.07 303.417 1723.74 305.288 1723.41 307.158 1721.63 308.41 1719.76 308.084L1719.76 308.082C1717.89 307.756 1716.63 305.976 1716.96 304.106 1717.29 302.235 1719.07 300.984 1720.94 301.31ZM1734.48 303.709 1734.49 303.71C1736.36 304.036 1737.61 305.817 1737.29 307.687 1736.96 309.557 1735.18 310.809 1733.31 310.483L1733.3 310.482C1731.43 310.156 1730.18 308.375 1730.51 306.505 1730.83 304.635 1732.61 303.383 1734.48 303.709ZM1748.03 306.108 1748.04 306.109C1749.91 306.435 1751.16 308.216 1750.83 310.086 1750.51 311.956 1748.73 313.208 1746.86 312.882L1746.85 312.881C1744.98 312.555 1743.73 310.774 1744.05 308.904 1744.38 307.034 1746.16 305.782 1748.03 306.108ZM1761.58 308.507 1761.58 308.508C1763.45 308.834 1764.7 310.615 1764.38 312.485 1764.05 314.355 1762.27 315.607 1760.4 315.281L1760.4 315.28C1758.52 314.954 1757.27 313.173 1757.6 311.303 1757.93 309.433 1759.71 308.181 1761.58 308.507ZM1775.12 310.906 1775.13 310.908C1777 311.234 1778.25 313.014 1777.92 314.884 1777.6 316.755 1775.82 318.006 1773.95 317.68L1773.94 317.679C1772.07 317.353 1770.82 315.573 1771.15 313.702 1771.47 311.832 1773.25 310.58 1775.12 310.906ZM1788.67 313.306 1788.67 313.307C1790.55 313.633 1791.8 315.413 1791.47 317.284 1791.14 319.154 1789.36 320.406 1787.49 320.08L1787.49 320.078C1785.62 319.752 1784.37 317.972 1784.69 316.102 1785.02 314.231 1786.8 312.979 1788.67 313.306ZM1802.21 315.705 1802.22 315.706C1804.09 316.032 1805.34 317.812 1805.02 319.683 1804.69 321.553 1802.91 322.805 1801.04 322.479L1801.03 322.478C1799.16 322.152 1797.91 320.371 1798.24 318.501 1798.56 316.631 1800.34 315.379 1802.21 315.705ZM1815.76 318.104 1815.77 318.105C1817.64 318.431 1818.89 320.212 1818.56 322.082 1818.24 323.952 1816.46 325.204 1814.59 324.878L1814.58 324.877C1812.71 324.551 1811.46 322.77 1811.78 320.9 1812.11 319.03 1813.89 317.778 1815.76 318.104ZM1829.31 320.503 1829.31 320.504C1831.18 320.83 1832.44 322.611 1832.11 324.481 1831.78 326.351 1830 327.603 1828.13 327.277L1828.13 327.276C1826.26 326.95 1825 325.169 1825.33 323.299 1825.66 321.429 1827.44 320.177 1829.31 320.503ZM1842.85 322.902 1842.86 322.904C1844.73 323.23 1845.98 325.01 1845.66 326.88 1845.33 328.751 1843.55 330.002 1841.68 329.676L1841.67 329.675C1839.8 329.349 1838.55 327.569 1838.88 325.698 1839.2 323.828 1840.98 322.576 1842.85 322.902ZM1856.4 325.301 1856.41 325.303C1858.28 325.629 1859.53 327.409 1859.2 329.279 1858.88 331.15 1857.09 332.402 1855.22 332.076L1855.22 332.074C1853.35 331.748 1852.1 329.968 1852.42 328.097 1852.75 326.227 1854.53 324.975 1856.4 325.301ZM1869.94 327.701 1869.95 327.702C1871.82 328.028 1873.07 329.808 1872.75 331.679 1872.42 333.549 1870.64 334.801 1868.77 334.475L1868.76 334.473C1866.89 334.147 1865.64 332.367 1865.97 330.497 1866.29 328.626 1868.07 327.375 1869.94 327.701ZM1883.49 330.1 1883.5 330.101C1885.37 330.427 1886.62 332.208 1886.29 334.078 1885.97 335.948 1884.19 337.2 1882.32 336.874L1882.31 336.873C1880.44 336.547 1879.19 334.766 1879.51 332.896 1879.84 331.026 1881.62 329.774 1883.49 330.1ZM1897.04 332.499 1897.04 332.5C1898.91 332.826 1900.17 334.607 1899.84 336.477 1899.51 338.347 1897.73 339.599 1895.86 339.273L1895.86 339.272C1893.99 338.946 1892.73 337.165 1893.06 335.295 1893.39 333.425 1895.17 332.173 1897.04 332.499ZM1910.58 334.898 1910.59 334.899C1912.46 335.225 1913.71 337.006 1913.39 338.876 1913.06 340.746 1911.28 341.998 1909.41 341.672L1909.4 341.671C1907.53 341.345 1906.28 339.565 1906.61 337.694 1906.93 335.824 1908.71 334.572 1910.58 334.898ZM1924.13 337.297 1924.14 337.299C1926.01 337.625 1927.26 339.405 1926.93 341.275 1926.61 343.146 1924.83 344.397 1922.95 344.071L1922.95 344.07C1921.08 343.744 1919.83 341.964 1920.15 340.093 1920.48 338.223 1922.26 336.971 1924.13 337.297ZM1937.68 339.697 1937.68 339.698C1939.55 340.024 1940.8 341.804 1940.48 343.675 1940.15 345.545 1938.37 346.797 1936.5 346.471L1936.49 346.469C1934.62 346.143 1933.37 344.363 1933.7 342.493 1934.02 340.622 1935.8 339.371 1937.68 339.697ZM1951.22 342.096 1951.23 342.097C1953.1 342.423 1954.35 344.203 1954.02 346.074 1953.7 347.944 1951.92 349.196 1950.05 348.87L1950.04 348.869C1948.17 348.543 1946.92 346.762 1947.24 344.892 1947.57 343.022 1949.35 341.77 1951.22 342.096ZM1964.77 344.495 1964.77 344.496C1966.64 344.822 1967.9 346.603 1967.57 348.473 1967.24 350.343 1965.46 351.595 1963.59 351.269L1963.59 351.268C1961.72 350.942 1960.46 349.161 1960.79 347.291 1961.12 345.421 1962.9 344.169 1964.77 344.495ZM1978.31 346.894 1978.32 346.895C1980.19 347.221 1981.44 349.002 1981.12 350.872 1980.79 352.742 1979.01 353.994 1977.14 353.668L1977.13 353.667C1975.26 353.341 1974.01 351.56 1974.34 349.69 1974.66 347.82 1976.44 346.568 1978.31 346.894ZM1991.86 349.293 1991.87 349.294C1993.74 349.621 1994.99 351.401 1994.66 353.271 1994.34 355.142 1992.56 356.393 1990.68 356.067L1990.68 356.066C1988.81 355.74 1987.56 353.96 1987.88 352.089 1988.21 350.219 1989.99 348.967 1991.86 349.293ZM2005.4 351.693 2005.41 351.694C2007.28 352.02 2008.53 353.8 2008.21 355.671 2007.88 357.541 2006.1 358.793 2004.23 358.467L2004.22 358.465C2002.35 358.139 2001.1 356.359 2001.43 354.488 2001.75 352.618 2003.53 351.366 2005.4 351.693ZM2018.95 354.092 2018.96 354.093C2020.83 354.419 2022.08 356.199 2021.75 358.07 2021.43 359.94 2019.65 361.192 2017.78 360.866L2017.77 360.865C2015.9 360.538 2014.65 358.758 2014.97 356.888 2015.3 355.017 2017.08 353.766 2018.95 354.092ZM2032.5 356.491 2032.5 356.492C2034.37 356.818 2035.63 358.599 2035.3 360.469 2034.97 362.339 2033.19 363.591 2031.32 363.265L2031.32 363.264C2029.45 362.938 2028.19 361.157 2028.52 359.287 2028.85 357.417 2030.63 356.165 2032.5 356.491ZM2046.04 358.89 2046.05 358.891C2047.92 359.217 2049.17 360.998 2048.85 362.868 2048.52 364.738 2046.74 365.99 2044.87 365.664L2044.86 365.663C2042.99 365.337 2041.74 363.556 2042.07 361.686 2042.39 359.816 2044.17 358.564 2046.04 358.89ZM2059.59 361.289 2059.6 361.29C2061.47 361.616 2062.72 363.397 2062.39 365.267 2062.07 367.137 2060.28 368.389 2058.41 368.063L2058.41 368.062C2056.54 367.736 2055.29 365.956 2055.61 364.085 2055.94 362.215 2057.72 360.963 2059.59 361.289ZM2073.13 363.688 2073.14 363.69C2075.01 364.016 2076.26 365.796 2075.94 367.666 2075.61 369.537 2073.83 370.788 2071.96 370.462L2071.95 370.461C2070.08 370.135 2068.83 368.355 2069.16 366.484 2069.48 364.614 2071.26 363.362 2073.13 363.688ZM2086.68 366.088 2086.69 366.089C2088.56 366.415 2089.81 368.195 2089.48 370.066 2089.16 371.936 2087.38 373.188 2085.51 372.862L2085.5 372.86C2083.63 372.534 2082.38 370.754 2082.7 368.884 2083.03 367.013 2084.81 365.762 2086.68 366.088ZM2100.23 368.487 2100.23 368.488C2102.1 368.814 2103.36 370.595 2103.03 372.465 2102.7 374.335 2100.92 375.587 2099.05 375.261L2099.05 375.26C2097.18 374.934 2095.92 373.153 2096.25 371.283 2096.58 369.413 2098.36 368.161 2100.23 368.487Z" fill="#002060" fill-rule="nonzero" fill-opacity="1" transform="matrix(1 0 0 -1 1637.5 2221.5)"/></g><g clip-path="url(#clip4)"><text fill="#595959" fill-opacity="1" font-family="Calibri,Calibri_MSFontService,sans-serif" font-style="normal" font-variant="normal" font-weight="400" font-stretch="normal" font-size="41" text-anchor="start" direction="ltr" writing-mode="lr-tb" unicode-bidi="normal" text-decoration="none" transform="matrix(1 0 0 1 3510.42 1530)">rho = 15.362</text></g><g clip-path="url(#clip5)"><text fill="#595959" fill-opacity="1" font-family="Calibri,Calibri_MSFontService,sans-serif" font-style="normal" font-variant="normal" font-weight="400" font-stretch="normal" font-size="41" text-anchor="start" direction="ltr" writing-mode="lr-tb" unicode-bidi="normal" text-decoration="none" transform="matrix(1 0 0 1 1578.55 2317)">0</text></g><g clip-path="url(#clip6)"><text fill="#595959" fill-opacity="1" font-family="Calibri,Calibri_MSFontService,sans-serif" font-style="normal" font-variant="normal" font-weight="400" font-stretch="normal" font-size="41" text-anchor="start" direction="ltr" writing-mode="lr-tb" unicode-bidi="normal" text-decoration="none" transform="matrix(1 0 0 1 1557.65 2216)">50</text></g><g clip-path="url(#clip7)"><text fill="#595959" fill-opacity="1" font-family="Calibri,Calibri_MSFontService,sans-serif" font-style="normal" font-variant="normal" font-weight="400" font-stretch="normal" font-size="41" text-anchor="start" direction="ltr" writing-mode="lr-tb" unicode-bidi="normal" text-decoration="none" transform="matrix(1 0 0 1 1536.75 2115)">100</text></g><g clip-path="url(#clip8)"><text fill="#595959" fill-opacity="1" font-family="Calibri,Calibri_MSFontService,sans-serif" font-style="normal" font-variant="normal" font-weight="400" font-stretch="normal" font-size="41" text-anchor="start" direction="ltr" writing-mode="lr-tb" unicode-bidi="normal" text-decoration="none" transform="matrix(1 0 0 1 1536.75 2014)">150</text></g><g clip-path="url(#clip9)"><text fill="#595959" fill-opacity="1" font-family="Calibri,Calibri_MSFontService,sans-serif" font-style="normal" font-variant="normal" font-weight="400" font-stretch="normal" font-size="41" text-anchor="start" direction="ltr" writing-mode="lr-tb" unicode-bidi="normal" text-decoration="none" transform="matrix(1 0 0 1 1536.75 1912)">200</text></g><g clip-path="url(#clip10)"><text fill="#595959" fill-opacity="1" font-family="Calibri,Calibri_MSFontService,sans-serif" font-style="normal" font-variant="normal" font-weight="400" font-stretch="normal" font-size="41" text-anchor="start" direction="ltr" writing-mode="lr-tb" unicode-bidi="normal" text-decoration="none" transform="matrix(1 0 0 1 1536.75 1811)">250</text></g><g clip-path="url(#clip11)"><text fill="#595959" fill-opacity="1" font-family="Calibri,Calibri_MSFontService,sans-serif" font-style="normal" font-variant="normal" font-weight="400" font-stretch="normal" font-size="41" text-anchor="start" direction="ltr" writing-mode="lr-tb" unicode-bidi="normal" text-decoration="none" transform="matrix(1 0 0 1 1536.75 1710)">300</text></g><g clip-path="url(#clip12)"><text fill="#595959" fill-opacity="1" font-family="Calibri,Calibri_MSFontService,sans-serif" font-style="normal" font-variant="normal" font-weight="400" font-stretch="normal" font-size="41" text-anchor="start" direction="ltr" writing-mode="lr-tb" unicode-bidi="normal" text-decoration="none" transform="matrix(1 0 0 1 1536.75 1609)">350</text></g><g clip-path="url(#clip13)"><text fill="#595959" fill-opacity="1" font-family="Calibri,Calibri_MSFontService,sans-serif" font-style="normal" font-variant="normal" font-weight="400" font-stretch="normal" font-size="41" text-anchor="start" direction="ltr" writing-mode="lr-tb" unicode-bidi="normal" text-decoration="none" transform="matrix(1 0 0 1 1595.9 2372)">2002</text></g><g clip-path="url(#clip14)"><text fill="#595959" fill-opacity="1" font-family="Calibri,Calibri_MSFontService,sans-serif" font-style="normal" font-variant="normal" font-weight="400" font-stretch="normal" font-size="41" text-anchor="start" direction="ltr" writing-mode="lr-tb" unicode-bidi="normal" text-decoration="none" transform="matrix(1 0 0 1 1771.37 2372)">2003</text></g><g clip-path="url(#clip15)"><text fill="#595959" fill-opacity="1" font-family="Calibri,Calibri_MSFontService,sans-serif" font-style="normal" font-variant="normal" font-weight="400" font-stretch="normal" font-size="41" text-anchor="start" direction="ltr" writing-mode="lr-tb" unicode-bidi="normal" text-decoration="none" transform="matrix(1 0 0 1 1946.84 2372)">2004</text></g><g clip-path="url(#clip16)"><text fill="#595959" fill-opacity="1" font-family="Calibri,Calibri_MSFontService,sans-serif" font-style="normal" font-variant="normal" font-weight="400" font-stretch="normal" font-size="41" text-anchor="start" direction="ltr" writing-mode="lr-tb" unicode-bidi="normal" text-decoration="none" transform="matrix(1 0 0 1 2122.32 2372)">2005</text></g><g clip-path="url(#clip17)"><text fill="#595959" fill-opacity="1" font-family="Calibri,Calibri_MSFontService,sans-serif" font-style="normal" font-variant="normal" font-weight="400" font-stretch="normal" font-size="41" text-anchor="start" direction="ltr" writing-mode="lr-tb" unicode-bidi="normal" text-decoration="none" transform="matrix(1 0 0 1 2297.79 2372)">2006</text></g><g clip-path="url(#clip18)"><text fill="#595959" fill-opacity="1" font-family="Calibri,Calibri_MSFontService,sans-serif" font-style="normal" font-variant="normal" font-weight="400" font-stretch="normal" font-size="41" text-anchor="start" direction="ltr" writing-mode="lr-tb" unicode-bidi="normal" text-decoration="none" transform="matrix(1 0 0 1 2473.27 2372)">2007</text></g><g clip-path="url(#clip19)"><text fill="#595959" fill-opacity="1" font-family="Calibri,Calibri_MSFontService,sans-serif" font-style="normal" font-variant="normal" font-weight="400" font-stretch="normal" font-size="41" text-anchor="start" direction="ltr" writing-mode="lr-tb" unicode-bidi="normal" text-decoration="none" transform="matrix(1 0 0 1 2648.74 2372)">2008</text></g><g clip-path="url(#clip20)"><text fill="#595959" fill-opacity="1" font-family="Calibri,Calibri_MSFontService,sans-serif" font-style="normal" font-variant="normal" font-weight="400" font-stretch="normal" font-size="41" text-anchor="start" direction="ltr" writing-mode="lr-tb" unicode-bidi="normal" text-decoration="none" transform="matrix(1 0 0 1 2824.21 2372)">2009</text></g><g clip-path="url(#clip21)"><text fill="#595959" fill-opacity="1" font-family="Calibri,Calibri_MSFontService,sans-serif" font-style="normal" font-variant="normal" font-weight="400" font-stretch="normal" font-size="41" text-anchor="start" direction="ltr" writing-mode="lr-tb" unicode-bidi="normal" text-decoration="none" transform="matrix(1 0 0 1 2999.69 2372)">2010</text></g><g clip-path="url(#clip22)"><text fill="#595959" fill-opacity="1" font-family="Calibri,Calibri_MSFontService,sans-serif" font-style="normal" font-variant="normal" font-weight="400" font-stretch="normal" font-size="41" text-anchor="start" direction="ltr" writing-mode="lr-tb" unicode-bidi="normal" text-decoration="none" transform="matrix(1 0 0 1 3175.16 2372)">2011</text></g><g clip-path="url(#clip23)"><text fill="#595959" fill-opacity="1" font-family="Calibri,Calibri_MSFontService,sans-serif" font-style="normal" font-variant="normal" font-weight="400" font-stretch="normal" font-size="41" text-anchor="start" direction="ltr" writing-mode="lr-tb" unicode-bidi="normal" text-decoration="none" transform="matrix(1 0 0 1 3350.63 2372)">2012</text></g><g clip-path="url(#clip24)"><text fill="#595959" fill-opacity="1" font-family="Calibri,Calibri_MSFontService,sans-serif" font-style="normal" font-variant="normal" font-weight="400" font-stretch="normal" font-size="41" text-anchor="start" direction="ltr" writing-mode="lr-tb" unicode-bidi="normal" text-decoration="none" transform="matrix(1 0 0 1 3526.11 2372)">2013</text></g><g clip-path="url(#clip25)"><text fill="#595959" fill-opacity="1" font-family="Calibri,Calibri_MSFontService,sans-serif" font-style="normal" font-variant="normal" font-weight="400" font-stretch="normal" font-size="41" text-anchor="start" direction="ltr" writing-mode="lr-tb" unicode-bidi="normal" text-decoration="none" transform="matrix(1 0 0 1 3701.58 2372)">2014</text></g><g clip-path="url(#clip26)"><text fill="#595959" fill-opacity="1" font-family="Calibri,Calibri_MSFontService,sans-serif" font-style="normal" font-variant="normal" font-weight="400" font-stretch="normal" font-size="64" text-anchor="start" direction="ltr" writing-mode="lr-tb" unicode-bidi="normal" text-decoration="none" transform="matrix(1 0 0 1 2333.78 1524)">Average Call per day </text></g><g clip-path="url(#clip27)"><text fill="#595959" fill-opacity="1" font-family="Calibri,Calibri_MSFontService,sans-serif" font-style="normal" font-variant="normal" font-weight="400" font-stretch="normal" font-size="64" text-anchor="start" direction="ltr" writing-mode="lr-tb" unicode-bidi="normal" text-decoration="none" transform="matrix(1 0 0 1 2876.13 1524)">-</text></g><g clip-path="url(#clip28)"><text fill="#595959" fill-opacity="1" font-family="Calibri,Calibri_MSFontService,sans-serif" font-style="normal" font-variant="normal" font-weight="400" font-stretch="normal" font-size="64" text-anchor="start" direction="ltr" writing-mode="lr-tb" unicode-bidi="normal" text-decoration="none" transform="matrix(1 0 0 1 2910.28 1524)">NW</text></g><rect x="1507.5" y="1428.5" width="2329" height="985" stroke="#D9D9D9" stroke-width="3.4375" stroke-linecap="butt" stroke-linejoin="round" stroke-miterlimit="10" stroke-opacity="1" fill="none"/></g></svg>