<svg width="2608" height="990" xmlns="http://www.w3.org/2000/svg" xmlns:xlink="http://www.w3.org/1999/xlink" overflow="hidden"><defs><clipPath id="clip0"><rect x="1617" y="1636" width="2608" height="990"/></clipPath><clipPath id="clip1"><rect x="1620" y="1640" width="2601" height="984"/></clipPath><clipPath id="clip2"><rect x="1620" y="1640" width="2601" height="984"/></clipPath><clipPath id="clip3"><rect x="1751" y="1810" width="2378" height="707"/></clipPath><clipPath id="clip4"><rect x="1620" y="1640" width="2601" height="984"/></clipPath><clipPath id="clip5"><rect x="1620" y="1640" width="2601" height="984"/></clipPath><clipPath id="clip6"><rect x="1620" y="1640" width="2601" height="984"/></clipPath><clipPath id="clip7"><rect x="1620" y="1640" width="2601" height="984"/></clipPath><clipPath id="clip8"><rect x="1620" y="1640" width="2601" height="984"/></clipPath><clipPath id="clip9"><rect x="1620" y="1640" width="2601" height="984"/></clipPath><clipPath id="clip10"><rect x="1620" y="1640" width="2601" height="984"/></clipPath><clipPath id="clip11"><rect x="1620" y="1640" width="2601" height="984"/></clipPath><clipPath id="clip12"><rect x="1620" y="1640" width="2601" height="984"/></clipPath><clipPath id="clip13"><rect x="1620" y="1640" width="2601" height="984"/></clipPath><clipPath id="clip14"><rect x="1620" y="1640" width="2601" height="984"/></clipPath><clipPath id="clip15"><rect x="1620" y="1640" width="2601" height="984"/></clipPath><clipPath id="clip16"><rect x="1620" y="1640" width="2601" height="984"/></clipPath><clipPath id="clip17"><rect x="1620" y="1640" width="2601" height="984"/></clipPath><clipPath id="clip18"><rect x="1620" y="1640" width="2601" height="984"/></clipPath><clipPath id="clip19"><rect x="1620" y="1640" width="2601" height="984"/></clipPath><clipPath id="clip20"><rect x="1620" y="1640" width="2601" height="984"/></clipPath><clipPath id="clip21"><rect x="1620" y="1640" width="2601" height="984"/></clipPath><clipPath id="clip22"><rect x="1620" y="1640" width="2601" height="984"/></clipPath><clipPath id="clip23"><rect x="1620" y="1640" width="2601" height="984"/></clipPath><clipPath id="clip24"><rect x="1620" y="1640" width="2601" height="984"/></clipPath><clipPath id="clip25"><rect x="1620" y="1640" width="2601" height="984"/></clipPath><clipPath id="clip26"><rect x="1620" y="1640" width="2601" height="984"/></clipPath><clipPath id="clip27"><rect x="1620" y="1640" width="2601" height="984"/></clipPath><clipPath id="clip28"><rect x="1620" y="1640" width="2601" height="984"/></clipPath><clipPath id="clip29"><rect x="1620" y="1640" width="2601" height="984"/></clipPath><clipPath id="clip30"><rect x="1620" y="1640" width="2601" height="984"/></clipPath><clipPath id="clip31"><rect x="1620" y="1640" width="2601" height="984"/></clipPath></defs><g clip-path="url(#clip0)" transform="translate(-1617 -1636)"><rect x="1621" y="1641" width="2600" height="983" fill="#FFFFFF" fill-opacity="1"/><g clip-path="url(#clip1)"><path d="M1751.5 2517.5 4129.5 2517.5" stroke="#D9D9D9" stroke-width="3.4375" stroke-linecap="butt" stroke-linejoin="round" stroke-miterlimit="10" stroke-opacity="1" fill="none" fill-rule="evenodd"/></g><g clip-path="url(#clip2)"><path d="M1762.49 2288.33C1762.49 2294.41 1757.57 2299.33 1751.49 2299.33 1745.42 2299.33 1740.49 2294.41 1740.49 2288.33 1740.49 2282.26 1745.42 2277.33 1751.49 2277.33 1757.57 2277.33 1762.49 2282.26 1762.49 2288.33Z" stroke="#002060" stroke-width="3.4375" stroke-linecap="butt" stroke-linejoin="round" stroke-miterlimit="10" stroke-opacity="1" fill="#002060" fill-rule="nonzero" fill-opacity="1"/><path d="M1911.49 2279.33C1911.49 2285.41 1906.57 2290.33 1900.49 2290.33 1894.42 2290.33 1889.49 2285.41 1889.49 2279.33 1889.49 2273.26 1894.42 2268.33 1900.49 2268.33 1906.57 2268.33 1911.49 2273.26 1911.49 2279.33Z" stroke="#002060" stroke-width="3.4375" stroke-linecap="butt" stroke-linejoin="round" stroke-miterlimit="10" stroke-opacity="1" fill="#002060" fill-rule="nonzero" fill-opacity="1"/><path d="M2059.49 2295.33C2059.49 2301.41 2054.57 2306.33 2048.49 2306.33 2042.42 2306.33 2037.49 2301.41 2037.49 2295.33 2037.49 2289.26 2042.42 2284.33 2048.49 2284.33 2054.57 2284.33 2059.49 2289.26 2059.49 2295.33Z" stroke="#002060" stroke-width="3.4375" stroke-linecap="butt" stroke-linejoin="round" stroke-miterlimit="10" stroke-opacity="1" fill="#002060" fill-rule="nonzero" fill-opacity="1"/><path d="M2208.49 2280.33C2208.49 2286.41 2203.57 2291.33 2197.49 2291.33 2191.42 2291.33 2186.49 2286.41 2186.49 2280.33 2186.49 2274.26 2191.42 2269.33 2197.49 2269.33 2203.57 2269.33 2208.49 2274.26 2208.49 2280.33Z" stroke="#002060" stroke-width="3.4375" stroke-linecap="butt" stroke-linejoin="round" stroke-miterlimit="10" stroke-opacity="1" fill="#002060" fill-rule="nonzero" fill-opacity="1"/><path d="M2357.49 2345.33C2357.49 2351.41 2352.57 2356.33 2346.49 2356.33 2340.42 2356.33 2335.49 2351.41 2335.49 2345.33 2335.49 2339.26 2340.42 2334.33 2346.49 2334.33 2352.57 2334.33 2357.49 2339.26 2357.49 2345.33Z" stroke="#002060" stroke-width="3.4375" stroke-linecap="butt" stroke-linejoin="round" stroke-miterlimit="10" stroke-opacity="1" fill="#002060" fill-rule="nonzero" fill-opacity="1"/><path d="M2505.49 2178.33C2505.49 2184.41 2500.57 2189.33 2494.49 2189.33 2488.42 2189.33 2483.49 2184.41 2483.49 2178.33 2483.49 2172.26 2488.42 2167.33 2494.49 2167.33 2500.57 2167.33 2505.49 2172.26 2505.49 2178.33Z" stroke="#002060" stroke-width="3.4375" stroke-linecap="butt" stroke-linejoin="round" stroke-miterlimit="10" stroke-opacity="1" fill="#002060" fill-rule="nonzero" fill-opacity="1"/><path d="M2654.49 2478.33C2654.49 2484.41 2649.57 2489.33 2643.49 2489.33 2637.42 2489.33 2632.49 2484.41 2632.49 2478.33 2632.49 2472.26 2637.42 2467.33 2643.49 2467.33 2649.57 2467.33 2654.49 2472.26 2654.49 2478.33Z" stroke="#002060" stroke-width="3.4375" stroke-linecap="butt" stroke-linejoin="round" stroke-miterlimit="10" stroke-opacity="1" fill="#002060" fill-rule="nonzero" fill-opacity="1"/><path d="M2802.49 2185.33C2802.49 2191.41 2797.57 2196.33 2791.49 2196.33 2785.42 2196.33 2780.49 2191.41 2780.49 2185.33 2780.49 2179.26 2785.42 2174.33 2791.49 2174.33 2797.57 2174.33 2802.49 2179.26 2802.49 2185.33Z" stroke="#002060" stroke-width="3.4375" stroke-linecap="butt" stroke-linejoin="round" stroke-miterlimit="10" stroke-opacity="1" fill="#002060" fill-rule="nonzero" fill-opacity="1"/><path d="M2951.49 2287.33C2951.49 2293.41 2946.57 2298.33 2940.49 2298.33 2934.42 2298.33 2929.49 2293.41 2929.49 2287.33 2929.49 2281.26 2934.42 2276.33 2940.49 2276.33 2946.57 2276.33 2951.49 2281.26 2951.49 2287.33Z" stroke="#002060" stroke-width="3.4375" stroke-linecap="butt" stroke-linejoin="round" stroke-miterlimit="10" stroke-opacity="1" fill="#002060" fill-rule="nonzero" fill-opacity="1"/><path d="M3099.49 2219.33C3099.49 2225.41 3094.57 2230.33 3088.49 2230.33 3082.42 2230.33 3077.49 2225.41 3077.49 2219.33 3077.49 2213.26 3082.42 2208.33 3088.49 2208.33 3094.57 2208.33 3099.49 2213.26 3099.49 2219.33Z" stroke="#002060" stroke-width="3.4375" stroke-linecap="butt" stroke-linejoin="round" stroke-miterlimit="10" stroke-opacity="1" fill="#002060" fill-rule="nonzero" fill-opacity="1"/><path d="M3248.49 2164.33C3248.49 2170.41 3243.57 2175.33 3237.49 2175.33 3231.42 2175.33 3226.49 2170.41 3226.49 2164.33 3226.49 2158.26 3231.42 2153.33 3237.49 2153.33 3243.57 2153.33 3248.49 2158.26 3248.49 2164.33Z" stroke="#002060" stroke-width="3.4375" stroke-linecap="butt" stroke-linejoin="round" stroke-miterlimit="10" stroke-opacity="1" fill="#002060" fill-rule="nonzero" fill-opacity="1"/><path d="M3397.49 2078.33C3397.49 2084.41 3392.57 2089.33 3386.49 2089.33 3380.42 2089.33 3375.49 2084.41 3375.49 2078.33 3375.49 2072.26 3380.42 2067.33 3386.49 2067.33 3392.57 2067.33 3397.49 2072.26 3397.49 2078.33Z" stroke="#002060" stroke-width="3.4375" stroke-linecap="butt" stroke-linejoin="round" stroke-miterlimit="10" stroke-opacity="1" fill="#002060" fill-rule="nonzero" fill-opacity="1"/><path d="M3545.49 2192.33C3545.49 2198.41 3540.57 2203.33 3534.49 2203.33 3528.42 2203.33 3523.49 2198.41 3523.49 2192.33 3523.49 2186.26 3528.42 2181.33 3534.49 2181.33 3540.57 2181.33 3545.49 2186.26 3545.49 2192.33Z" stroke="#002060" stroke-width="3.4375" stroke-linecap="butt" stroke-linejoin="round" stroke-miterlimit="10" stroke-opacity="1" fill="#002060" fill-rule="nonzero" fill-opacity="1"/><path d="M3694.49 1973.33C3694.49 1979.41 3689.57 1984.33 3683.49 1984.33 3677.42 1984.33 3672.49 1979.41 3672.49 1973.33 3672.49 1967.26 3677.42 1962.33 3683.49 1962.33 3689.57 1962.33 3694.49 1967.26 3694.49 1973.33Z" stroke="#002060" stroke-width="3.4375" stroke-linecap="butt" stroke-linejoin="round" stroke-miterlimit="10" stroke-opacity="1" fill="#002060" fill-rule="nonzero" fill-opacity="1"/><path d="M3842.49 2151.33C3842.49 2157.41 3837.57 2162.33 3831.49 2162.33 3825.42 2162.33 3820.49 2157.41 3820.49 2151.33 3820.49 2145.26 3825.42 2140.33 3831.49 2140.33 3837.57 2140.33 3842.49 2145.26 3842.49 2151.33Z" stroke="#002060" stroke-width="3.4375" stroke-linecap="butt" stroke-linejoin="round" stroke-miterlimit="10" stroke-opacity="1" fill="#002060" fill-rule="nonzero" fill-opacity="1"/><path d="M3991.49 1930.33C3991.49 1936.41 3986.57 1941.33 3980.49 1941.33 3974.42 1941.33 3969.49 1936.41 3969.49 1930.33 3969.49 1924.26 3974.42 1919.33 3980.49 1919.33 3986.57 1919.33 3991.49 1924.26 3991.49 1930.33Z" stroke="#002060" stroke-width="3.4375" stroke-linecap="butt" stroke-linejoin="round" stroke-miterlimit="10" stroke-opacity="1" fill="#002060" fill-rule="nonzero" fill-opacity="1"/><path d="M4140.49 2157.33C4140.49 2163.41 4135.57 2168.33 4129.49 2168.33 4123.42 2168.33 4118.49 2163.41 4118.49 2157.33 4118.49 2151.26 4123.42 2146.33 4129.49 2146.33 4135.57 2146.33 4140.49 2151.26 4140.49 2157.33Z" stroke="#002060" stroke-width="3.4375" stroke-linecap="butt" stroke-linejoin="round" stroke-miterlimit="10" stroke-opacity="1" fill="#002060" fill-rule="nonzero" fill-opacity="1"/></g><g clip-path="url(#clip3)"><path d="M0.417538-3.41205 0.424362-3.41121C2.30878-3.18061 3.64947-1.46605 3.41887 0.418373 3.18827 2.3028 1.47371 3.64348-0.410714 3.41288L-0.417538 3.41205C-2.30196 3.18145-3.64265 1.46688-3.41205-0.417538-3.18145-2.30196-1.46688-3.64265 0.417538-3.41205ZM14.0725-1.74106 14.0794-1.74023C15.9638-1.50964 17.3045 0.20492 17.0739 2.08934 16.8433 3.97377 15.1287 5.31446 13.2443 5.08387L13.2375 5.08304C11.3531 4.85245 10.0124 3.13789 10.243 1.25347 10.4736-0.630954 12.1881-1.97165 14.0725-1.74106ZM27.7275-0.0700727 27.7344-0.0692378C29.6188 0.161351 30.9595 1.87591 30.7289 3.76033 30.4983 5.64475 28.7838 6.98545 26.8993 6.75486L26.8925 6.75403C25.0081 6.52344 23.6674 4.80888 23.898 2.92446 24.1286 1.04004 25.8431-0.300661 27.7275-0.0700727ZM41.3826 1.60092 41.3894 1.60175C43.2738 1.83234 44.6145 3.5469 44.3839 5.43132 44.1533 7.31574 42.4388 8.65644 40.5543 8.42585L40.5475 8.42502C38.6631 8.19443 37.3224 6.47987 37.553 4.59545 37.7836 2.71102 39.4981 1.37033 41.3826 1.60092ZM55.0377 3.27193 55.0446 3.27276C56.929 3.50344 58.2696 5.21807 58.0389 7.10248 57.8082 8.98689 56.0936 10.3275 54.2092 10.0968L54.2024 10.096C52.3179 9.8653 50.9773 8.15067 51.208 6.26626 51.4387 4.38185 53.1533 3.04124 55.0377 3.27193ZM68.6928 4.94291 68.6996 4.94375C70.584 5.17443 71.9246 6.88906 71.6939 8.77347 71.4632 10.6579 69.7486 11.9985 67.8642 11.7678L67.8574 11.767C65.973 11.5363 64.6324 9.82166 64.863 7.93725 65.0937 6.05284 66.8083 4.71223 68.6928 4.94291ZM82.3478 6.6139 82.3546 6.61474C84.239 6.84542 85.5796 8.56005 85.3489 10.4445 85.1182 12.3289 83.4036 13.6695 81.5192 13.4388L81.5124 13.438C79.628 13.2073 78.2874 11.4927 78.5181 9.60824 78.7487 7.72383 80.4634 6.38322 82.3478 6.6139ZM96.0028 8.28489 96.0096 8.28573C97.894 8.51641 99.2346 10.231 99.0039 12.1154 98.7733 13.9999 97.0586 15.3405 95.1742 15.1098L95.1674 15.1089C93.283 14.8783 91.9424 13.1636 92.1731 11.2792 92.4037 9.39482 94.1184 8.05421 96.0028 8.28489ZM109.657 9.95584 109.664 9.95667C111.549 10.1872 112.889 11.9017 112.659 13.7861 112.428 15.6705 110.714 17.0113 108.83 16.7808L108.823 16.78C106.938 16.5495 105.598 14.835 105.828 12.9506 106.059 11.0661 107.773 9.72534 109.657 9.95584ZM123.312 11.6268 123.319 11.6277C125.204 11.8582 126.544 13.5726 126.314 15.4571 126.084 17.3415 124.369 18.6823 122.485 18.4518L122.478 18.451C120.593 18.2205 119.253 16.506 119.483 14.6216 119.714 12.7371 121.428 11.3963 123.312 11.6268ZM136.967 13.2978 136.974 13.2986C138.859 13.5291 140.199 15.2436 139.969 17.1281 139.739 19.0125 138.024 20.3533 136.14 20.1228L136.133 20.122C134.248 19.8915 132.908 18.177 133.138 16.2925 133.369 14.4081 135.083 13.0673 136.967 13.2978ZM150.622 14.9688 150.629 14.9696C152.514 15.2001 153.855 16.9146 153.624 18.7991 153.394 20.6835 151.679 22.0243 149.795 21.7938L149.788 21.7929C147.903 21.5625 146.563 19.848 146.793 17.9635 147.024 16.0791 148.738 14.7383 150.622 14.9688ZM164.277 16.6398 164.284 16.6406C166.169 16.8711 167.51 18.5856 167.279 20.47 167.049 22.3545 165.334 23.6953 163.45 23.4648L163.443 23.4639C161.558 23.2334 160.218 21.519 160.448 19.6345 160.679 17.7501 162.393 16.4093 164.277 16.6398ZM177.933 18.3108 177.939 18.3116C179.824 18.5421 181.165 20.2566 180.934 22.141 180.704 24.0255 178.989 25.3662 177.105 25.1358L177.098 25.1349C175.213 24.9044 173.873 23.1899 174.103 21.3055 174.334 19.4211 176.048 18.0803 177.933 18.3108ZM191.587 19.9817 191.594 19.9825C193.478 20.2126 194.819 21.9269 194.589 23.8113 194.359 25.6958 192.645 27.0369 190.76 26.8068L190.754 26.806C188.869 26.5759 187.528 24.8617 187.758 22.9772 187.988 21.0927 189.702 19.7516 191.587 19.9817ZM205.242 21.6527 205.249 21.6535C207.133 21.8836 208.474 23.5978 208.244 25.4823 208.014 27.3668 206.3 28.7079 204.415 28.4778L204.409 28.477C202.524 28.2469 201.183 26.5326 201.413 24.6482 201.643 22.7637 203.357 21.4226 205.242 21.6527ZM218.897 23.3237 218.904 23.3245C220.788 23.5546 222.129 25.2688 221.899 27.1533 221.669 29.0378 219.955 30.3789 218.07 30.1488L218.064 30.148C216.179 29.9179 214.838 28.2036 215.068 26.3192 215.298 24.4347 217.012 23.0935 218.897 23.3237ZM232.552 24.9947 232.559 24.9955C234.443 25.2256 235.784 26.9398 235.554 28.8243 235.324 30.7088 233.61 32.0499 231.725 31.8198L231.719 31.819C229.834 31.5888 228.493 29.8746 228.723 27.9901 228.953 26.1057 230.667 24.7645 232.552 24.9947ZM246.207 26.6656 246.214 26.6665C248.098 26.8966 249.439 28.6108 249.209 30.4953 248.979 32.3798 247.265 33.7209 245.38 33.4908L245.374 33.4899C243.489 33.2598 242.148 31.5456 242.378 29.6611 242.608 27.7766 244.322 26.4355 246.207 26.6656ZM259.862 28.3366 259.869 28.3375C261.753 28.5676 263.094 30.2818 262.864 32.1663 262.634 34.0508 260.92 35.3919 259.035 35.1618L259.029 35.1609C257.144 34.9308 255.803 33.2166 256.033 31.3321 256.263 29.4476 257.977 28.1065 259.862 28.3366ZM273.517 30.0076 273.524 30.0084C275.408 30.2386 276.749 31.9528 276.519 33.8373 276.289 35.7217 274.575 37.0629 272.69 36.8328L272.684 36.8319C270.799 36.6018 269.458 34.8876 269.688 33.0031 269.918 31.1186 271.632 29.7775 273.517 30.0076ZM287.172 31.6786 287.179 31.6794C289.063 31.9096 290.404 33.6238 290.174 35.5083 289.944 37.3927 288.23 38.7339 286.345 38.5037L286.339 38.5029C284.454 38.2728 283.113 36.5586 283.343 34.6741 283.573 32.7896 285.287 31.4485 287.172 31.6786ZM300.827 33.3496 300.834 33.3504C302.718 33.5805 304.059 35.2948 303.829 37.1792 303.599 39.0637 301.885 40.4049 300 40.1747L299.994 40.1739C298.109 39.9438 296.768 38.2296 296.998 36.3451 297.228 34.4606 298.943 33.1195 300.827 33.3496ZM314.482 35.0206 314.489 35.0214C316.373 35.2515 317.714 36.9658 317.484 38.8502 317.254 40.7347 315.54 42.0758 313.655 41.8457L313.649 41.8449C311.764 41.6148 310.423 39.9005 310.653 38.0161 310.883 36.1316 312.598 34.7905 314.482 35.0206ZM328.137 36.6916 328.144 36.6924C330.028 36.9225 331.369 38.6367 331.139 40.5212 330.909 42.4057 329.195 43.7468 327.311 43.5167L327.304 43.5159C325.419 43.2858 324.078 41.5715 324.308 39.6871 324.538 37.8026 326.253 36.4614 328.137 36.6916ZM341.792 38.3626 341.799 38.3634C343.683 38.5935 345.024 40.3077 344.794 42.1922 344.564 44.0767 342.85 45.4178 340.966 45.1877L340.959 45.1869C339.074 44.9567 337.733 43.2425 337.963 41.358 338.193 39.4736 339.908 38.1324 341.792 38.3626ZM355.447 40.0335 355.454 40.0344C357.338 40.2645 358.679 41.9787 358.449 43.8632 358.219 45.7477 356.505 47.0888 354.621 46.8587L354.614 46.8578C352.729 46.6277 351.388 44.9135 351.618 43.029 351.848 41.1446 353.563 39.8034 355.447 40.0335ZM369.102 41.7045 369.109 41.7054C370.993 41.9355 372.335 43.6497 372.104 45.5342 371.874 47.4187 370.16 48.7598 368.276 48.5297L368.269 48.5288C366.384 48.2987 365.043 46.5845 365.273 44.7 365.503 42.8155 367.218 41.4744 369.102 41.7045ZM382.758 43.3757 382.765 43.3765C384.65 43.6074 385.99 45.3221 385.759 47.2065 385.528 49.0909 383.814 50.4314 381.929 50.2005L381.922 50.1997C380.038 49.9688 378.698 48.254 378.928 46.3696 379.159 44.4853 380.874 43.1448 382.758 43.3757ZM396.413 45.0467 396.42 45.0475C398.305 45.2784 399.645 46.9931 399.414 48.8775 399.183 50.7619 397.469 52.1024 395.584 51.8715L395.577 51.8707C393.693 51.6398 392.353 49.925 392.583 48.0406 392.814 46.1562 394.529 44.8158 396.413 45.0467ZM410.068 46.7177 410.075 46.7185C411.96 46.9494 413.3 48.6641 413.069 50.5485 412.838 52.4329 411.124 53.7733 409.239 53.5425L409.232 53.5416C407.348 53.3108 406.008 51.596 406.238 49.7116 406.469 47.8272 408.184 46.4868 410.068 46.7177ZM423.723 48.3886 423.73 48.3895C425.615 48.6204 426.955 50.3351 426.724 52.2195 426.493 54.1039 424.779 55.4443 422.894 55.2135L422.887 55.2126C421.003 54.9818 419.663 53.267 419.893 51.3826 420.124 49.4982 421.839 48.1578 423.723 48.3886ZM437.378 50.0596 437.385 50.0605C439.27 50.2913 440.61 52.0061 440.379 53.8905 440.148 55.7749 438.434 57.1153 436.549 56.8844L436.542 56.8836C434.658 56.6527 433.318 54.938 433.548 53.0536 433.779 51.1692 435.494 49.8288 437.378 50.0596ZM451.033 51.7306 451.04 51.7315C452.925 51.9623 454.265 53.6771 454.034 55.5615 453.803 57.4459 452.089 58.7863 450.204 58.5554L450.197 58.5546C448.313 58.3237 446.973 56.609 447.203 54.7246 447.434 52.8402 449.149 51.4998 451.033 51.7306ZM464.688 53.4016 464.695 53.4024C466.58 53.6333 467.92 55.3481 467.689 57.2325 467.458 59.1169 465.744 60.4573 463.859 60.2264L463.852 60.2256C461.968 59.9947 460.628 58.28 460.858 56.3956 461.089 54.5112 462.804 53.1707 464.688 53.4016ZM478.343 55.0726 478.35 55.0734C480.235 55.3043 481.575 57.0191 481.344 58.9035 481.113 60.7878 479.399 62.1283 477.514 61.8974L477.507 61.8966C475.623 61.6657 474.283 59.951 474.513 58.0666 474.744 56.1822 476.459 54.8417 478.343 55.0726ZM491.998 56.7436 492.005 56.7444C493.89 56.9753 495.23 58.6901 494.999 60.5744 494.768 62.4588 493.054 63.7993 491.169 63.5684L491.162 63.5676C489.278 63.3367 487.938 61.6219 488.168 59.7376 488.399 57.8532 490.114 56.5127 491.998 56.7436ZM505.653 58.4146 505.66 58.4154C507.545 58.6463 508.885 60.361 508.654 62.2454 508.423 64.1298 506.709 65.4703 504.824 65.2394L504.817 65.2386C502.933 65.0077 501.593 63.2929 501.823 61.4085 502.054 59.5242 503.769 58.1837 505.653 58.4146ZM519.308 60.0856 519.315 60.0864C521.2 60.3173 522.54 62.032 522.309 63.9164 522.078 65.8008 520.364 67.1413 518.479 66.9104L518.472 66.9095C516.588 66.6787 515.248 64.9639 515.478 63.0795 515.709 61.1951 517.424 59.8547 519.308 60.0856ZM532.963 61.7566 532.97 61.7574C534.855 61.9883 536.195 63.703 535.964 65.5874 535.733 67.4718 534.019 68.8122 532.134 68.5814L532.127 68.5805C530.243 68.3497 528.903 66.6349 529.133 64.7505 529.364 62.8661 531.079 61.5257 532.963 61.7566ZM546.618 63.4275 546.625 63.4284C548.51 63.6592 549.85 65.374 549.619 67.2584 549.388 69.1428 547.674 70.4832 545.789 70.2524L545.782 70.2515C543.898 70.0207 542.558 68.3059 542.788 66.4215 543.019 64.5371 544.734 63.1967 546.618 63.4275ZM560.273 65.0985 560.28 65.0994C562.165 65.3302 563.505 67.045 563.274 68.9294 563.043 70.8138 561.329 72.1542 559.444 71.9233L559.437 71.9225C557.553 71.6916 556.213 69.9769 556.443 68.0925 556.674 66.2081 558.389 64.8677 560.273 65.0985ZM573.928 66.7695 573.935 66.7704C575.82 67.0012 577.16 68.716 576.929 70.6004 576.698 72.4848 574.984 73.8252 573.099 73.5943L573.092 73.5935C571.208 73.3626 569.868 71.6479 570.098 69.7635 570.329 67.8791 572.044 66.5387 573.928 66.7695ZM587.583 68.4405 587.59 68.4413C589.475 68.6722 590.815 70.387 590.584 72.2714 590.353 74.1557 588.639 75.4962 586.754 75.2653L586.747 75.2645C584.863 75.0336 583.523 73.3189 583.753 71.4345 583.984 69.5501 585.699 68.2096 587.583 68.4405ZM601.238 70.1115 601.245 70.1123C603.13 70.3432 604.47 72.058 604.239 73.9423 604.008 75.8267 602.294 77.1672 600.409 76.9363L600.402 76.9355C598.518 76.7046 597.177 74.9898 597.408 73.1055 597.639 71.2211 599.354 69.8806 601.238 70.1115ZM614.893 71.7825 614.9 71.7833C616.785 72.0142 618.125 73.7289 617.894 75.6133 617.663 77.4977 615.949 78.8382 614.064 78.6073L614.057 78.6065C612.173 78.3756 610.833 76.6608 611.063 74.7764 611.294 72.8921 613.009 71.5516 614.893 71.7825ZM628.548 73.4535 628.555 73.4543C630.44 73.6852 631.78 75.3999 631.549 77.2843 631.318 79.1687 629.604 80.5092 627.719 80.2783L627.712 80.2775C625.828 80.0466 624.487 78.3318 624.718 76.4474 624.949 74.563 626.664 73.2226 628.548 73.4535ZM642.203 75.1245 642.21 75.1253C644.095 75.3562 645.435 77.0709 645.204 78.9553 644.973 80.8397 643.259 82.1801 641.374 81.9493L641.367 81.9484C639.483 81.7176 638.143 80.0028 638.373 78.1184 638.604 76.234 640.319 74.8936 642.203 75.1245ZM655.858 76.7954 655.865 76.7963C657.75 77.0272 659.09 78.7419 658.859 80.6263 658.628 82.5107 656.914 83.8511 655.029 83.6203L655.022 83.6194C653.138 83.3886 651.797 81.6738 652.028 79.7894 652.259 77.905 653.974 76.5646 655.858 76.7954ZM669.513 78.4664 669.52 78.4673C671.405 78.6981 672.745 80.4129 672.514 82.2973 672.283 84.1817 670.568 85.5221 668.684 85.2913L668.677 85.2904C666.793 85.0595 665.453 83.3448 665.683 81.4604 665.914 79.576 667.629 78.2356 669.513 78.4664ZM683.168 80.1374 683.175 80.1383C685.06 80.3691 686.4 82.0839 686.169 83.9683 685.938 85.8527 684.224 87.1931 682.339 86.9622L682.332 86.9614C680.448 86.7305 679.107 85.0158 679.338 83.1314 679.569 81.247 681.284 79.9066 683.168 80.1374ZM696.823 81.8084 696.83 81.8092C698.715 82.0401 700.055 83.7549 699.824 85.6393 699.593 87.5237 697.878 88.8641 695.994 88.6332L695.987 88.6324C694.103 88.4015 692.763 86.6868 692.993 84.8024 693.224 82.918 694.939 81.5775 696.823 81.8084ZM710.478 83.4794 710.485 83.4802C712.37 83.7111 713.71 85.4259 713.479 87.3102 713.248 89.1946 711.534 90.5351 709.649 90.3042L709.642 90.3034C707.758 90.0725 706.417 88.3577 706.648 86.4734 706.879 84.589 708.594 83.2485 710.478 83.4794ZM724.133 85.1504 724.14 85.1512C726.025 85.3821 727.365 87.0968 727.134 88.9812 726.903 90.8656 725.188 92.2061 723.304 91.9752L723.297 91.9744C721.413 91.7435 720.072 90.0287 720.303 88.1443 720.534 86.26 722.249 84.9195 724.133 85.1504ZM737.788 86.8214 737.795 86.8222C739.68 87.0531 741.02 88.7678 740.789 90.6522 740.558 92.5366 738.844 93.8771 736.959 93.6462L736.952 93.6454C735.068 93.4145 733.727 91.6997 733.958 89.8153 734.189 87.931 735.904 86.5905 737.788 86.8214ZM751.443 88.4924 751.45 88.4932C753.335 88.7241 754.675 90.4388 754.444 92.3232 754.213 94.2076 752.498 95.548 750.614 95.3172L750.607 95.3163C748.723 95.0855 747.382 93.3707 747.613 91.4863 747.844 89.6019 749.559 88.2615 751.443 88.4924ZM765.096 90.163 765.102 90.1639C766.987 90.3932 768.329 92.1069 768.1 93.9915 767.87 95.8761 766.156 97.2179 764.272 96.9885L764.265 96.9877C762.38 96.7583 761.039 95.0446 761.268 93.16 761.497 91.2755 763.211 89.9336 765.096 90.163ZM778.751 91.834 778.758 91.8348C780.642 92.0642 781.984 93.7779 781.755 95.6625 781.525 97.5471 779.812 98.8888 777.927 98.6595L777.92 98.6586C776.036 98.4293 774.694 96.7156 774.923 94.831 775.152 92.9464 776.866 91.6046 778.751 91.834ZM792.406 93.505 792.413 93.5058C794.297 93.7352 795.639 95.4489 795.41 97.3335 795.18 99.218 793.467 100.56 791.582 100.33L791.575 100.33C789.691 100.1 788.349 98.3866 788.578 96.502 788.807 94.6174 790.521 93.2756 792.406 93.505ZM806.061 95.176 806.068 95.1768C807.952 95.4062 809.294 97.1199 809.065 99.0045 808.835 100.889 807.122 102.231 805.237 102.001L805.23 102.001C803.346 101.771 802.004 100.058 802.233 98.173 802.463 96.2884 804.176 94.9466 806.061 95.176ZM819.716 96.847 819.723 96.8478C821.607 97.0772 822.949 98.7909 822.72 100.675 822.49 102.56 820.777 103.902 818.892 103.672L818.885 103.672C817.001 103.442 815.659 101.729 815.888 99.844 816.118 97.9594 817.831 96.6176 819.716 96.847ZM833.371 98.518 833.378 98.5188C835.262 98.7482 836.604 100.462 836.375 102.346 836.145 104.231 834.432 105.573 832.547 105.343L832.54 105.343C830.656 105.113 829.314 103.4 829.543 101.515 829.773 99.6304 831.486 98.2886 833.371 98.518ZM847.026 100.189 847.033 100.19C848.917 100.419 850.259 102.133 850.03 104.017 849.8 105.902 848.087 107.244 846.202 107.014L846.195 107.014C844.311 106.784 842.969 105.071 843.198 103.186 843.428 101.301 845.141 99.9596 847.026 100.189ZM860.681 101.86 860.688 101.861C862.572 102.09 863.914 103.804 863.685 105.688 863.455 107.573 861.742 108.915 859.857 108.685L859.85 108.685C857.966 108.455 856.624 106.742 856.853 104.857 857.083 102.972 858.796 101.631 860.681 101.86ZM874.336 103.531 874.343 103.532C876.227 103.761 877.569 105.475 877.34 107.359 877.11 109.244 875.397 110.586 873.512 110.356L873.505 110.356C871.621 110.126 870.279 108.412 870.508 106.528 870.738 104.643 872.451 103.302 874.336 103.531ZM887.991 105.202 887.998 105.203C889.882 105.432 891.224 107.146 890.995 109.03 890.765 110.915 889.052 112.257 887.167 112.027L887.16 112.027C885.276 111.797 883.934 110.083 884.163 108.199 884.393 106.314 886.106 104.973 887.991 105.202ZM901.646 106.873 901.653 106.874C903.537 107.103 904.879 108.817 904.65 110.701 904.42 112.586 902.707 113.928 900.822 113.698L900.815 113.698C898.931 113.468 897.589 111.754 897.818 109.87 898.048 107.985 899.761 106.644 901.646 106.873ZM915.301 108.544 915.308 108.545C917.192 108.774 918.534 110.488 918.305 112.372 918.075 114.257 916.362 115.599 914.477 115.369L914.47 115.369C912.586 115.139 911.244 113.425 911.473 111.541 911.703 109.656 913.416 108.315 915.301 108.544ZM928.956 110.215 928.963 110.216C930.847 110.445 932.189 112.159 931.96 114.043 931.73 115.928 930.017 117.27 928.132 117.04L928.125 117.04C926.241 116.81 924.899 115.096 925.128 113.212 925.358 111.327 927.071 109.986 928.956 110.215ZM942.611 111.886 942.618 111.887C944.502 112.116 945.844 113.83 945.615 115.714 945.385 117.599 943.672 118.941 941.787 118.711L941.78 118.71C939.896 118.481 938.554 116.767 938.783 114.883 939.013 112.998 940.726 111.656 942.611 111.886ZM956.266 113.557 956.273 113.558C958.157 113.787 959.499 115.501 959.27 117.385 959.04 119.27 957.327 120.612 955.442 120.382L955.435 120.381C953.551 120.152 952.209 118.438 952.438 116.554 952.668 114.669 954.381 113.327 956.266 113.557ZM969.921 115.228 969.928 115.229C971.812 115.458 973.154 117.172 972.925 119.056 972.695 120.941 970.982 122.283 969.097 122.053L969.09 122.052C967.206 121.823 965.864 120.109 966.093 118.225 966.323 116.34 968.036 114.998 969.921 115.228ZM983.576 116.899 983.583 116.9C985.467 117.129 986.809 118.843 986.58 120.727 986.35 122.612 984.637 123.954 982.752 123.724L982.745 123.723C980.861 123.494 979.519 121.78 979.748 119.896 979.978 118.011 981.691 116.669 983.576 116.899ZM997.231 118.57 997.238 118.571C999.122 118.8 1000.46 120.514 1000.23 122.398 1000.01 124.283 998.292 125.625 996.407 125.395L996.4 125.394C994.516 125.165 993.174 123.451 993.403 121.567 993.633 119.682 995.346 118.34 997.231 118.57ZM1010.89 120.241 1010.89 120.242C1012.78 120.471 1014.12 122.185 1013.89 124.069 1013.66 125.954 1011.95 127.296 1010.06 127.066L1010.06 127.065C1008.17 126.836 1006.83 125.122 1007.06 123.238 1007.29 121.353 1009 120.011 1010.89 120.241ZM1024.54 121.912 1024.55 121.913C1026.43 122.142 1027.77 123.856 1027.54 125.74 1027.32 127.625 1025.6 128.967 1023.72 128.737L1023.71 128.736C1021.83 128.507 1020.48 126.793 1020.71 124.909 1020.94 123.024 1022.66 121.682 1024.54 121.912ZM1038.2 123.583 1038.2 123.584C1040.09 123.813 1041.43 125.527 1041.2 127.411 1040.97 129.296 1039.26 130.638 1037.37 130.408L1037.37 130.407C1035.48 130.178 1034.14 128.464 1034.37 126.58 1034.6 124.695 1036.31 123.353 1038.2 123.583ZM1051.85 125.254 1051.86 125.255C1053.74 125.484 1055.08 127.198 1054.85 129.082 1054.63 130.967 1052.91 132.309 1051.03 132.079L1051.02 132.078C1049.14 131.849 1047.79 130.135 1048.02 128.251 1048.25 126.366 1049.97 125.024 1051.85 125.254ZM1065.51 126.925 1065.51 126.926C1067.4 127.155 1068.74 128.869 1068.51 130.753 1068.28 132.638 1066.57 133.98 1064.68 133.75L1064.68 133.749C1062.79 133.52 1061.45 131.806 1061.68 129.922 1061.91 128.037 1063.62 126.695 1065.51 126.925ZM1079.16 128.596 1079.17 128.597C1081.05 128.826 1082.39 130.54 1082.16 132.424 1081.94 134.309 1080.22 135.651 1078.34 135.421L1078.33 135.42C1076.45 135.191 1075.1 133.477 1075.33 131.593 1075.56 129.708 1077.28 128.366 1079.16 128.596ZM1092.82 130.267 1092.82 130.268C1094.71 130.497 1096.05 132.211 1095.82 134.095 1095.59 135.98 1093.88 137.322 1091.99 137.092L1091.99 137.091C1090.1 136.862 1088.76 135.148 1088.99 133.264 1089.22 131.379 1090.93 130.037 1092.82 130.267ZM1106.47 131.938 1106.48 131.939C1108.36 132.168 1109.7 133.882 1109.47 135.766 1109.25 137.651 1107.53 138.993 1105.65 138.763L1105.64 138.762C1103.76 138.533 1102.41 136.819 1102.64 134.935 1102.87 133.05 1104.59 131.708 1106.47 131.938ZM1120.13 133.609 1120.13 133.61C1122.02 133.839 1123.36 135.553 1123.13 137.437 1122.9 139.322 1121.19 140.664 1119.3 140.434L1119.3 140.433C1117.41 140.204 1116.07 138.49 1116.3 136.606 1116.53 134.721 1118.24 133.379 1120.13 133.609ZM1133.78 135.28 1133.79 135.281C1135.67 135.51 1137.01 137.224 1136.78 139.108 1136.56 140.993 1134.84 142.335 1132.96 142.105L1132.95 142.104C1131.07 141.875 1129.72 140.161 1129.95 138.277 1130.18 136.392 1131.9 135.05 1133.78 135.28ZM1147.44 136.951 1147.44 136.952C1149.33 137.181 1150.67 138.895 1150.44 140.779 1150.21 142.664 1148.5 144.006 1146.61 143.776L1146.61 143.775C1144.72 143.546 1143.38 141.832 1143.61 139.948 1143.84 138.063 1145.55 136.721 1147.44 136.951ZM1161.09 138.622 1161.1 138.623C1162.98 138.852 1164.32 140.566 1164.09 142.45 1163.87 144.335 1162.15 145.677 1160.27 145.447L1160.26 145.446C1158.38 145.217 1157.03 143.503 1157.26 141.619 1157.49 139.734 1159.21 138.392 1161.09 138.622ZM1174.75 140.293 1174.75 140.294C1176.64 140.523 1177.98 142.237 1177.75 144.121 1177.52 146.006 1175.81 147.348 1173.92 147.118L1173.92 147.117C1172.03 146.888 1170.69 145.174 1170.92 143.29 1171.15 141.405 1172.86 140.063 1174.75 140.293ZM1188.4 141.964 1188.41 141.964C1190.29 142.194 1191.63 143.908 1191.4 145.792 1191.18 147.677 1189.46 149.018 1187.58 148.789L1187.57 148.788C1185.69 148.559 1184.34 146.845 1184.57 144.961 1184.8 143.076 1186.52 141.734 1188.4 141.964ZM1202.06 143.635 1202.06 143.635C1203.95 143.865 1205.29 145.579 1205.06 147.463 1204.83 149.348 1203.12 150.689 1201.23 150.46L1201.23 150.459C1199.34 150.23 1198 148.516 1198.23 146.632 1198.46 144.747 1200.17 143.405 1202.06 143.635ZM1215.71 145.306 1215.72 145.306C1217.6 145.536 1218.94 147.25 1218.71 149.134 1218.49 151.019 1216.77 152.36 1214.89 152.131L1214.88 152.13C1213 151.901 1211.65 150.187 1211.88 148.303 1212.11 146.418 1213.83 145.076 1215.71 145.306ZM1229.37 146.977 1229.37 146.977C1231.26 147.207 1232.6 148.921 1232.37 150.805 1232.14 152.69 1230.43 154.031 1228.54 153.802L1228.54 153.801C1226.65 153.572 1225.31 151.858 1225.54 149.974 1225.77 148.089 1227.48 146.747 1229.37 146.977ZM1243.02 148.648 1243.03 148.648C1244.91 148.878 1246.25 150.591 1246.02 152.476 1245.8 154.361 1244.08 155.702 1242.2 155.473L1242.19 155.472C1240.31 155.243 1238.96 153.529 1239.19 151.645 1239.42 149.76 1241.14 148.418 1243.02 148.648ZM1256.68 150.319 1256.68 150.319C1258.57 150.549 1259.91 152.262 1259.68 154.147 1259.45 156.032 1257.74 157.373 1255.85 157.144L1255.85 157.143C1253.96 156.914 1252.62 155.2 1252.85 153.316 1253.08 151.431 1254.79 150.089 1256.68 150.319ZM1270.33 151.99 1270.34 151.99C1272.22 152.22 1273.56 153.933 1273.33 155.818 1273.11 157.703 1271.39 159.044 1269.51 158.815L1269.5 158.814C1267.62 158.585 1266.27 156.871 1266.5 154.987 1266.73 153.102 1268.45 151.76 1270.33 151.99ZM1283.99 153.661 1283.99 153.661C1285.88 153.891 1287.22 155.604 1286.99 157.489 1286.76 159.374 1285.05 160.715 1283.16 160.486L1283.16 160.485C1281.27 160.256 1279.93 158.542 1280.16 156.658 1280.39 154.773 1282.1 153.431 1283.99 153.661ZM1297.64 155.332 1297.65 155.332C1299.53 155.562 1300.87 157.275 1300.64 159.16 1300.42 161.045 1298.7 162.386 1296.82 162.157L1296.81 162.156C1294.93 161.927 1293.58 160.213 1293.81 158.329 1294.04 156.444 1295.76 155.102 1297.64 155.332ZM1311.3 157.003 1311.3 157.003C1313.19 157.233 1314.53 158.946 1314.3 160.831 1314.07 162.716 1312.36 164.057 1310.47 163.828L1310.47 163.827C1308.58 163.598 1307.24 161.884 1307.47 160 1307.7 158.115 1309.41 156.773 1311.3 157.003ZM1324.95 158.674 1324.96 158.674C1326.84 158.904 1328.18 160.617 1327.95 162.502 1327.73 164.387 1326.01 165.728 1324.13 165.499L1324.12 165.498C1322.24 165.269 1320.89 163.555 1321.12 161.671 1321.35 159.786 1323.07 158.444 1324.95 158.674ZM1338.61 160.345 1338.61 160.345C1340.5 160.575 1341.84 162.288 1341.61 164.173 1341.38 166.058 1339.67 167.399 1337.78 167.17L1337.78 167.169C1335.89 166.94 1334.55 165.226 1334.78 163.342 1335.01 161.457 1336.72 160.115 1338.61 160.345ZM1352.26 162.016 1352.27 162.016C1354.15 162.246 1355.49 163.959 1355.26 165.844 1355.04 167.729 1353.32 169.07 1351.44 168.841L1351.43 168.84C1349.55 168.611 1348.2 166.897 1348.43 165.013 1348.66 163.128 1350.38 161.786 1352.26 162.016ZM1365.92 163.686 1365.92 163.687C1367.81 163.917 1369.15 165.63 1368.92 167.515 1368.69 169.4 1366.98 170.741 1365.09 170.512L1365.09 170.511C1363.2 170.282 1361.86 168.568 1362.09 166.684 1362.32 164.799 1364.03 163.457 1365.92 163.686ZM1379.57 165.357 1379.58 165.358C1381.46 165.588 1382.8 167.301 1382.57 169.186 1382.35 171.071 1380.63 172.412 1378.75 172.183L1378.74 172.182C1376.86 171.953 1375.51 170.239 1375.74 168.354 1375.97 166.47 1377.69 165.128 1379.57 165.357ZM1393.23 167.028 1393.23 167.029C1395.12 167.259 1396.46 168.972 1396.23 170.857 1396 172.742 1394.29 174.083 1392.4 173.854L1392.4 173.853C1390.51 173.624 1389.17 171.91 1389.4 170.025 1389.63 168.141 1391.34 166.799 1393.23 167.028ZM1406.88 168.699 1406.89 168.7C1408.77 168.93 1410.11 170.643 1409.88 172.528 1409.66 174.413 1407.94 175.754 1406.06 175.525L1406.05 175.524C1404.17 175.295 1402.82 173.581 1403.05 171.696 1403.28 169.812 1405 168.47 1406.88 168.699ZM1420.54 170.37 1420.54 170.371C1422.43 170.601 1423.77 172.314 1423.54 174.199 1423.31 176.083 1421.6 177.425 1419.71 177.196L1419.71 177.195C1417.82 176.966 1416.48 175.252 1416.71 173.367 1416.94 171.483 1418.65 170.141 1420.54 170.37ZM1434.19 172.041 1434.2 172.042C1436.08 172.272 1437.42 173.985 1437.19 175.87 1436.97 177.754 1435.25 179.096 1433.37 178.867L1433.36 178.866C1431.48 178.637 1430.13 176.923 1430.36 175.038 1430.59 173.154 1432.31 171.812 1434.19 172.041ZM1447.85 173.712 1447.85 173.713C1449.74 173.943 1451.08 175.656 1450.85 177.541 1450.62 179.425 1448.91 180.767 1447.02 180.538L1447.02 180.537C1445.13 180.308 1443.79 178.594 1444.02 176.709 1444.25 174.825 1445.96 173.483 1447.85 173.712ZM1461.5 175.383 1461.51 175.384C1463.39 175.614 1464.73 177.327 1464.5 179.212 1464.28 181.096 1462.56 182.438 1460.68 182.209L1460.67 182.208C1458.79 181.979 1457.44 180.265 1457.67 178.38 1457.9 176.496 1459.62 175.154 1461.5 175.383ZM1475.16 177.054 1475.16 177.055C1477.05 177.285 1478.39 178.998 1478.16 180.883 1477.93 182.767 1476.22 184.109 1474.33 183.88L1474.33 183.879C1472.44 183.65 1471.1 181.936 1471.33 180.051 1471.56 178.167 1473.27 176.825 1475.16 177.054ZM1488.81 178.725 1488.82 178.726C1490.7 178.956 1492.04 180.669 1491.81 182.554 1491.59 184.438 1489.87 185.78 1487.99 185.551L1487.98 185.55C1486.1 185.321 1484.75 183.607 1484.98 181.722 1485.21 179.838 1486.93 178.496 1488.81 178.725ZM1502.47 180.396 1502.47 180.397C1504.36 180.627 1505.7 182.34 1505.47 184.225 1505.24 186.109 1503.53 187.451 1501.64 187.222L1501.64 187.221C1499.75 186.992 1498.41 185.278 1498.64 183.393 1498.87 181.509 1500.58 180.167 1502.47 180.396ZM1516.12 182.067 1516.13 182.068C1518.01 182.298 1519.35 184.011 1519.12 185.896 1518.9 187.78 1517.18 189.122 1515.3 188.893L1515.29 188.892C1513.41 188.663 1512.06 186.949 1512.29 185.064 1512.52 183.18 1514.24 181.838 1516.12 182.067ZM1529.78 183.738 1529.78 183.739C1531.67 183.969 1533.01 185.682 1532.78 187.567 1532.55 189.451 1530.84 190.793 1528.95 190.564L1528.95 190.563C1527.06 190.334 1525.72 188.62 1525.95 186.735 1526.18 184.851 1527.89 183.509 1529.78 183.738ZM1543.43 185.409 1543.44 185.41C1545.32 185.64 1546.66 187.353 1546.43 189.238 1546.21 191.122 1544.49 192.464 1542.61 192.235L1542.6 192.234C1540.72 192.005 1539.37 190.291 1539.6 188.406 1539.83 186.522 1541.55 185.18 1543.43 185.409ZM1557.09 187.08 1557.09 187.081C1558.98 187.311 1560.32 189.024 1560.09 190.909 1559.86 192.793 1558.15 194.135 1556.26 193.906L1556.26 193.905C1554.37 193.676 1553.03 191.962 1553.26 190.077 1553.49 188.193 1555.2 186.851 1557.09 187.08ZM1570.74 188.751 1570.75 188.752C1572.63 188.982 1573.97 190.695 1573.74 192.58 1573.52 194.464 1571.8 195.806 1569.92 195.577L1569.91 195.576C1568.03 195.347 1566.68 193.633 1566.91 191.748 1567.14 189.864 1568.86 188.522 1570.74 188.751ZM1584.4 190.422 1584.4 190.423C1586.29 190.652 1587.63 192.366 1587.4 194.251 1587.17 196.135 1585.46 197.477 1583.57 197.248L1583.57 197.247C1581.68 197.018 1580.34 195.304 1580.57 193.419 1580.8 191.535 1582.51 190.193 1584.4 190.422ZM1598.05 192.093 1598.06 192.094C1599.94 192.323 1601.28 194.037 1601.06 195.922 1600.83 197.806 1599.11 199.148 1597.23 198.919L1597.22 198.918C1595.34 198.689 1593.99 196.975 1594.22 195.09 1594.45 193.206 1596.17 191.864 1598.05 192.093ZM1611.71 193.764 1611.71 193.765C1613.6 193.994 1614.94 195.708 1614.71 197.593 1614.48 199.477 1612.77 200.819 1610.88 200.59L1610.88 200.589C1608.99 200.359 1607.65 198.646 1607.88 196.761 1608.11 194.877 1609.82 193.535 1611.71 193.764ZM1625.36 195.435 1625.37 195.436C1627.25 195.665 1628.59 197.379 1628.37 199.264 1628.14 201.148 1626.42 202.49 1624.54 202.261L1624.53 202.26C1622.65 202.03 1621.3 200.317 1621.53 198.432 1621.76 196.548 1623.48 195.206 1625.36 195.435ZM1639.02 197.106 1639.02 197.107C1640.91 197.336 1642.25 199.05 1642.02 200.935 1641.79 202.819 1640.08 204.161 1638.19 203.932L1638.19 203.931C1636.3 203.701 1634.96 201.988 1635.19 200.103 1635.42 198.219 1637.13 196.877 1639.02 197.106ZM1652.67 198.777 1652.68 198.778C1654.56 199.007 1655.9 200.721 1655.68 202.606 1655.45 204.49 1653.73 205.832 1651.85 205.603L1651.84 205.602C1649.96 205.372 1648.61 203.659 1648.84 201.774 1649.07 199.89 1650.79 198.548 1652.67 198.777ZM1666.33 200.448 1666.33 200.449C1668.22 200.678 1669.56 202.392 1669.33 204.277 1669.1 206.161 1667.39 207.503 1665.5 207.274L1665.5 207.273C1663.61 207.043 1662.27 205.33 1662.5 203.445 1662.73 201.561 1664.44 200.219 1666.33 200.448ZM1679.98 202.119 1679.99 202.12C1681.87 202.349 1683.22 204.063 1682.99 205.948 1682.76 207.832 1681.04 209.174 1679.16 208.945L1679.15 208.944C1677.27 208.714 1675.92 207.001 1676.15 205.116 1676.38 203.232 1678.1 201.89 1679.98 202.119ZM1693.64 203.79 1693.64 203.791C1695.53 204.02 1696.87 205.734 1696.64 207.619 1696.41 209.503 1694.7 210.845 1692.81 210.616L1692.81 210.615C1690.92 210.385 1689.58 208.672 1689.81 206.787 1690.04 204.903 1691.75 203.561 1693.64 203.79ZM1707.29 205.461 1707.3 205.462C1709.18 205.691 1710.53 207.405 1710.3 209.29 1710.07 211.174 1708.35 212.516 1706.47 212.287L1706.46 212.286C1704.58 212.056 1703.23 210.343 1703.46 208.458 1703.69 206.574 1705.41 205.232 1707.29 205.461ZM1720.95 207.132 1720.95 207.133C1722.84 207.362 1724.18 209.076 1723.95 210.961 1723.72 212.845 1722.01 214.187 1720.12 213.958L1720.12 213.957C1718.23 213.727 1716.89 212.014 1717.12 210.129 1717.35 208.244 1719.06 206.903 1720.95 207.132ZM1734.6 208.803 1734.61 208.804C1736.49 209.033 1737.84 210.747 1737.61 212.632 1737.38 214.516 1735.66 215.858 1733.78 215.629L1733.77 215.628C1731.89 215.398 1730.55 213.685 1730.77 211.8 1731 209.915 1732.72 208.574 1734.6 208.803ZM1748.26 210.474 1748.26 210.475C1750.15 210.704 1751.49 212.418 1751.26 214.302 1751.03 216.187 1749.32 217.529 1747.43 217.299L1747.43 217.299C1745.54 217.069 1744.2 215.356 1744.43 213.471 1744.66 211.586 1746.37 210.245 1748.26 210.474ZM1761.91 212.145 1761.92 212.146C1763.8 212.375 1765.15 214.089 1764.92 215.973 1764.69 217.858 1762.97 219.2 1761.09 218.97L1761.08 218.97C1759.2 218.74 1757.85 217.027 1758.08 215.142 1758.31 213.257 1760.03 211.916 1761.91 212.145ZM1775.57 213.816 1775.57 213.817C1777.46 214.046 1778.8 215.76 1778.57 217.644 1778.34 219.529 1776.63 220.871 1774.74 220.641L1774.74 220.641C1772.85 220.411 1771.51 218.698 1771.74 216.813 1771.97 214.928 1773.68 213.587 1775.57 213.816ZM1789.22 215.487 1789.23 215.488C1791.11 215.717 1792.46 217.431 1792.23 219.315 1792 221.2 1790.28 222.542 1788.4 222.312L1788.39 222.312C1786.51 222.082 1785.17 220.369 1785.39 218.484 1785.62 216.599 1787.34 215.258 1789.22 215.487ZM1802.88 217.158 1802.88 217.159C1804.77 217.388 1806.11 219.102 1805.88 220.986 1805.65 222.871 1803.94 224.213 1802.05 223.983L1802.05 223.983C1800.16 223.753 1798.82 222.039 1799.05 220.155 1799.28 218.27 1800.99 216.929 1802.88 217.158ZM1816.53 218.829 1816.54 218.83C1818.42 219.059 1819.77 220.773 1819.54 222.657 1819.31 224.542 1817.59 225.884 1815.71 225.654L1815.7 225.654C1813.82 225.424 1812.47 223.71 1812.7 221.826 1812.93 219.941 1814.65 218.6 1816.53 218.829ZM1830.19 220.5 1830.19 220.501C1832.08 220.73 1833.42 222.444 1833.19 224.328 1832.96 226.213 1831.25 227.555 1829.36 227.325L1829.36 227.325C1827.47 227.095 1826.13 225.381 1826.36 223.497 1826.59 221.612 1828.3 220.271 1830.19 220.5ZM1843.84 222.171 1843.85 222.172C1845.73 222.401 1847.08 224.115 1846.85 225.999 1846.62 227.884 1844.9 229.226 1843.02 228.996L1843.01 228.996C1841.13 228.766 1839.78 227.052 1840.01 225.168 1840.24 223.283 1841.96 221.941 1843.84 222.171ZM1857.5 223.842 1857.5 223.843C1859.39 224.072 1860.73 225.786 1860.5 227.67 1860.27 229.555 1858.56 230.897 1856.67 230.667L1856.67 230.666C1854.78 230.437 1853.44 228.723 1853.67 226.839 1853.9 224.954 1855.61 223.612 1857.5 223.842ZM1871.15 225.513 1871.16 225.514C1873.04 225.743 1874.39 227.457 1874.16 229.341 1873.93 231.226 1872.21 232.568 1870.33 232.338L1870.32 232.337C1868.44 232.108 1867.09 230.394 1867.32 228.51 1867.55 226.625 1869.27 225.283 1871.15 225.513ZM1884.81 227.184 1884.81 227.185C1886.7 227.414 1888.04 229.128 1887.81 231.012 1887.58 232.897 1885.87 234.239 1883.98 234.009L1883.98 234.008C1882.09 233.779 1880.75 232.065 1880.98 230.181 1881.21 228.296 1882.92 226.954 1884.81 227.184ZM1898.46 228.855 1898.47 228.856C1900.35 229.085 1901.69 230.799 1901.47 232.683 1901.24 234.568 1899.52 235.91 1897.64 235.68L1897.63 235.679C1895.75 235.45 1894.4 233.736 1894.63 231.852 1894.86 229.967 1896.58 228.625 1898.46 228.855ZM1912.12 230.526 1912.12 230.527C1914.01 230.756 1915.35 232.47 1915.12 234.354 1914.89 236.239 1913.18 237.581 1911.29 237.351L1911.29 237.35C1909.4 237.121 1908.06 235.407 1908.29 233.523 1908.52 231.638 1910.23 230.296 1912.12 230.526ZM1925.77 232.197 1925.78 232.198C1927.66 232.427 1929 234.141 1928.78 236.025 1928.55 237.91 1926.83 239.252 1924.95 239.022L1924.94 239.021C1923.06 238.792 1921.71 237.078 1921.94 235.194 1922.17 233.309 1923.89 231.967 1925.77 232.197ZM1939.43 233.868 1939.43 233.869C1941.32 234.098 1942.66 235.812 1942.43 237.696 1942.2 239.581 1940.49 240.923 1938.6 240.693L1938.6 240.692C1936.71 240.463 1935.37 238.749 1935.6 236.865 1935.83 234.98 1937.54 233.638 1939.43 233.868ZM1953.08 235.539 1953.09 235.54C1954.97 235.769 1956.31 237.483 1956.09 239.367 1955.86 241.252 1954.14 242.594 1952.26 242.364L1952.25 242.363C1950.37 242.134 1949.02 240.42 1949.25 238.536 1949.48 236.651 1951.2 235.309 1953.08 235.539ZM1966.74 237.21 1966.74 237.211C1968.63 237.44 1969.97 239.154 1969.74 241.038 1969.51 242.923 1967.8 244.265 1965.91 244.035L1965.91 244.034C1964.02 243.805 1962.68 242.091 1962.91 240.207 1963.14 238.322 1964.85 236.98 1966.74 237.21ZM1980.39 238.881 1980.4 238.882C1982.28 239.111 1983.62 240.825 1983.4 242.709 1983.17 244.594 1981.45 245.936 1979.57 245.706L1979.56 245.705C1977.68 245.476 1976.33 243.762 1976.56 241.878 1976.79 239.993 1978.51 238.651 1980.39 238.881ZM1994.05 240.552 1994.05 240.553C1995.94 240.782 1997.28 242.496 1997.05 244.38 1996.82 246.265 1995.11 247.607 1993.22 247.377L1993.22 247.376C1991.33 247.147 1989.99 245.433 1990.22 243.549 1990.45 241.664 1992.16 240.322 1994.05 240.552ZM2007.7 242.223 2007.71 242.224C2009.59 242.453 2010.93 244.167 2010.7 246.051 2010.48 247.936 2008.76 249.278 2006.88 249.048L2006.87 249.047C2004.99 248.818 2003.64 247.104 2003.87 245.22 2004.1 243.335 2005.82 241.993 2007.7 242.223ZM2021.36 243.894 2021.36 243.895C2023.25 244.124 2024.59 245.838 2024.36 247.722 2024.13 249.607 2022.42 250.949 2020.53 250.719L2020.53 250.718C2018.64 250.489 2017.3 248.775 2017.53 246.891 2017.76 245.006 2019.47 243.664 2021.36 243.894ZM2035.01 245.565 2035.02 245.566C2036.9 245.795 2038.24 247.509 2038.01 249.393 2037.79 251.278 2036.07 252.62 2034.19 252.39L2034.18 252.389C2032.3 252.16 2030.95 250.446 2031.18 248.562 2031.41 246.677 2033.13 245.335 2035.01 245.565ZM2048.67 247.236 2048.67 247.236C2050.56 247.466 2051.9 249.18 2051.67 251.064 2051.44 252.949 2049.73 254.291 2047.84 254.061L2047.84 254.06C2045.95 253.831 2044.61 252.117 2044.84 250.233 2045.07 248.348 2046.78 247.006 2048.67 247.236ZM2062.32 248.907 2062.33 248.907C2064.21 249.137 2065.55 250.851 2065.32 252.735 2065.1 254.62 2063.38 255.962 2061.5 255.732L2061.49 255.731C2059.61 255.502 2058.26 253.788 2058.49 251.904 2058.72 250.019 2060.44 248.677 2062.32 248.907ZM2075.98 250.578 2075.98 250.578C2077.87 250.808 2079.21 252.522 2078.98 254.406 2078.75 256.291 2077.04 257.633 2075.15 257.403L2075.15 257.402C2073.26 257.173 2071.92 255.459 2072.15 253.575 2072.38 251.69 2074.09 250.348 2075.98 250.578ZM2089.63 252.249 2089.64 252.249C2091.52 252.479 2092.86 254.193 2092.63 256.077 2092.41 257.962 2090.69 259.303 2088.81 259.074L2088.8 259.073C2086.92 258.844 2085.57 257.13 2085.8 255.246 2086.03 253.361 2087.75 252.019 2089.63 252.249ZM2103.29 253.92 2103.29 253.92C2105.18 254.15 2106.52 255.864 2106.29 257.748 2106.06 259.633 2104.35 260.974 2102.46 260.745L2102.46 260.744C2100.57 260.515 2099.23 258.801 2099.46 256.917 2099.69 255.032 2101.4 253.69 2103.29 253.92ZM2116.94 255.591 2116.95 255.591C2118.83 255.821 2120.17 257.535 2119.94 259.419 2119.72 261.304 2118 262.645 2116.12 262.416L2116.11 262.415C2114.23 262.186 2112.88 260.472 2113.11 258.588 2113.34 256.703 2115.06 255.361 2116.94 255.591ZM2130.6 257.262 2130.6 257.262C2132.49 257.492 2133.83 259.206 2133.6 261.09 2133.37 262.975 2131.66 264.316 2129.77 264.087L2129.77 264.086C2127.88 263.857 2126.54 262.143 2126.77 260.259 2127 258.374 2128.71 257.032 2130.6 257.262ZM2144.25 258.933 2144.26 258.933C2146.14 259.163 2147.48 260.876 2147.25 262.761 2147.03 264.646 2145.31 265.987 2143.43 265.758L2143.42 265.757C2141.54 265.528 2140.19 263.814 2140.42 261.93 2140.65 260.045 2142.37 258.703 2144.25 258.933ZM2157.91 260.604 2157.91 260.604C2159.8 260.834 2161.14 262.547 2160.91 264.432 2160.68 266.317 2158.97 267.658 2157.08 267.429L2157.08 267.428C2155.19 267.199 2153.85 265.485 2154.08 263.601 2154.31 261.716 2156.02 260.374 2157.91 260.604ZM2171.56 262.275 2171.57 262.275C2173.45 262.505 2174.79 264.218 2174.56 266.103 2174.34 267.988 2172.62 269.329 2170.74 269.1L2170.73 269.099C2168.85 268.87 2167.5 267.156 2167.73 265.272 2167.96 263.387 2169.68 262.045 2171.56 262.275ZM2185.22 263.946 2185.22 263.946C2187.11 264.176 2188.45 265.889 2188.22 267.774 2187.99 269.659 2186.28 271 2184.39 270.771L2184.39 270.77C2182.5 270.541 2181.16 268.827 2181.39 266.943 2181.62 265.058 2183.33 263.716 2185.22 263.946ZM2198.87 265.617 2198.88 265.617C2200.76 265.847 2202.1 267.56 2201.87 269.445 2201.65 271.33 2199.93 272.671 2198.05 272.442L2198.04 272.441C2196.16 272.212 2194.81 270.498 2195.04 268.614 2195.27 266.729 2196.99 265.387 2198.87 265.617ZM2212.53 267.288 2212.53 267.288C2214.42 267.518 2215.76 269.231 2215.53 271.116 2215.3 273.001 2213.59 274.342 2211.7 274.113L2211.69 274.112C2209.81 273.883 2208.47 272.169 2208.7 270.285 2208.93 268.4 2210.64 267.058 2212.53 267.288ZM2226.18 268.959 2226.19 268.959C2228.07 269.189 2229.41 270.902 2229.18 272.787 2228.96 274.672 2227.24 276.013 2225.36 275.784L2225.35 275.783C2223.47 275.554 2222.12 273.84 2222.35 271.956 2222.58 270.071 2224.3 268.729 2226.18 268.959ZM2239.84 270.63 2239.84 270.63C2241.73 270.86 2243.07 272.573 2242.84 274.458 2242.61 276.343 2240.9 277.684 2239.01 277.455L2239 277.454C2237.12 277.225 2235.78 275.511 2236.01 273.626 2236.24 271.742 2237.95 270.4 2239.84 270.63ZM2253.49 272.301 2253.5 272.301C2255.38 272.531 2256.72 274.244 2256.49 276.129 2256.26 278.014 2254.55 279.355 2252.67 279.126L2252.66 279.125C2250.78 278.896 2249.43 277.182 2249.66 275.298 2249.89 273.413 2251.61 272.071 2253.49 272.301ZM2267.15 273.971 2267.15 273.972C2269.04 274.202 2270.38 275.915 2270.15 277.8 2269.92 279.685 2268.21 281.026 2266.32 280.797L2266.31 280.796C2264.43 280.567 2263.09 278.853 2263.32 276.968 2263.55 275.084 2265.26 273.742 2267.15 273.971ZM2280.8 275.642 2280.81 275.643C2282.69 275.873 2284.03 277.586 2283.8 279.471 2283.57 281.356 2281.86 282.697 2279.98 282.468L2279.97 282.467C2278.09 282.238 2276.74 280.524 2276.97 278.639 2277.2 276.755 2278.92 275.413 2280.8 275.642ZM2294.46 277.313 2294.46 277.314C2296.35 277.544 2297.69 279.257 2297.46 281.142 2297.23 283.027 2295.52 284.368 2293.63 284.139L2293.62 284.138C2291.74 283.909 2290.4 282.195 2290.63 280.31 2290.86 278.426 2292.57 277.084 2294.46 277.313ZM2308.11 278.984 2308.12 278.985C2310 279.215 2311.34 280.928 2311.11 282.813 2310.89 284.697 2309.17 286.039 2307.29 285.81L2307.28 285.809C2305.4 285.58 2304.05 283.866 2304.28 281.981 2304.51 280.097 2306.23 278.755 2308.11 278.984ZM2321.77 280.655 2321.77 280.656C2323.66 280.886 2325 282.599 2324.77 284.484 2324.54 286.368 2322.83 287.71 2320.94 287.481L2320.93 287.48C2319.05 287.251 2317.71 285.537 2317.94 283.652 2318.17 281.768 2319.88 280.426 2321.77 280.655ZM2335.42 282.326 2335.43 282.327C2337.31 282.557 2338.65 284.27 2338.42 286.155 2338.19 288.039 2336.48 289.381 2334.6 289.152L2334.59 289.151C2332.71 288.922 2331.36 287.208 2331.59 285.323 2331.82 283.439 2333.54 282.097 2335.42 282.326ZM2349.08 283.997 2349.08 283.998C2350.97 284.228 2352.31 285.941 2352.08 287.826 2351.85 289.71 2350.14 291.052 2348.25 290.823L2348.24 290.822C2346.36 290.593 2345.02 288.879 2345.25 286.994 2345.48 285.11 2347.19 283.768 2349.08 283.997ZM2362.73 285.668 2362.74 285.669C2364.62 285.899 2365.96 287.612 2365.73 289.497 2365.5 291.381 2363.79 292.723 2361.91 292.494L2361.9 292.493C2360.01 292.264 2358.67 290.55 2358.9 288.665 2359.13 286.781 2360.85 285.439 2362.73 285.668ZM2376.39 287.339 2376.39 287.34C2378.28 287.57 2379.62 289.283 2379.39 291.168 2379.16 293.052 2377.45 294.394 2375.56 294.165L2375.55 294.164C2373.67 293.935 2372.33 292.221 2372.56 290.336 2372.79 288.452 2374.5 287.11 2376.39 287.339Z" fill="#002060" fill-rule="nonzero" fill-opacity="1" transform="matrix(1 0 0 -1 1751.5 2350.5)"/></g><g clip-path="url(#clip4)"><text fill="#595959" fill-opacity="1" font-family="Calibri,Calibri_MSFontService,sans-serif" font-style="normal" font-variant="normal" font-weight="400" font-stretch="normal" font-size="41" text-anchor="start" direction="ltr" writing-mode="lr-tb" unicode-bidi="normal" text-decoration="none" transform="matrix(1 0 0 1 3872.01 1746)">rho = 7.6998</text></g><g clip-path="url(#clip5)"><text fill="#595959" fill-opacity="1" font-family="Calibri,Calibri_MSFontService,sans-serif" font-style="normal" font-variant="normal" font-weight="400" font-stretch="normal" font-size="41" text-anchor="start" direction="ltr" writing-mode="lr-tb" unicode-bidi="normal" text-decoration="none" transform="matrix(1 0 0 1 1692.58 2528)">0</text></g><g clip-path="url(#clip6)"><text fill="#595959" fill-opacity="1" font-family="Calibri,Calibri_MSFontService,sans-serif" font-style="normal" font-variant="normal" font-weight="400" font-stretch="normal" font-size="41" text-anchor="start" direction="ltr" writing-mode="lr-tb" unicode-bidi="normal" text-decoration="none" transform="matrix(1 0 0 1 1671.68 2411)">50</text></g><g clip-path="url(#clip7)"><text fill="#595959" fill-opacity="1" font-family="Calibri,Calibri_MSFontService,sans-serif" font-style="normal" font-variant="normal" font-weight="400" font-stretch="normal" font-size="41" text-anchor="start" direction="ltr" writing-mode="lr-tb" unicode-bidi="normal" text-decoration="none" transform="matrix(1 0 0 1 1650.78 2293)">100</text></g><g clip-path="url(#clip8)"><text fill="#595959" fill-opacity="1" font-family="Calibri,Calibri_MSFontService,sans-serif" font-style="normal" font-variant="normal" font-weight="400" font-stretch="normal" font-size="41" text-anchor="start" direction="ltr" writing-mode="lr-tb" unicode-bidi="normal" text-decoration="none" transform="matrix(1 0 0 1 1650.78 2175)">150</text></g><g clip-path="url(#clip9)"><text fill="#595959" fill-opacity="1" font-family="Calibri,Calibri_MSFontService,sans-serif" font-style="normal" font-variant="normal" font-weight="400" font-stretch="normal" font-size="41" text-anchor="start" direction="ltr" writing-mode="lr-tb" unicode-bidi="normal" text-decoration="none" transform="matrix(1 0 0 1 1650.78 2057)">200</text></g><g clip-path="url(#clip10)"><text fill="#595959" fill-opacity="1" font-family="Calibri,Calibri_MSFontService,sans-serif" font-style="normal" font-variant="normal" font-weight="400" font-stretch="normal" font-size="41" text-anchor="start" direction="ltr" writing-mode="lr-tb" unicode-bidi="normal" text-decoration="none" transform="matrix(1 0 0 1 1650.78 1939)">250</text></g><g clip-path="url(#clip11)"><text fill="#595959" fill-opacity="1" font-family="Calibri,Calibri_MSFontService,sans-serif" font-style="normal" font-variant="normal" font-weight="400" font-stretch="normal" font-size="41" text-anchor="start" direction="ltr" writing-mode="lr-tb" unicode-bidi="normal" text-decoration="none" transform="matrix(1 0 0 1 1650.78 1821)">300</text></g><g clip-path="url(#clip12)"><text fill="#595959" fill-opacity="1" font-family="Calibri,Calibri_MSFontService,sans-serif" font-style="normal" font-variant="normal" font-weight="400" font-stretch="normal" font-size="41" text-anchor="start" direction="ltr" writing-mode="lr-tb" unicode-bidi="normal" text-decoration="none" transform="matrix(1 0 0 1 1709.93 2583)">2002</text></g><g clip-path="url(#clip13)"><text fill="#595959" fill-opacity="1" font-family="Calibri,Calibri_MSFontService,sans-serif" font-style="normal" font-variant="normal" font-weight="400" font-stretch="normal" font-size="41" text-anchor="start" direction="ltr" writing-mode="lr-tb" unicode-bidi="normal" text-decoration="none" transform="matrix(1 0 0 1 1858.51 2583)">2003</text></g><g clip-path="url(#clip14)"><text fill="#595959" fill-opacity="1" font-family="Calibri,Calibri_MSFontService,sans-serif" font-style="normal" font-variant="normal" font-weight="400" font-stretch="normal" font-size="41" text-anchor="start" direction="ltr" writing-mode="lr-tb" unicode-bidi="normal" text-decoration="none" transform="matrix(1 0 0 1 2007.09 2583)">2004</text></g><g clip-path="url(#clip15)"><text fill="#595959" fill-opacity="1" font-family="Calibri,Calibri_MSFontService,sans-serif" font-style="normal" font-variant="normal" font-weight="400" font-stretch="normal" font-size="41" text-anchor="start" direction="ltr" writing-mode="lr-tb" unicode-bidi="normal" text-decoration="none" transform="matrix(1 0 0 1 2155.67 2583)">2005</text></g><g clip-path="url(#clip16)"><text fill="#595959" fill-opacity="1" font-family="Calibri,Calibri_MSFontService,sans-serif" font-style="normal" font-variant="normal" font-weight="400" font-stretch="normal" font-size="41" text-anchor="start" direction="ltr" writing-mode="lr-tb" unicode-bidi="normal" text-decoration="none" transform="matrix(1 0 0 1 2304.26 2583)">2006</text></g><g clip-path="url(#clip17)"><text fill="#595959" fill-opacity="1" font-family="Calibri,Calibri_MSFontService,sans-serif" font-style="normal" font-variant="normal" font-weight="400" font-stretch="normal" font-size="41" text-anchor="start" direction="ltr" writing-mode="lr-tb" unicode-bidi="normal" text-decoration="none" transform="matrix(1 0 0 1 2452.84 2583)">2007</text></g><g clip-path="url(#clip18)"><text fill="#595959" fill-opacity="1" font-family="Calibri,Calibri_MSFontService,sans-serif" font-style="normal" font-variant="normal" font-weight="400" font-stretch="normal" font-size="41" text-anchor="start" direction="ltr" writing-mode="lr-tb" unicode-bidi="normal" text-decoration="none" transform="matrix(1 0 0 1 2601.42 2583)">2008</text></g><g clip-path="url(#clip19)"><text fill="#595959" fill-opacity="1" font-family="Calibri,Calibri_MSFontService,sans-serif" font-style="normal" font-variant="normal" font-weight="400" font-stretch="normal" font-size="41" text-anchor="start" direction="ltr" writing-mode="lr-tb" unicode-bidi="normal" text-decoration="none" transform="matrix(1 0 0 1 2750 2583)">2009</text></g><g clip-path="url(#clip20)"><text fill="#595959" fill-opacity="1" font-family="Calibri,Calibri_MSFontService,sans-serif" font-style="normal" font-variant="normal" font-weight="400" font-stretch="normal" font-size="41" text-anchor="start" direction="ltr" writing-mode="lr-tb" unicode-bidi="normal" text-decoration="none" transform="matrix(1 0 0 1 2898.58 2583)">2010</text></g><g clip-path="url(#clip21)"><text fill="#595959" fill-opacity="1" font-family="Calibri,Calibri_MSFontService,sans-serif" font-style="normal" font-variant="normal" font-weight="400" font-stretch="normal" font-size="41" text-anchor="start" direction="ltr" writing-mode="lr-tb" unicode-bidi="normal" text-decoration="none" transform="matrix(1 0 0 1 3047.16 2583)">2011</text></g><g clip-path="url(#clip22)"><text fill="#595959" fill-opacity="1" font-family="Calibri,Calibri_MSFontService,sans-serif" font-style="normal" font-variant="normal" font-weight="400" font-stretch="normal" font-size="41" text-anchor="start" direction="ltr" writing-mode="lr-tb" unicode-bidi="normal" text-decoration="none" transform="matrix(1 0 0 1 3195.74 2583)">2012</text></g><g clip-path="url(#clip23)"><text fill="#595959" fill-opacity="1" font-family="Calibri,Calibri_MSFontService,sans-serif" font-style="normal" font-variant="normal" font-weight="400" font-stretch="normal" font-size="41" text-anchor="start" direction="ltr" writing-mode="lr-tb" unicode-bidi="normal" text-decoration="none" transform="matrix(1 0 0 1 3344.33 2583)">2013</text></g><g clip-path="url(#clip24)"><text fill="#595959" fill-opacity="1" font-family="Calibri,Calibri_MSFontService,sans-serif" font-style="normal" font-variant="normal" font-weight="400" font-stretch="normal" font-size="41" text-anchor="start" direction="ltr" writing-mode="lr-tb" unicode-bidi="normal" text-decoration="none" transform="matrix(1 0 0 1 3492.91 2583)">2014</text></g><g clip-path="url(#clip25)"><text fill="#595959" fill-opacity="1" font-family="Calibri,Calibri_MSFontService,sans-serif" font-style="normal" font-variant="normal" font-weight="400" font-stretch="normal" font-size="41" text-anchor="start" direction="ltr" writing-mode="lr-tb" unicode-bidi="normal" text-decoration="none" transform="matrix(1 0 0 1 3641.49 2583)">2015</text></g><g clip-path="url(#clip26)"><text fill="#595959" fill-opacity="1" font-family="Calibri,Calibri_MSFontService,sans-serif" font-style="normal" font-variant="normal" font-weight="400" font-stretch="normal" font-size="41" text-anchor="start" direction="ltr" writing-mode="lr-tb" unicode-bidi="normal" text-decoration="none" transform="matrix(1 0 0 1 3790.07 2583)">2016</text></g><g clip-path="url(#clip27)"><text fill="#595959" fill-opacity="1" font-family="Calibri,Calibri_MSFontService,sans-serif" font-style="normal" font-variant="normal" font-weight="400" font-stretch="normal" font-size="41" text-anchor="start" direction="ltr" writing-mode="lr-tb" unicode-bidi="normal" text-decoration="none" transform="matrix(1 0 0 1 3938.65 2583)">2017</text></g><g clip-path="url(#clip28)"><text fill="#595959" fill-opacity="1" font-family="Calibri,Calibri_MSFontService,sans-serif" font-style="normal" font-variant="normal" font-weight="400" font-stretch="normal" font-size="41" text-anchor="start" direction="ltr" writing-mode="lr-tb" unicode-bidi="normal" text-decoration="none" transform="matrix(1 0 0 1 4087.23 2583)">2018</text></g><g clip-path="url(#clip29)"><text fill="#595959" fill-opacity="1" font-family="Calibri,Calibri_MSFontService,sans-serif" font-style="normal" font-variant="normal" font-weight="400" font-stretch="normal" font-size="64" text-anchor="start" direction="ltr" writing-mode="lr-tb" unicode-bidi="normal" text-decoration="none" transform="matrix(1 0 0 1 2602.46 1736)">Average Call per day </text></g><g clip-path="url(#clip30)"><text fill="#595959" fill-opacity="1" font-family="Calibri,Calibri_MSFontService,sans-serif" font-style="normal" font-variant="normal" font-weight="400" font-stretch="normal" font-size="64" text-anchor="start" direction="ltr" writing-mode="lr-tb" unicode-bidi="normal" text-decoration="none" transform="matrix(1 0 0 1 3144.81 1736)">-</text></g><g clip-path="url(#clip31)"><text fill="#595959" fill-opacity="1" font-family="Calibri,Calibri_MSFontService,sans-serif" font-style="normal" font-variant="normal" font-weight="400" font-stretch="normal" font-size="64" text-anchor="start" direction="ltr" writing-mode="lr-tb" unicode-bidi="normal" text-decoration="none" transform="matrix(1 0 0 1 3178.96 1736)">SE</text></g><rect x="1621.5" y="1641.5" width="2600" height="983" stroke="#D9D9D9" stroke-width="3.4375" stroke-linecap="butt" stroke-linejoin="round" stroke-miterlimit="10" stroke-opacity="1" fill="none"/></g></svg>