<svg width="2306" height="999" xmlns="http://www.w3.org/2000/svg" xmlns:xlink="http://www.w3.org/1999/xlink" overflow="hidden"><defs><clipPath id="clip0"><rect x="2786" y="261" width="2306" height="999"/></clipPath><clipPath id="clip1"><rect x="2788" y="265" width="2301" height="990"/></clipPath><clipPath id="clip2"><rect x="2788" y="265" width="2301" height="990"/></clipPath><clipPath id="clip3"><rect x="2788" y="265" width="2301" height="990"/></clipPath><clipPath id="clip4"><rect x="2918" y="435" width="2079" height="714"/></clipPath><clipPath id="clip5"><rect x="2788" y="265" width="2301" height="990"/></clipPath><clipPath id="clip6"><rect x="2788" y="265" width="2301" height="990"/></clipPath><clipPath id="clip7"><rect x="2788" y="265" width="2301" height="990"/></clipPath><clipPath id="clip8"><rect x="2788" y="265" width="2301" height="990"/></clipPath><clipPath id="clip9"><rect x="2788" y="265" width="2301" height="990"/></clipPath><clipPath id="clip10"><rect x="2788" y="265" width="2301" height="990"/></clipPath><clipPath id="clip11"><rect x="2788" y="265" width="2301" height="990"/></clipPath><clipPath id="clip12"><rect x="2788" y="265" width="2301" height="990"/></clipPath><clipPath id="clip13"><rect x="2788" y="265" width="2301" height="990"/></clipPath><clipPath id="clip14"><rect x="2788" y="265" width="2301" height="990"/></clipPath><clipPath id="clip15"><rect x="2788" y="265" width="2301" height="990"/></clipPath><clipPath id="clip16"><rect x="2788" y="265" width="2301" height="990"/></clipPath><clipPath id="clip17"><rect x="2788" y="265" width="2301" height="990"/></clipPath><clipPath id="clip18"><rect x="2788" y="265" width="2301" height="990"/></clipPath><clipPath id="clip19"><rect x="2788" y="265" width="2301" height="990"/></clipPath><clipPath id="clip20"><rect x="2788" y="265" width="2301" height="990"/></clipPath><clipPath id="clip21"><rect x="2788" y="265" width="2301" height="990"/></clipPath><clipPath id="clip22"><rect x="2788" y="265" width="2301" height="990"/></clipPath><clipPath id="clip23"><rect x="2788" y="265" width="2301" height="990"/></clipPath><clipPath id="clip24"><rect x="2788" y="265" width="2301" height="990"/></clipPath><clipPath id="clip25"><rect x="2788" y="265" width="2301" height="990"/></clipPath><clipPath id="clip26"><rect x="2788" y="265" width="2301" height="990"/></clipPath><clipPath id="clip27"><rect x="2788" y="265" width="2301" height="990"/></clipPath><clipPath id="clip28"><rect x="2788" y="265" width="2301" height="990"/></clipPath><clipPath id="clip29"><rect x="2788" y="265" width="2301" height="990"/></clipPath><clipPath id="clip30"><rect x="2788" y="265" width="2301" height="990"/></clipPath><clipPath id="clip31"><rect x="2788" y="265" width="2301" height="990"/></clipPath><clipPath id="clip32"><rect x="2788" y="265" width="2301" height="990"/></clipPath></defs><g clip-path="url(#clip0)" transform="translate(-2786 -261)"><rect x="2788" y="266" width="2301" height="990" fill="#FFFFFF" fill-opacity="1"/><g clip-path="url(#clip1)"><path d="M2918.5 1030.53 4997.5 1030.53M2918.5 911.53 4997.5 911.53M2918.5 792.526 4997.5 792.526M2918.5 673.522 4997.5 673.522M2918.5 554.518 4997.5 554.518M2918.5 435.5 4997.5 435.5" stroke="#D9D9D9" stroke-width="3.4375" stroke-linecap="butt" stroke-linejoin="round" stroke-miterlimit="10" stroke-opacity="1" fill="none" fill-rule="nonzero"/></g><g clip-path="url(#clip2)"><path d="M2918.5 1149.5 4997.5 1149.5" stroke="#D9D9D9" stroke-width="3.4375" stroke-linecap="butt" stroke-linejoin="round" stroke-miterlimit="10" stroke-opacity="1" fill="none" fill-rule="evenodd"/></g><g clip-path="url(#clip3)"><path d="M2929.54 917.333C2929.54 923.408 2924.62 928.332 2918.54 928.332 2912.47 928.332 2907.54 923.408 2907.54 917.333 2907.54 911.258 2912.47 906.333 2918.54 906.333 2924.62 906.333 2929.54 911.258 2929.54 917.333Z" stroke="#002060" stroke-width="3.4375" stroke-linecap="butt" stroke-linejoin="round" stroke-miterlimit="10" stroke-opacity="1" fill="#002060" fill-rule="nonzero" fill-opacity="1"/><path d="M3059.54 909.333C3059.54 915.408 3054.62 920.333 3048.54 920.333 3042.47 920.333 3037.54 915.408 3037.54 909.333 3037.54 903.258 3042.47 898.333 3048.54 898.333 3054.62 898.333 3059.54 903.258 3059.54 909.333Z" stroke="#002060" stroke-width="3.4375" stroke-linecap="butt" stroke-linejoin="round" stroke-miterlimit="10" stroke-opacity="1" fill="#002060" fill-rule="nonzero" fill-opacity="1"/><path d="M3189.54 924.333C3189.54 930.408 3184.62 935.333 3178.54 935.333 3172.47 935.333 3167.54 930.408 3167.54 924.333 3167.54 918.258 3172.47 913.333 3178.54 913.333 3184.62 913.333 3189.54 918.258 3189.54 924.333Z" stroke="#002060" stroke-width="3.4375" stroke-linecap="butt" stroke-linejoin="round" stroke-miterlimit="10" stroke-opacity="1" fill="#002060" fill-rule="nonzero" fill-opacity="1"/><path d="M3319.54 909.333C3319.54 915.408 3314.62 920.333 3308.54 920.333 3302.47 920.333 3297.54 915.408 3297.54 909.333 3297.54 903.258 3302.47 898.333 3308.54 898.333 3314.62 898.333 3319.54 903.258 3319.54 909.333Z" stroke="#002060" stroke-width="3.4375" stroke-linecap="butt" stroke-linejoin="round" stroke-miterlimit="10" stroke-opacity="1" fill="#002060" fill-rule="nonzero" fill-opacity="1"/><path d="M3449.54 975.333C3449.54 981.408 3444.62 986.333 3438.54 986.333 3432.47 986.333 3427.54 981.408 3427.54 975.333 3427.54 969.258 3432.47 964.333 3438.54 964.333 3444.62 964.333 3449.54 969.258 3449.54 975.333Z" stroke="#002060" stroke-width="3.4375" stroke-linecap="butt" stroke-linejoin="round" stroke-miterlimit="10" stroke-opacity="1" fill="#002060" fill-rule="nonzero" fill-opacity="1"/><path d="M3579.54 806.333C3579.54 812.408 3574.62 817.332 3568.54 817.332 3562.47 817.332 3557.54 812.408 3557.54 806.333 3557.54 800.258 3562.47 795.333 3568.54 795.333 3574.62 795.333 3579.54 800.258 3579.54 806.333Z" stroke="#002060" stroke-width="3.4375" stroke-linecap="butt" stroke-linejoin="round" stroke-miterlimit="10" stroke-opacity="1" fill="#002060" fill-rule="nonzero" fill-opacity="1"/><path d="M3709.54 1109.33C3709.54 1115.41 3704.62 1120.33 3698.54 1120.33 3692.47 1120.33 3687.54 1115.41 3687.54 1109.33 3687.54 1103.26 3692.47 1098.33 3698.54 1098.33 3704.62 1098.33 3709.54 1103.26 3709.54 1109.33Z" stroke="#002060" stroke-width="3.4375" stroke-linecap="butt" stroke-linejoin="round" stroke-miterlimit="10" stroke-opacity="1" fill="#002060" fill-rule="nonzero" fill-opacity="1"/><path d="M3839.54 814.333C3839.54 820.408 3834.62 825.333 3828.54 825.333 3822.47 825.333 3817.54 820.408 3817.54 814.333 3817.54 808.258 3822.47 803.333 3828.54 803.333 3834.62 803.333 3839.54 808.258 3839.54 814.333Z" stroke="#002060" stroke-width="3.4375" stroke-linecap="butt" stroke-linejoin="round" stroke-miterlimit="10" stroke-opacity="1" fill="#002060" fill-rule="nonzero" fill-opacity="1"/><path d="M3968.54 917.333C3968.54 923.408 3963.62 928.332 3957.54 928.332 3951.47 928.332 3946.54 923.408 3946.54 917.333 3946.54 911.258 3951.47 906.333 3957.54 906.333 3963.62 906.333 3968.54 911.258 3968.54 917.333Z" stroke="#002060" stroke-width="3.4375" stroke-linecap="butt" stroke-linejoin="round" stroke-miterlimit="10" stroke-opacity="1" fill="#002060" fill-rule="nonzero" fill-opacity="1"/><path d="M4098.54 848.333C4098.54 854.408 4093.62 859.332 4087.54 859.332 4081.47 859.332 4076.54 854.408 4076.54 848.333 4076.54 842.258 4081.47 837.333 4087.54 837.333 4093.62 837.333 4098.54 842.258 4098.54 848.333Z" stroke="#002060" stroke-width="3.4375" stroke-linecap="butt" stroke-linejoin="round" stroke-miterlimit="10" stroke-opacity="1" fill="#002060" fill-rule="nonzero" fill-opacity="1"/><path d="M4228.54 792.333C4228.54 798.408 4223.62 803.333 4217.54 803.333 4211.47 803.333 4206.54 798.408 4206.54 792.333 4206.54 786.258 4211.47 781.333 4217.54 781.333 4223.62 781.333 4228.54 786.258 4228.54 792.333Z" stroke="#002060" stroke-width="3.4375" stroke-linecap="butt" stroke-linejoin="round" stroke-miterlimit="10" stroke-opacity="1" fill="#002060" fill-rule="nonzero" fill-opacity="1"/><path d="M4358.54 705.333C4358.54 711.408 4353.62 716.332 4347.54 716.332 4341.47 716.332 4336.54 711.408 4336.54 705.333 4336.54 699.258 4341.47 694.333 4347.54 694.333 4353.62 694.333 4358.54 699.258 4358.54 705.333Z" stroke="#002060" stroke-width="3.4375" stroke-linecap="butt" stroke-linejoin="round" stroke-miterlimit="10" stroke-opacity="1" fill="#002060" fill-rule="nonzero" fill-opacity="1"/><path d="M4488.54 821.333C4488.54 827.408 4483.62 832.333 4477.54 832.333 4471.47 832.333 4466.54 827.408 4466.54 821.333 4466.54 815.258 4471.47 810.333 4477.54 810.333 4483.62 810.333 4488.54 815.258 4488.54 821.333Z" stroke="#002060" stroke-width="3.4375" stroke-linecap="butt" stroke-linejoin="round" stroke-miterlimit="10" stroke-opacity="1" fill="#002060" fill-rule="nonzero" fill-opacity="1"/><path d="M4618.54 599.333C4618.54 605.408 4613.62 610.333 4607.54 610.333 4601.47 610.333 4596.54 605.408 4596.54 599.333 4596.54 593.258 4601.47 588.333 4607.54 588.333 4613.62 588.333 4618.54 593.258 4618.54 599.333Z" stroke="#002060" stroke-width="3.4375" stroke-linecap="butt" stroke-linejoin="round" stroke-miterlimit="10" stroke-opacity="1" fill="#002060" fill-rule="nonzero" fill-opacity="1"/><path d="M4748.54 779.333C4748.54 785.408 4743.62 790.333 4737.54 790.333 4731.47 790.333 4726.54 785.408 4726.54 779.333 4726.54 773.258 4731.47 768.333 4737.54 768.333 4743.62 768.333 4748.54 773.258 4748.54 779.333Z" stroke="#002060" stroke-width="3.4375" stroke-linecap="butt" stroke-linejoin="round" stroke-miterlimit="10" stroke-opacity="1" fill="#002060" fill-rule="nonzero" fill-opacity="1"/><path d="M4878.54 556.333C4878.54 562.408 4873.62 567.333 4867.54 567.333 4861.47 567.333 4856.54 562.408 4856.54 556.333 4856.54 550.258 4861.47 545.333 4867.54 545.333 4873.62 545.333 4878.54 550.258 4878.54 556.333Z" stroke="#002060" stroke-width="3.4375" stroke-linecap="butt" stroke-linejoin="round" stroke-miterlimit="10" stroke-opacity="1" fill="#002060" fill-rule="nonzero" fill-opacity="1"/><path d="M5008.54 785.333C5008.54 791.408 5003.62 796.332 4997.54 796.332 4991.47 796.332 4986.54 791.408 4986.54 785.333 4986.54 779.258 4991.47 774.333 4997.54 774.333 5003.62 774.333 5008.54 779.258 5008.54 785.333Z" stroke="#002060" stroke-width="3.4375" stroke-linecap="butt" stroke-linejoin="round" stroke-miterlimit="10" stroke-opacity="1" fill="#002060" fill-rule="nonzero" fill-opacity="1"/></g><g clip-path="url(#clip4)"><path d="M0.479717-3.40386 0.486524-3.4029C2.36643-3.13796 3.67561-1.39923 3.41067 0.480676 3.14573 2.36058 1.40699 3.66976-0.472909 3.40482L-0.479717 3.40386C-2.35962 3.13892-3.6688 1.40018-3.40386-0.479717-3.13892-2.35962-1.40018-3.6688 0.479717-3.40386ZM14.102-1.48403 14.1088-1.48307C15.9887-1.21811 17.2979 0.520645 17.0329 2.40054 16.768 4.28044 15.0292 5.58961 13.1493 5.32464L13.1425 5.32368C11.2626 5.05872 9.95344 3.31997 10.2184 1.44007 10.4834-0.439829 12.2221-1.74899 14.102-1.48403ZM27.7241 0.435771 27.7309 0.43673C29.6108 0.701592 30.9201 2.44027 30.6552 4.32019 30.3903 6.2001 28.6517 7.50936 26.7717 7.24449L26.7649 7.24354C24.885 6.97867 23.5758 5.23999 23.8406 3.36008 24.1055 1.48017 25.8442 0.170909 27.7241 0.435771ZM41.3463 2.3556 41.3531 2.35656C43.2331 2.62142 44.5423 4.3601 44.2775 6.24001 44.0126 8.11993 42.2739 9.42918 40.394 9.16432L40.3872 9.16336C38.5073 8.8985 37.198 7.15982 37.4629 5.27991 37.7277 3.39999 39.4664 2.09074 41.3463 2.3556ZM54.9688 4.27545 54.9756 4.27641C56.8555 4.54138 58.1647 6.28014 57.8997 8.16003 57.6347 10.0399 55.896 11.3491 54.0161 11.0841L54.0093 11.0832C52.1294 10.8182 50.8202 9.07943 51.0852 7.19954 51.3501 5.31964 53.0889 4.01048 54.9688 4.27545ZM68.591 6.19528 68.5978 6.19624C70.4778 6.46121 71.7869 8.19996 71.5219 10.0799 71.257 11.9598 69.5182 13.2689 67.6383 13.0039L67.6315 13.003C65.7516 12.738 64.4425 10.9993 64.7074 9.11936 64.9724 7.23947 66.7112 5.93031 68.591 6.19528ZM82.2133 8.1151 82.2201 8.11606C84.1 8.38103 85.4092 10.1198 85.1442 11.9997 84.8792 13.8796 83.1405 15.1887 81.2606 14.9238L81.2538 14.9228C79.3739 14.6578 78.0647 12.9191 78.3297 11.0392 78.5947 9.15929 80.3334 7.85013 82.2133 8.1151ZM95.8355 10.0349 95.8423 10.0359C97.7222 10.3008 99.0314 12.0396 98.7665 13.9195 98.5015 15.7994 96.7628 17.1085 94.8829 16.8436L94.8761 16.8426C92.9962 16.5777 91.687 14.839 91.9519 12.9591 92.2169 11.0792 93.9556 9.76998 95.8355 10.0349ZM109.458 11.9547 109.465 11.9557C111.344 12.2207 112.654 13.9594 112.389 15.8393 112.124 17.7192 110.385 19.0284 108.505 18.7634L108.498 18.7625C106.618 18.4975 105.309 16.7588 105.574 14.8789 105.839 12.999 107.578 11.6898 109.458 11.9547ZM123.08 13.8746 123.087 13.8755C124.967 14.1405 126.276 15.8792 126.011 17.7591 125.746 19.639 124.007 20.9482 122.127 20.6833L122.121 20.6823C120.241 20.4174 118.931 18.6786 119.196 16.7987 119.461 14.9188 121.2 13.6096 123.08 13.8746ZM136.702 15.7944 136.709 15.7954C138.589 16.0603 139.898 17.799 139.633 19.6789 139.368 21.5588 137.63 22.868 135.75 22.6031L135.743 22.6021C133.863 22.3372 132.554 20.5984 132.819 18.7185 133.084 16.8386 134.822 15.5295 136.702 15.7944ZM150.325 17.7142 150.331 17.7152C152.211 17.9801 153.52 19.7189 153.255 21.5988 152.991 23.4787 151.252 24.7879 149.372 24.5229L149.365 24.5219C147.485 24.257 146.176 22.5183 146.441 20.6384 146.706 18.7585 148.445 17.4493 150.325 17.7142ZM163.947 19.6341 163.954 19.635C165.833 19.9 167.143 21.6387 166.878 23.5186 166.613 25.3985 164.874 26.7077 162.994 26.4427L162.987 26.4418C161.107 26.1768 159.798 24.4381 160.063 22.5582 160.328 20.6783 162.067 19.3691 163.947 19.6341ZM177.568 21.5538 177.575 21.5547C179.455 21.8193 180.765 23.5578 180.5 25.4377 180.236 27.3177 178.497 28.6272 176.617 28.3627L176.61 28.3617C174.73 28.0971 173.421 26.3587 173.685 24.4787 173.95 22.5988 175.688 21.2892 177.568 21.5538ZM191.191 23.4736 191.197 23.4746C193.077 23.7391 194.387 25.4776 194.122 27.3576 193.858 29.2375 192.119 30.547 190.239 30.2825L190.233 30.2815C188.353 30.017 187.043 28.2785 187.308 26.3985 187.572 24.5186 189.311 23.209 191.191 23.4736ZM204.813 25.3934 204.82 25.3944C206.7 25.659 208.009 27.3974 207.745 29.2774 207.48 31.1573 205.742 32.4669 203.862 32.2023L203.855 32.2014C201.975 31.9368 200.665 30.1983 200.93 28.3184 201.194 26.4384 202.933 25.1289 204.813 25.3934ZM218.435 27.3133 218.442 27.3142C220.322 27.5788 221.631 29.3173 221.367 31.1972 221.102 33.0772 219.364 34.3867 217.484 34.1221L217.477 34.1212C215.597 33.8566 214.288 32.1181 214.552 30.2382 214.817 28.3582 216.555 27.0487 218.435 27.3133ZM232.057 29.2331 232.064 29.234C233.944 29.4986 235.254 31.2371 234.989 33.117 234.725 34.997 232.986 36.3065 231.106 36.042L231.099 36.041C229.219 35.7764 227.91 34.038 228.174 32.158 228.439 30.2781 230.177 28.9685 232.057 29.2331ZM245.68 31.1529 245.686 31.1539C247.566 31.4184 248.876 33.1569 248.611 35.0369 248.347 36.9168 246.608 38.2264 244.728 37.9618L244.722 37.9608C242.842 37.6963 241.532 35.9578 241.797 34.0778 242.061 32.1979 243.8 30.8884 245.68 31.1529ZM259.302 33.0727 259.309 33.0737C261.189 33.3383 262.498 35.0767 262.234 36.9567 261.969 38.8366 260.231 40.1462 258.351 39.8816L258.344 39.8807C256.464 39.6161 255.154 37.8776 255.419 35.9977 255.684 34.1177 257.422 32.8082 259.302 33.0727ZM272.924 34.9926 272.931 34.9935C274.811 35.2581 276.121 36.9966 275.856 38.8765 275.591 40.7565 273.853 42.066 271.973 41.8014L271.966 41.8005C270.086 41.5359 268.777 39.7974 269.041 37.9175 269.306 36.0375 271.044 34.728 272.924 34.9926ZM286.546 36.9124 286.553 36.9134C288.433 37.1779 289.743 38.9164 289.478 40.7963 289.214 42.6763 287.475 43.9858 285.595 43.7213L285.588 43.7203C283.708 43.4557 282.399 41.7173 282.663 39.8373 282.928 37.9574 284.667 36.6478 286.546 36.9124ZM300.169 38.8322 300.176 38.8332C302.055 39.0977 303.365 40.8362 303.1 42.7162 302.836 44.5961 301.097 45.9057 299.217 45.6411L299.211 45.6401C297.331 45.3756 296.021 43.6371 296.286 41.7571 296.55 39.8772 298.289 38.5677 300.169 38.8322ZM313.791 40.752 313.798 40.753C315.678 41.0176 316.987 42.756 316.723 44.636 316.458 46.5159 314.72 47.8255 312.84 47.5609L312.833 47.56C310.953 47.2954 309.643 45.5569 309.908 43.677 310.173 41.797 311.911 40.4875 313.791 40.752ZM327.413 42.6719 327.42 42.6728C329.3 42.9374 330.61 44.6759 330.345 46.5558 330.08 48.4358 328.342 49.7453 326.462 49.4807L326.455 49.4798C324.575 49.2152 323.266 47.4768 323.53 45.5968 323.795 43.7168 325.533 42.4073 327.413 42.6719ZM341.035 44.5917 341.042 44.5927C342.922 44.8572 344.232 46.5957 343.967 48.4756 343.703 50.3556 341.964 51.6651 340.084 51.4006L340.077 51.3996C338.197 51.1351 336.888 49.3966 337.152 47.5166 337.417 45.6367 339.156 44.3271 341.035 44.5917ZM354.658 46.5115 354.665 46.5125C356.545 46.777 357.854 48.5155 357.589 50.3955 357.325 52.2754 355.586 53.585 353.706 53.3204L353.7 53.3194C351.82 53.0549 350.51 51.3164 350.775 49.4364 351.039 47.5565 352.778 46.247 354.658 46.5115ZM368.28 48.4313 368.287 48.4323C370.167 48.6969 371.476 50.4353 371.212 52.3153 370.947 54.1952 369.209 55.5048 367.329 55.2402L367.322 55.2393C365.442 54.9747 364.132 53.2362 364.397 51.3563 364.662 49.4763 366.4 48.1668 368.28 48.4313ZM381.902 50.3512 381.909 50.3521C383.789 50.6167 385.099 52.3552 384.834 54.2351 384.569 56.1151 382.831 57.4246 380.951 57.16L380.944 57.1591C379.064 56.8945 377.755 55.156 378.019 53.2761 378.284 51.3961 380.022 50.0866 381.902 50.3512ZM395.525 52.271 395.531 52.2719C397.411 52.5365 398.721 54.275 398.456 56.1549 398.192 58.0349 396.453 59.3444 394.573 59.0799L394.566 59.0789C392.687 58.8143 391.377 57.0759 391.642 55.1959 391.906 53.316 393.645 52.0064 395.525 52.271ZM409.147 54.1908 409.154 54.1918C411.034 54.4563 412.343 56.1948 412.078 58.0748 411.814 59.9547 410.075 61.2643 408.195 60.9997L408.189 60.9987C406.309 60.7342 404.999 58.9957 405.264 57.1157 405.528 55.2358 407.267 53.9263 409.147 54.1908ZM422.769 56.1106 422.776 56.1116C424.656 56.3762 425.965 58.1146 425.701 59.9946 425.436 61.8745 423.698 63.1841 421.818 62.9195L421.811 62.9186C419.931 62.654 418.621 60.9155 418.886 59.0356 419.151 57.1556 420.889 55.8461 422.769 56.1106ZM436.391 58.0305 436.398 58.0314C438.278 58.296 439.588 60.0345 439.323 61.9144 439.058 63.7944 437.32 65.1039 435.44 64.8393L435.433 64.8384C433.553 64.5738 432.244 62.8353 432.508 60.9554 432.773 59.0754 434.511 57.7659 436.391 58.0305ZM450.013 59.9503 450.02 59.9512C451.9 60.2158 453.21 61.9543 452.945 63.8342 452.681 65.7142 450.942 67.0237 449.062 66.7592L449.055 66.7582C447.175 66.4936 445.866 64.7552 446.131 62.8752 446.395 60.9953 448.134 59.6857 450.013 59.9503ZM463.636 61.8701 463.643 61.8711C465.522 62.1356 466.832 63.8741 466.567 65.7541 466.303 67.634 464.564 68.9435 462.684 68.679L462.678 68.678C460.798 68.4135 459.488 66.675 459.753 64.795 460.017 62.9151 461.756 61.6055 463.636 61.8701ZM477.258 63.7899 477.265 63.7909C479.145 64.0555 480.454 65.7939 480.19 67.6739 479.925 69.5538 478.187 70.8634 476.307 70.5988L476.3 70.5978C474.42 70.3333 473.11 68.5948 473.375 66.7149 473.64 64.8349 475.378 63.5254 477.258 63.7899ZM490.88 65.7098 490.887 65.7107C492.767 65.9753 494.077 67.7137 493.812 69.5937 493.547 71.4737 491.809 72.7832 489.929 72.5186L489.922 72.5177C488.042 72.2531 486.733 70.5146 486.997 68.6347 487.262 66.7547 489 65.4452 490.88 65.7098ZM504.502 67.6296 504.509 67.6305C506.389 67.8951 507.699 69.6336 507.434 71.5135 507.17 73.3935 505.431 74.703 503.551 74.4385L503.544 74.4375C501.664 74.1729 500.355 72.4345 500.62 70.5545 500.884 68.6745 502.622 67.365 504.502 67.6296ZM518.125 69.5494 518.132 69.5504C520.011 69.8149 521.321 71.5534 521.056 73.4333 520.792 75.3133 519.053 76.6228 517.173 76.3583L517.167 76.3573C515.287 76.0928 513.977 74.3543 514.242 72.4743 514.506 70.5944 516.245 69.2848 518.125 69.5494ZM531.747 71.4692 531.754 71.4702C533.634 71.7347 534.943 73.4732 534.679 75.3532 534.414 77.2331 532.676 78.5427 530.796 78.2781L530.789 78.2771C528.909 78.0126 527.599 76.2741 527.864 74.3941 528.129 72.5142 529.867 71.2047 531.747 71.4692ZM545.369 73.389 545.376 73.39C547.256 73.6546 548.565 75.393 548.301 77.273 548.036 79.153 546.298 80.4625 544.418 80.1979L544.411 80.197C542.531 79.9324 541.222 78.1939 541.486 76.314 541.751 74.434 543.489 73.1245 545.369 73.389ZM558.991 75.3089 558.998 75.3098C560.878 75.5744 562.188 77.3129 561.923 79.1928 561.659 81.0728 559.92 82.3823 558.04 82.1177L558.033 82.1168C556.153 81.8522 554.844 80.1138 555.108 78.2338 555.373 76.3538 557.111 75.0443 558.991 75.3089ZM572.614 77.2287 572.62 77.2297C574.5 77.4942 575.81 79.2327 575.545 81.1126 575.281 82.9926 573.542 84.3021 571.662 84.0376L571.656 84.0366C569.776 83.772 568.466 82.0336 568.731 80.1536 568.995 78.2737 570.734 76.9641 572.614 77.2287ZM586.236 79.1485 586.243 79.1495C588.123 79.414 589.432 81.1525 589.168 83.0325 588.903 84.9124 587.165 86.222 585.285 85.9574L585.278 85.9564C583.398 85.6919 582.088 83.9534 582.353 82.0734 582.617 80.1935 584.356 78.884 586.236 79.1485ZM599.858 81.0683 599.865 81.0693C601.745 81.3339 603.054 83.0723 602.79 84.9523 602.525 86.8322 600.787 88.1418 598.907 87.8772L598.9 87.8763C597.02 87.6117 595.711 85.8732 595.975 83.9933 596.24 82.1133 597.978 80.8038 599.858 81.0683ZM613.48 82.9882 613.487 82.9891C615.367 83.2537 616.677 84.9922 616.412 86.8721 616.148 88.7521 614.409 90.0616 612.529 89.797L612.522 89.7961C610.642 89.5315 609.333 87.793 609.597 85.9131 609.862 84.0331 611.6 82.7236 613.48 82.9882ZM627.103 84.908 627.109 84.9089C628.989 85.1735 630.299 86.912 630.034 88.7919 629.77 90.6719 628.031 91.9814 626.151 91.7169L626.145 91.7159C624.265 91.4513 622.955 89.7129 623.22 87.8329 623.484 85.953 625.223 84.6434 627.103 84.908ZM640.725 86.8278 640.732 86.8288C642.612 87.0933 643.921 88.8318 643.657 90.7118 643.392 92.5917 641.654 93.9013 639.774 93.6367L639.767 93.6357C637.887 93.3712 636.577 91.6327 636.842 89.7527 637.106 87.8728 638.845 86.5632 640.725 86.8278ZM654.347 88.7476 654.354 88.7486C656.234 89.0132 657.543 90.7516 657.279 92.6316 657.014 94.5115 655.276 95.8211 653.396 95.5565L653.389 95.5555C651.509 95.291 650.2 93.5525 650.464 91.6726 650.729 89.7926 652.467 88.4831 654.347 88.7476ZM667.969 90.6675 667.976 90.6684C669.856 90.933 671.166 92.6715 670.901 94.5514 670.637 96.4314 668.898 97.7409 667.018 97.4763L667.011 97.4754C665.131 97.2108 663.822 95.4723 664.086 93.5924 664.351 91.7124 666.089 90.4029 667.969 90.6675ZM681.592 92.5873 681.598 92.5882C683.478 92.8528 684.788 94.5913 684.523 96.4712 684.259 98.3512 682.52 99.6607 680.64 99.3962L680.634 99.3952C678.754 99.1306 677.444 97.3922 677.709 95.5122 677.973 93.6322 679.712 92.3227 681.592 92.5873ZM695.214 94.5071 695.221 94.5081C697.101 94.7726 698.41 96.5111 698.146 98.3911 697.881 100.271 696.143 101.581 694.263 101.316L694.256 101.315C692.376 101.05 691.066 99.312 691.331 97.432 691.595 95.5521 693.334 94.2425 695.214 94.5071ZM708.836 96.4269 708.843 96.4279C710.723 96.6925 712.032 98.4309 711.768 100.311 711.503 102.191 709.765 103.5 707.885 103.236L707.878 103.235C705.998 102.97 704.689 101.232 704.953 99.3519 705.218 97.4719 706.956 96.1624 708.836 96.4269ZM722.458 98.3467 722.465 98.3477C724.345 98.6123 725.655 100.351 725.39 102.231 725.126 104.111 723.387 105.42 721.507 105.156L721.5 105.155C719.62 104.89 718.311 103.152 718.575 101.272 718.84 99.3917 720.578 98.0822 722.458 98.3467ZM736.081 100.267 736.087 100.268C737.967 100.532 739.277 102.271 739.012 104.151 738.748 106.03 737.009 107.34 735.129 107.075L735.123 107.074C733.243 106.81 731.933 105.071 732.198 103.192 732.462 101.312 734.201 100.002 736.081 100.267ZM749.703 102.186 749.71 102.187C751.59 102.452 752.899 104.19 752.635 106.07 752.37 107.95 750.632 109.26 748.752 108.995L748.745 108.994C746.865 108.73 745.555 106.991 745.82 105.111 746.084 103.231 747.823 101.922 749.703 102.186ZM763.328 104.107 763.335 104.108C765.215 104.374 766.523 106.114 766.256 107.993 765.99 109.873 764.25 111.181 762.371 110.915L762.364 110.914C760.484 110.647 759.176 108.908 759.443 107.028 759.709 105.148 761.449 103.84 763.328 104.107ZM776.951 106.026 776.957 106.027C778.837 106.294 780.145 108.033 779.879 109.913 779.612 111.793 777.873 113.101 775.993 112.834L775.986 112.834C774.107 112.567 772.799 110.828 773.065 108.948 773.331 107.068 775.071 105.76 776.951 106.026ZM790.573 107.946 790.58 107.947C792.459 108.214 793.767 109.953 793.501 111.833 793.235 113.713 791.495 115.021 789.615 114.754L789.608 114.753C787.729 114.487 786.421 112.747 786.687 110.868 786.953 108.988 788.693 107.68 790.573 107.946ZM804.195 109.866 804.202 109.867C806.081 110.133 807.389 111.873 807.123 113.753 806.857 115.632 805.117 116.94 803.237 116.674L803.231 116.673C801.351 116.407 800.043 114.667 800.309 112.787 800.576 110.908 802.315 109.6 804.195 109.866ZM817.817 111.786 817.824 111.787C819.704 112.053 821.012 113.793 820.745 115.673 820.479 117.552 818.739 118.86 816.86 118.594L816.853 118.593C814.973 118.327 813.665 116.587 813.932 114.707 814.198 112.828 815.938 111.52 817.817 111.786ZM831.44 113.706 831.446 113.707C833.326 113.973 834.634 115.713 834.368 117.592 834.101 119.472 832.362 120.78 830.482 120.514L830.475 120.513C828.595 120.247 827.288 118.507 827.554 116.627 827.82 114.747 829.56 113.439 831.44 113.706ZM845.062 115.626 845.068 115.627C846.948 115.893 848.256 117.633 847.99 119.512 847.724 121.392 845.984 122.7 844.104 122.434L844.097 122.433C842.218 122.166 840.91 120.427 841.176 118.547 841.442 116.667 843.182 115.359 845.062 115.626ZM858.684 117.545 858.691 117.546C860.57 117.813 861.878 119.552 861.612 121.432 861.346 123.312 859.606 124.62 857.726 124.353L857.72 124.352C855.84 124.086 854.532 122.346 854.798 120.467 855.065 118.587 856.804 117.279 858.684 117.545ZM872.306 119.465 872.313 119.466C874.193 119.732 875.501 121.472 875.234 123.352 874.968 125.232 873.228 126.54 871.349 126.273L871.342 126.272C869.462 126.006 868.154 124.266 868.421 122.387 868.687 120.507 870.427 119.199 872.306 119.465ZM885.928 121.385 885.935 121.386C887.815 121.652 889.123 123.392 888.857 125.272 888.59 127.151 886.851 128.459 884.971 128.193L884.964 128.192C883.084 127.926 881.776 126.186 882.043 124.306 882.309 122.427 884.049 121.119 885.928 121.385ZM899.551 123.305 899.557 123.306C901.437 123.572 902.745 125.312 902.479 127.192 902.213 129.071 900.473 130.379 898.593 130.113L898.586 130.112C896.707 129.846 895.399 128.106 895.665 126.226 895.931 124.347 897.671 123.039 899.551 123.305ZM913.173 125.225 913.18 125.226C915.059 125.492 916.367 127.232 916.101 129.111 915.835 130.991 914.095 132.299 912.215 132.033L912.209 132.032C910.329 131.765 909.021 130.026 909.287 128.146 909.554 126.266 911.293 124.958 913.173 125.225ZM926.795 127.145 926.802 127.146C928.682 127.412 929.99 129.151 929.723 131.031 929.457 132.911 927.717 134.219 925.838 133.953L925.831 133.952C923.951 133.685 922.643 131.946 922.91 130.066 923.176 128.186 924.915 126.878 926.795 127.145ZM940.417 129.064 940.424 129.065C942.304 129.332 943.612 131.071 943.346 132.951 943.079 134.831 941.34 136.139 939.46 135.872L939.453 135.871C937.573 135.605 936.265 133.865 936.532 131.986 936.798 130.106 938.538 128.798 940.417 129.064ZM954.04 130.984 954.046 130.985C955.926 131.251 957.234 132.991 956.968 134.871 956.702 136.751 954.962 138.058 953.082 137.792L953.075 137.791C951.196 137.525 949.888 135.785 950.154 133.906 950.42 132.026 952.16 130.718 954.04 130.984ZM967.662 132.904 967.669 132.905C969.548 133.171 970.856 134.911 970.59 136.791 970.324 138.67 968.584 139.978 966.704 139.712L966.698 139.711C964.818 139.445 963.51 137.705 963.776 135.825 964.043 133.946 965.782 132.638 967.662 132.904ZM981.284 134.824 981.291 134.825C983.171 135.091 984.479 136.831 984.212 138.71 983.946 140.59 982.206 141.898 980.327 141.632L980.32 141.631C978.44 141.365 977.132 139.625 977.399 137.745 977.665 135.865 979.404 134.558 981.284 134.824ZM994.906 136.744 994.913 136.745C996.793 137.011 998.101 138.751 997.835 140.63 997.568 142.51 995.829 143.818 993.949 143.552L993.942 143.551C992.062 143.284 990.754 141.545 991.021 139.665 991.287 137.785 993.027 136.477 994.906 136.744ZM1008.53 138.663 1008.54 138.664C1010.42 138.931 1011.72 140.67 1011.46 142.55 1011.19 144.43 1009.45 145.738 1007.57 145.471L1007.56 145.471C1005.68 145.204 1004.38 143.465 1004.64 141.585 1004.91 139.705 1006.65 138.397 1008.53 138.663ZM1022.15 140.583 1022.16 140.584C1024.04 140.851 1025.35 142.59 1025.08 144.47 1024.81 146.35 1023.07 147.658 1021.19 147.391L1021.19 147.39C1019.31 147.124 1018 145.384 1018.27 143.505 1018.53 141.625 1020.27 140.317 1022.15 140.583ZM1035.77 142.503 1035.78 142.504C1037.66 142.77 1038.97 144.51 1038.7 146.39 1038.44 148.269 1036.7 149.577 1034.82 149.311L1034.81 149.31C1032.93 149.044 1031.62 147.304 1031.89 145.424 1032.15 143.545 1033.89 142.237 1035.77 142.503ZM1049.4 144.423 1049.4 144.424C1051.28 144.69 1052.59 146.43 1052.32 148.31 1052.06 150.189 1050.32 151.497 1048.44 151.231L1048.43 151.23C1046.55 150.964 1045.24 149.224 1045.51 147.344 1045.78 145.465 1047.52 144.157 1049.4 144.423ZM1063.02 146.343 1063.02 146.344C1064.9 146.61 1066.21 148.35 1065.95 150.229 1065.68 152.109 1063.94 153.417 1062.06 153.151L1062.05 153.15C1060.17 152.884 1058.87 151.144 1059.13 149.264 1059.4 147.384 1061.14 146.076 1063.02 146.343ZM1076.64 148.263 1076.65 148.264C1078.53 148.53 1079.83 150.27 1079.57 152.149 1079.3 154.029 1077.56 155.337 1075.68 155.071L1075.68 155.07C1073.8 154.803 1072.49 153.064 1072.75 151.184 1073.02 149.304 1074.76 147.996 1076.64 148.263ZM1090.26 150.182 1090.27 150.183C1092.15 150.45 1093.46 152.189 1093.19 154.069 1092.92 155.949 1091.18 157.257 1089.3 156.99L1089.3 156.989C1087.42 156.723 1086.11 154.983 1086.38 153.104 1086.64 151.224 1088.38 149.916 1090.26 150.182ZM1103.88 152.102 1103.89 152.103C1105.77 152.369 1107.08 154.109 1106.81 155.989 1106.55 157.869 1104.81 159.177 1102.93 158.91L1102.92 158.909C1101.04 158.643 1099.73 156.903 1100 155.024 1100.27 153.144 1102 151.836 1103.88 152.102ZM1117.51 154.022 1117.51 154.023C1119.39 154.289 1120.7 156.029 1120.43 157.909 1120.17 159.788 1118.43 161.096 1116.55 160.83L1116.54 160.829C1114.66 160.563 1113.35 158.823 1113.62 156.943 1113.89 155.064 1115.63 153.756 1117.51 154.022ZM1131.13 155.942 1131.14 155.943C1133.02 156.209 1134.32 157.949 1134.06 159.829 1133.79 161.708 1132.05 163.016 1130.17 162.75L1130.16 162.749C1128.28 162.483 1126.98 160.743 1127.24 158.863 1127.51 156.984 1129.25 155.676 1131.13 155.942ZM1144.75 157.862 1144.76 157.863C1146.64 158.129 1147.95 159.869 1147.68 161.748 1147.41 163.628 1145.67 164.936 1143.79 164.67L1143.79 164.669C1141.91 164.402 1140.6 162.663 1140.87 160.783 1141.13 158.903 1142.87 157.595 1144.75 157.862ZM1158.37 159.782 1158.38 159.783C1160.26 160.049 1161.57 161.788 1161.3 163.668 1161.04 165.548 1159.3 166.856 1157.42 166.59L1157.41 166.589C1155.53 166.322 1154.22 164.583 1154.49 162.703 1154.75 160.823 1156.49 159.515 1158.37 159.782ZM1172 161.701 1172 161.702C1173.88 161.969 1175.19 163.708 1174.92 165.588 1174.66 167.468 1172.92 168.776 1171.04 168.509L1171.03 168.508C1169.15 168.242 1167.84 166.502 1168.11 164.623 1168.38 162.743 1170.12 161.435 1172 161.701ZM1185.62 163.621 1185.62 163.622C1187.5 163.888 1188.81 165.628 1188.55 167.508 1188.28 169.388 1186.54 170.695 1184.66 170.429L1184.65 170.428C1182.77 170.162 1181.47 168.422 1181.73 166.543 1182 164.663 1183.74 163.355 1185.62 163.621ZM1199.24 165.541 1199.25 165.542C1201.13 165.808 1202.43 167.548 1202.17 169.428 1201.9 171.307 1200.16 172.615 1198.28 172.349L1198.28 172.348C1196.4 172.082 1195.09 170.342 1195.35 168.462 1195.62 166.583 1197.36 165.275 1199.24 165.541ZM1212.86 167.461 1212.87 167.462C1214.75 167.728 1216.06 169.468 1215.79 171.347 1215.52 173.227 1213.78 174.535 1211.9 174.269L1211.9 174.268C1210.02 174.002 1208.71 172.262 1208.98 170.382 1209.24 168.502 1210.98 167.195 1212.86 167.461ZM1226.48 169.381 1226.49 169.382C1228.37 169.648 1229.68 171.388 1229.41 173.267 1229.15 175.147 1227.41 176.455 1225.53 176.189L1225.52 176.188C1223.64 175.921 1222.33 174.182 1222.6 172.302 1222.87 170.422 1224.6 169.114 1226.48 169.381ZM1240.11 171.3 1240.11 171.301C1241.99 171.568 1243.3 173.307 1243.03 175.187 1242.77 177.067 1241.03 178.375 1239.15 178.108L1239.14 178.108C1237.26 177.841 1235.95 176.102 1236.22 174.222 1236.49 172.342 1238.23 171.034 1240.11 171.3ZM1253.73 173.22 1253.74 173.221C1255.62 173.488 1256.92 175.227 1256.66 177.107 1256.39 178.987 1254.65 180.295 1252.77 180.028L1252.76 180.027C1250.89 179.761 1249.58 178.021 1249.84 176.142 1250.11 174.262 1251.85 172.954 1253.73 173.22ZM1267.35 175.14 1267.36 175.141C1269.24 175.407 1270.55 177.147 1270.28 179.027 1270.01 180.906 1268.27 182.214 1266.39 181.948L1266.39 181.947C1264.51 181.681 1263.2 179.941 1263.47 178.061 1263.73 176.182 1265.47 174.874 1267.35 175.14ZM1280.97 177.06 1280.98 177.061C1282.86 177.327 1284.17 179.067 1283.9 180.947 1283.64 182.826 1281.9 184.134 1280.02 183.868L1280.01 183.867C1278.13 183.601 1276.82 181.861 1277.09 179.981 1277.35 178.102 1279.09 176.794 1280.97 177.06ZM1294.6 178.98 1294.6 178.981C1296.48 179.247 1297.79 180.987 1297.52 182.866 1297.26 184.746 1295.52 186.054 1293.64 185.788L1293.63 185.787C1291.75 185.521 1290.44 183.781 1290.71 181.901 1290.98 180.021 1292.72 178.713 1294.6 178.98ZM1308.22 180.9 1308.22 180.901C1310.1 181.167 1311.41 182.907 1311.15 184.786 1310.88 186.666 1309.14 187.974 1307.26 187.708L1307.25 187.707C1305.37 187.44 1304.07 185.701 1304.33 183.821 1304.6 181.941 1306.34 180.633 1308.22 180.9ZM1321.84 182.819 1321.85 182.82C1323.73 183.087 1325.03 184.826 1324.77 186.706 1324.5 188.586 1322.76 189.894 1320.88 189.627L1320.88 189.626C1319 189.36 1317.69 187.62 1317.95 185.741 1318.22 183.861 1319.96 182.553 1321.84 182.819ZM1335.46 184.739 1335.47 184.74C1337.35 185.007 1338.66 186.746 1338.39 188.626 1338.12 190.506 1336.38 191.814 1334.5 191.547L1334.5 191.546C1332.62 191.28 1331.31 189.54 1331.58 187.661 1331.84 185.781 1333.58 184.473 1335.46 184.739ZM1349.09 186.66 1349.1 186.661C1350.98 186.93 1352.28 188.672 1352.01 190.551 1351.74 192.431 1350 193.736 1348.12 193.466L1348.11 193.465C1346.24 193.196 1344.93 191.454 1345.2 189.575 1345.47 187.696 1347.21 186.391 1349.09 186.66ZM1362.71 188.58 1362.72 188.581C1364.6 188.85 1365.9 190.592 1365.63 192.471 1365.36 194.35 1363.62 195.655 1361.74 195.386L1361.74 195.385C1359.86 195.116 1358.55 193.374 1358.82 191.495 1359.09 189.615 1360.83 188.31 1362.71 188.58ZM1376.33 190.5 1376.34 190.501C1378.22 190.77 1379.53 192.512 1379.26 194.391 1378.99 196.27 1377.25 197.575 1375.37 197.306L1375.36 197.305C1373.48 197.036 1372.17 195.294 1372.44 193.415 1372.71 191.535 1374.46 190.23 1376.33 190.5ZM1389.96 192.419 1389.96 192.42C1391.84 192.69 1393.15 194.432 1392.88 196.311 1392.61 198.19 1390.87 199.495 1388.99 199.226L1388.98 199.225C1387.1 198.955 1385.8 197.214 1386.07 195.334 1386.34 193.455 1388.08 192.15 1389.96 192.419ZM1403.58 194.339 1403.59 194.34C1405.47 194.61 1406.77 196.351 1406.5 198.231 1406.23 200.11 1404.49 201.415 1402.61 201.146L1402.6 201.145C1400.72 200.875 1399.42 199.133 1399.69 197.254 1399.96 195.375 1401.7 194.07 1403.58 194.339ZM1417.2 196.259 1417.21 196.26C1419.09 196.529 1420.39 198.271 1420.12 200.15 1419.85 202.03 1418.11 203.335 1416.23 203.065L1416.23 203.064C1414.35 202.795 1413.04 201.053 1413.31 199.174 1413.58 197.295 1415.32 195.99 1417.2 196.259ZM1430.82 198.179 1430.83 198.18C1432.71 198.449 1434.01 200.191 1433.75 202.07 1433.48 203.95 1431.73 205.255 1429.85 204.985L1429.85 204.984C1427.97 204.715 1426.66 202.973 1426.93 201.094 1427.2 199.215 1428.94 197.91 1430.82 198.179ZM1444.45 200.099 1444.45 200.1C1446.33 200.369 1447.64 202.111 1447.37 203.99 1447.1 205.869 1445.36 207.174 1443.48 206.905L1443.47 206.904C1441.59 206.635 1440.29 204.893 1440.56 203.014 1440.82 201.134 1442.57 199.829 1444.45 200.099ZM1458.07 202.019 1458.07 202.02C1459.95 202.289 1461.26 204.031 1460.99 205.91 1460.72 207.789 1458.98 209.094 1457.1 208.825L1457.09 208.824C1455.21 208.555 1453.91 206.813 1454.18 204.934 1454.45 203.054 1456.19 201.749 1458.07 202.019ZM1471.69 203.938 1471.7 203.939C1473.58 204.209 1474.88 205.951 1474.61 207.83 1474.34 209.709 1472.6 211.014 1470.72 210.745L1470.71 210.744C1468.84 210.474 1467.53 208.733 1467.8 206.853 1468.07 204.974 1469.81 203.669 1471.69 203.938ZM1485.31 205.858 1485.32 205.859C1487.2 206.129 1488.5 207.87 1488.23 209.75 1487.96 211.629 1486.22 212.934 1484.34 212.665L1484.34 212.664C1482.46 212.394 1481.15 210.652 1481.42 208.773 1481.69 206.894 1483.43 205.589 1485.31 205.858ZM1498.93 207.778 1498.94 207.779C1500.82 208.048 1502.13 209.79 1501.86 211.669 1501.59 213.549 1499.85 214.854 1497.97 214.584L1497.96 214.583C1496.08 214.314 1494.77 212.572 1495.04 210.693 1495.31 208.814 1497.06 207.509 1498.93 207.778ZM1512.56 209.698 1512.56 209.699C1514.44 209.968 1515.75 211.71 1515.48 213.589 1515.21 215.469 1513.47 216.774 1511.59 216.504L1511.58 216.503C1509.7 216.234 1508.4 214.492 1508.67 212.613 1508.94 210.734 1510.68 209.429 1512.56 209.698ZM1526.17 211.617 1526.18 211.618C1528.06 211.884 1529.37 213.623 1529.1 215.503 1528.84 217.383 1527.1 218.691 1525.22 218.425L1525.21 218.424C1523.33 218.158 1522.02 216.419 1522.29 214.539 1522.55 212.659 1524.29 211.351 1526.17 211.617ZM1539.8 213.537 1539.8 213.538C1541.68 213.804 1542.99 215.543 1542.72 217.423 1542.46 219.302 1540.72 220.611 1538.84 220.345L1538.83 220.344C1536.95 220.078 1535.64 218.339 1535.91 216.459 1536.18 214.579 1537.92 213.271 1539.8 213.537ZM1553.42 215.456 1553.42 215.457C1555.3 215.723 1556.61 217.463 1556.35 219.343 1556.08 221.222 1554.34 222.531 1552.46 222.265L1552.45 222.264C1550.57 221.998 1549.27 220.258 1549.53 218.379 1549.8 216.499 1551.54 215.191 1553.42 215.456ZM1567.04 217.376 1567.05 217.377C1568.93 217.643 1570.23 219.383 1569.97 221.262 1569.7 223.142 1567.96 224.45 1566.08 224.185L1566.08 224.184C1564.2 223.918 1562.89 222.178 1563.15 220.299 1563.42 218.419 1565.16 217.11 1567.04 217.376ZM1580.66 219.296 1580.67 219.297C1582.55 219.563 1583.86 221.302 1583.59 223.182 1583.32 225.062 1581.59 226.37 1579.71 226.104L1579.7 226.103C1577.82 225.838 1576.51 224.098 1576.78 222.218 1577.04 220.339 1578.78 219.03 1580.66 219.296ZM1594.28 221.216 1594.29 221.217C1596.17 221.483 1597.48 223.222 1597.21 225.102 1596.95 226.982 1595.21 228.29 1593.33 228.024L1593.32 228.023C1591.44 227.757 1590.13 226.018 1590.4 224.138 1590.66 222.258 1592.4 220.95 1594.28 221.216ZM1607.91 223.136 1607.91 223.137C1609.79 223.403 1611.1 225.142 1610.84 227.022 1610.57 228.902 1608.83 230.21 1606.95 229.944L1606.94 229.943C1605.06 229.677 1603.76 227.938 1604.02 226.058 1604.29 224.178 1606.03 222.87 1607.91 223.136ZM1621.53 225.056 1621.54 225.057C1623.42 225.323 1624.72 227.062 1624.46 228.942 1624.19 230.821 1622.45 232.13 1620.57 231.864L1620.57 231.863C1618.69 231.597 1617.38 229.858 1617.64 227.978 1617.91 226.098 1619.65 224.79 1621.53 225.056ZM1635.15 226.976 1635.16 226.976C1637.04 227.242 1638.35 228.982 1638.08 230.862 1637.81 232.741 1636.07 234.05 1634.19 233.784L1634.19 233.783C1632.31 233.517 1631 231.777 1631.27 229.898 1631.53 228.018 1633.27 226.71 1635.15 226.976ZM1648.77 228.895 1648.78 228.896C1650.66 229.162 1651.97 230.902 1651.7 232.781 1651.44 234.661 1649.7 235.969 1647.82 235.704L1647.81 235.703C1645.93 235.437 1644.62 233.697 1644.89 231.818 1645.15 229.938 1646.89 228.629 1648.77 228.895ZM1662.4 230.815 1662.4 230.816C1664.28 231.082 1665.59 232.821 1665.32 234.701 1665.06 236.581 1663.32 237.889 1661.44 237.623L1661.43 237.622C1659.55 237.357 1658.24 235.617 1658.51 233.737 1658.78 231.858 1660.52 230.549 1662.4 230.815ZM1676.02 232.735 1676.02 232.736C1677.9 233.002 1679.21 234.741 1678.95 236.621 1678.68 238.501 1676.94 239.809 1675.06 239.543L1675.05 239.542C1673.17 239.276 1671.87 237.537 1672.13 235.657 1672.4 233.777 1674.14 232.469 1676.02 232.735ZM1689.64 234.655 1689.65 234.656C1691.53 234.922 1692.83 236.661 1692.57 238.541 1692.3 240.421 1690.56 241.729 1688.68 241.463L1688.68 241.462C1686.8 241.196 1685.49 239.457 1685.75 237.577 1686.02 235.697 1687.76 234.389 1689.64 234.655ZM1703.26 236.575 1703.27 236.576C1705.15 236.842 1706.46 238.581 1706.19 240.461 1705.93 242.34 1704.19 243.649 1702.31 243.383L1702.3 243.382C1700.42 243.116 1699.11 241.377 1699.38 239.497 1699.64 237.617 1701.38 236.309 1703.26 236.575ZM1716.88 238.495 1716.89 238.495C1718.77 238.761 1720.08 240.501 1719.81 242.381 1719.55 244.26 1717.81 245.569 1715.93 245.303L1715.92 245.302C1714.04 245.036 1712.73 243.296 1713 241.417 1713.27 239.537 1715 238.229 1716.88 238.495ZM1730.51 240.414 1730.51 240.415C1732.39 240.681 1733.7 242.421 1733.44 244.3 1733.17 246.18 1731.43 247.488 1729.55 247.223L1729.54 247.222C1727.66 246.956 1726.36 245.216 1726.62 243.337 1726.89 241.457 1728.63 240.148 1730.51 240.414ZM1744.13 242.334 1744.14 242.335C1746.02 242.601 1747.32 244.34 1747.06 246.22 1746.79 248.1 1745.05 249.408 1743.17 249.142L1743.17 249.141C1741.29 248.876 1739.98 247.136 1740.24 245.256 1740.51 243.377 1742.25 242.068 1744.13 242.334ZM1757.75 244.254 1757.76 244.255C1759.64 244.521 1760.95 246.26 1760.68 248.14 1760.41 250.02 1758.67 251.328 1756.79 251.062L1756.79 251.061C1754.91 250.795 1753.6 249.056 1753.87 247.176 1754.13 245.296 1755.87 243.988 1757.75 244.254ZM1771.37 246.174 1771.38 246.175C1773.26 246.441 1774.57 248.18 1774.3 250.06 1774.04 251.94 1772.3 253.248 1770.42 252.982L1770.41 252.981C1768.53 252.715 1767.22 250.976 1767.49 249.096 1767.75 247.216 1769.49 245.908 1771.37 246.174ZM1785 248.094 1785 248.095C1786.88 248.36 1788.19 250.1 1787.92 251.98 1787.66 253.859 1785.92 255.168 1784.04 254.902L1784.03 254.901C1782.15 254.635 1780.84 252.896 1781.11 251.016 1781.38 249.136 1783.12 247.828 1785 248.094ZM1798.62 250.013 1798.62 250.014C1800.5 250.28 1801.81 252.02 1801.55 253.899 1801.28 255.779 1799.54 257.088 1797.66 256.822L1797.65 256.821C1795.78 256.555 1794.47 254.815 1794.73 252.936 1795 251.056 1796.74 249.748 1798.62 250.013ZM1812.24 251.933 1812.25 251.934C1814.13 252.2 1815.43 253.939 1815.17 255.819 1814.9 257.699 1813.16 259.007 1811.28 258.741L1811.28 258.74C1809.4 258.475 1808.09 256.735 1808.35 254.855 1808.62 252.976 1810.36 251.667 1812.24 251.933ZM1825.86 253.853 1825.87 253.854C1827.75 254.12 1829.06 255.859 1828.79 257.739 1828.53 259.619 1826.79 260.927 1824.91 260.661L1824.9 260.66C1823.02 260.394 1821.71 258.655 1821.98 256.775 1822.24 254.895 1823.98 253.587 1825.86 253.853ZM1839.48 255.773 1839.49 255.774C1841.37 256.04 1842.68 257.779 1842.41 259.659 1842.15 261.539 1840.41 262.847 1838.53 262.581L1838.52 262.58C1836.64 262.314 1835.33 260.575 1835.6 258.695 1835.87 256.815 1837.6 255.507 1839.48 255.773ZM1853.11 257.693 1853.11 257.694C1854.99 257.96 1856.3 259.699 1856.04 261.579 1855.77 263.458 1854.03 264.767 1852.15 264.501L1852.14 264.5C1850.26 264.234 1848.96 262.495 1849.22 260.615 1849.49 258.735 1851.23 257.427 1853.11 257.693ZM1866.73 259.612 1866.74 259.613C1868.62 259.879 1869.92 261.619 1869.66 263.499 1869.39 265.378 1867.65 266.687 1865.77 266.421L1865.77 266.42C1863.89 266.154 1862.58 264.414 1862.84 262.535 1863.11 260.655 1864.85 259.347 1866.73 259.612ZM1880.35 261.532 1880.36 261.533C1882.24 261.799 1883.55 263.539 1883.28 265.418 1883.01 267.298 1881.27 268.606 1879.4 268.341L1879.39 268.34C1877.51 268.074 1876.2 266.334 1876.47 264.455 1876.73 262.575 1878.47 261.266 1880.35 261.532ZM1893.97 263.452 1893.98 263.453C1895.86 263.719 1897.17 265.458 1896.9 267.338 1896.64 269.218 1894.9 270.526 1893.02 270.26L1893.01 270.259C1891.13 269.993 1889.82 268.254 1890.09 266.374 1890.35 264.495 1892.09 263.186 1893.97 263.452ZM1907.6 265.372 1907.6 265.373C1909.48 265.639 1910.79 267.378 1910.52 269.258 1910.26 271.138 1908.52 272.446 1906.64 272.18L1906.63 272.179C1904.75 271.913 1903.44 270.174 1903.71 268.294 1903.98 266.414 1905.72 265.106 1907.6 265.372ZM1921.22 267.292 1921.22 267.293C1923.1 267.559 1924.41 269.298 1924.15 271.178 1923.88 273.058 1922.14 274.366 1920.26 274.1L1920.26 274.099C1918.38 273.833 1917.07 272.094 1917.33 270.214 1917.6 268.334 1919.34 267.026 1921.22 267.292ZM1934.84 269.212 1934.85 269.213C1936.73 269.478 1938.04 271.218 1937.77 273.098 1937.5 274.977 1935.76 276.286 1933.88 276.02L1933.88 276.019C1932 275.753 1930.69 274.014 1930.96 272.134 1931.22 270.254 1932.96 268.946 1934.84 269.212ZM1948.46 271.131 1948.47 271.132C1950.35 271.398 1951.66 273.138 1951.39 275.017 1951.13 276.897 1949.39 278.206 1947.51 277.94L1947.5 277.939C1945.62 277.673 1944.31 275.933 1944.58 274.054 1944.84 272.174 1946.58 270.866 1948.46 271.131ZM1962.08 273.051 1962.09 273.052C1963.97 273.318 1965.28 275.057 1965.01 276.937 1964.75 278.817 1963.01 280.125 1961.13 279.859L1961.12 279.858C1959.24 279.593 1957.93 277.853 1958.2 275.973 1958.47 274.094 1960.2 272.785 1962.08 273.051ZM1975.71 274.971 1975.71 274.972C1977.59 275.238 1978.9 276.977 1978.64 278.857 1978.37 280.737 1976.63 282.045 1974.75 281.779L1974.74 281.778C1972.86 281.512 1971.56 279.773 1971.82 277.893 1972.09 276.013 1973.83 274.705 1975.71 274.971ZM1989.33 276.891 1989.34 276.892C1991.22 277.158 1992.52 278.897 1992.26 280.777 1991.99 282.657 1990.25 283.965 1988.37 283.699L1988.37 283.698C1986.49 283.432 1985.18 281.693 1985.44 279.813 1985.71 277.933 1987.45 276.625 1989.33 276.891ZM2002.95 278.811 2002.96 278.812C2004.84 279.077 2006.15 280.817 2005.88 282.697 2005.61 284.576 2003.88 285.885 2002 285.619L2001.99 285.618C2000.11 285.352 1998.8 283.613 1999.07 281.733 1999.33 279.853 2001.07 278.545 2002.95 278.811ZM2016.57 280.73 2016.58 280.731C2018.46 280.997 2019.77 282.737 2019.5 284.616 2019.24 286.496 2017.5 287.805 2015.62 287.539L2015.61 287.538C2013.73 287.272 2012.42 285.532 2012.69 283.653 2012.95 281.773 2014.69 280.465 2016.57 280.73ZM2030.2 282.65 2030.2 282.651C2032.08 282.917 2033.39 284.656 2033.12 286.536 2032.86 288.416 2031.12 289.724 2029.24 289.458L2029.23 289.458C2027.35 289.192 2026.04 287.452 2026.31 285.572 2026.58 283.693 2028.32 282.384 2030.2 282.65ZM2043.82 284.57 2043.82 284.571C2045.7 284.837 2047.01 286.576 2046.75 288.456 2046.48 290.336 2044.74 291.644 2042.86 291.378L2042.86 291.377C2040.98 291.111 2039.67 289.372 2039.93 287.492 2040.2 285.612 2041.94 284.304 2043.82 284.57ZM2057.44 286.49 2057.45 286.491C2059.33 286.757 2060.64 288.496 2060.37 290.376 2060.1 292.256 2058.36 293.564 2056.48 293.298L2056.48 293.297C2054.6 293.031 2053.29 291.292 2053.56 289.412 2053.82 287.532 2055.56 286.224 2057.44 286.49ZM2071.06 288.41 2071.07 288.411C2072.95 288.677 2074.26 290.416 2073.99 292.296 2073.73 294.176 2071.99 295.484 2070.11 295.218L2070.1 295.217C2068.22 294.951 2066.91 293.212 2067.18 291.332 2067.44 289.452 2069.18 288.144 2071.06 288.41Z" fill="#002060" fill-rule="nonzero" fill-opacity="1" transform="matrix(1 0 0 -1 2918.5 980.5)"/></g><g clip-path="url(#clip5)"><text fill="#595959" fill-opacity="1" font-family="Calibri,Calibri_MSFontService,sans-serif" font-style="normal" font-variant="normal" font-weight="400" font-stretch="normal" font-size="41" text-anchor="start" direction="ltr" writing-mode="lr-tb" unicode-bidi="normal" text-decoration="none" transform="matrix(1 0 0 1 4740.54 371)">rho = 7.6998</text></g><g clip-path="url(#clip6)"><text fill="#595959" fill-opacity="1" font-family="Calibri,Calibri_MSFontService,sans-serif" font-style="normal" font-variant="normal" font-weight="400" font-stretch="normal" font-size="41" text-anchor="start" direction="ltr" writing-mode="lr-tb" unicode-bidi="normal" text-decoration="none" transform="matrix(1 0 0 1 2859.63 1160)">0</text></g><g clip-path="url(#clip7)"><text fill="#595959" fill-opacity="1" font-family="Calibri,Calibri_MSFontService,sans-serif" font-style="normal" font-variant="normal" font-weight="400" font-stretch="normal" font-size="41" text-anchor="start" direction="ltr" writing-mode="lr-tb" unicode-bidi="normal" text-decoration="none" transform="matrix(1 0 0 1 2838.73 1041)">50</text></g><g clip-path="url(#clip8)"><text fill="#595959" fill-opacity="1" font-family="Calibri,Calibri_MSFontService,sans-serif" font-style="normal" font-variant="normal" font-weight="400" font-stretch="normal" font-size="41" text-anchor="start" direction="ltr" writing-mode="lr-tb" unicode-bidi="normal" text-decoration="none" transform="matrix(1 0 0 1 2817.83 922)">100</text></g><g clip-path="url(#clip9)"><text fill="#595959" fill-opacity="1" font-family="Calibri,Calibri_MSFontService,sans-serif" font-style="normal" font-variant="normal" font-weight="400" font-stretch="normal" font-size="41" text-anchor="start" direction="ltr" writing-mode="lr-tb" unicode-bidi="normal" text-decoration="none" transform="matrix(1 0 0 1 2817.83 803)">150</text></g><g clip-path="url(#clip10)"><text fill="#595959" fill-opacity="1" font-family="Calibri,Calibri_MSFontService,sans-serif" font-style="normal" font-variant="normal" font-weight="400" font-stretch="normal" font-size="41" text-anchor="start" direction="ltr" writing-mode="lr-tb" unicode-bidi="normal" text-decoration="none" transform="matrix(1 0 0 1 2817.83 684)">200</text></g><g clip-path="url(#clip11)"><text fill="#595959" fill-opacity="1" font-family="Calibri,Calibri_MSFontService,sans-serif" font-style="normal" font-variant="normal" font-weight="400" font-stretch="normal" font-size="41" text-anchor="start" direction="ltr" writing-mode="lr-tb" unicode-bidi="normal" text-decoration="none" transform="matrix(1 0 0 1 2817.83 565)">250</text></g><g clip-path="url(#clip12)"><text fill="#595959" fill-opacity="1" font-family="Calibri,Calibri_MSFontService,sans-serif" font-style="normal" font-variant="normal" font-weight="400" font-stretch="normal" font-size="41" text-anchor="start" direction="ltr" writing-mode="lr-tb" unicode-bidi="normal" text-decoration="none" transform="matrix(1 0 0 1 2817.83 446)">300</text></g><g clip-path="url(#clip13)"><text fill="#595959" fill-opacity="1" font-family="Calibri,Calibri_MSFontService,sans-serif" font-style="normal" font-variant="normal" font-weight="400" font-stretch="normal" font-size="41" text-anchor="start" direction="ltr" writing-mode="lr-tb" unicode-bidi="normal" text-decoration="none" transform="matrix(1 0 0 1 2877 1215)">2002</text></g><g clip-path="url(#clip14)"><text fill="#595959" fill-opacity="1" font-family="Calibri,Calibri_MSFontService,sans-serif" font-style="normal" font-variant="normal" font-weight="400" font-stretch="normal" font-size="41" text-anchor="start" direction="ltr" writing-mode="lr-tb" unicode-bidi="normal" text-decoration="none" transform="matrix(1 0 0 1 3006.9 1215)">2003</text></g><g clip-path="url(#clip15)"><text fill="#595959" fill-opacity="1" font-family="Calibri,Calibri_MSFontService,sans-serif" font-style="normal" font-variant="normal" font-weight="400" font-stretch="normal" font-size="41" text-anchor="start" direction="ltr" writing-mode="lr-tb" unicode-bidi="normal" text-decoration="none" transform="matrix(1 0 0 1 3136.79 1215)">2004</text></g><g clip-path="url(#clip16)"><text fill="#595959" fill-opacity="1" font-family="Calibri,Calibri_MSFontService,sans-serif" font-style="normal" font-variant="normal" font-weight="400" font-stretch="normal" font-size="41" text-anchor="start" direction="ltr" writing-mode="lr-tb" unicode-bidi="normal" text-decoration="none" transform="matrix(1 0 0 1 3266.68 1215)">2005</text></g><g clip-path="url(#clip17)"><text fill="#595959" fill-opacity="1" font-family="Calibri,Calibri_MSFontService,sans-serif" font-style="normal" font-variant="normal" font-weight="400" font-stretch="normal" font-size="41" text-anchor="start" direction="ltr" writing-mode="lr-tb" unicode-bidi="normal" text-decoration="none" transform="matrix(1 0 0 1 3396.58 1215)">2006</text></g><g clip-path="url(#clip18)"><text fill="#595959" fill-opacity="1" font-family="Calibri,Calibri_MSFontService,sans-serif" font-style="normal" font-variant="normal" font-weight="400" font-stretch="normal" font-size="41" text-anchor="start" direction="ltr" writing-mode="lr-tb" unicode-bidi="normal" text-decoration="none" transform="matrix(1 0 0 1 3526.47 1215)">2007</text></g><g clip-path="url(#clip19)"><text fill="#595959" fill-opacity="1" font-family="Calibri,Calibri_MSFontService,sans-serif" font-style="normal" font-variant="normal" font-weight="400" font-stretch="normal" font-size="41" text-anchor="start" direction="ltr" writing-mode="lr-tb" unicode-bidi="normal" text-decoration="none" transform="matrix(1 0 0 1 3656.37 1215)">2008</text></g><g clip-path="url(#clip20)"><text fill="#595959" fill-opacity="1" font-family="Calibri,Calibri_MSFontService,sans-serif" font-style="normal" font-variant="normal" font-weight="400" font-stretch="normal" font-size="41" text-anchor="start" direction="ltr" writing-mode="lr-tb" unicode-bidi="normal" text-decoration="none" transform="matrix(1 0 0 1 3786.26 1215)">2009</text></g><g clip-path="url(#clip21)"><text fill="#595959" fill-opacity="1" font-family="Calibri,Calibri_MSFontService,sans-serif" font-style="normal" font-variant="normal" font-weight="400" font-stretch="normal" font-size="41" text-anchor="start" direction="ltr" writing-mode="lr-tb" unicode-bidi="normal" text-decoration="none" transform="matrix(1 0 0 1 3916.16 1215)">2010</text></g><g clip-path="url(#clip22)"><text fill="#595959" fill-opacity="1" font-family="Calibri,Calibri_MSFontService,sans-serif" font-style="normal" font-variant="normal" font-weight="400" font-stretch="normal" font-size="41" text-anchor="start" direction="ltr" writing-mode="lr-tb" unicode-bidi="normal" text-decoration="none" transform="matrix(1 0 0 1 4046.05 1215)">2011</text></g><g clip-path="url(#clip23)"><text fill="#595959" fill-opacity="1" font-family="Calibri,Calibri_MSFontService,sans-serif" font-style="normal" font-variant="normal" font-weight="400" font-stretch="normal" font-size="41" text-anchor="start" direction="ltr" writing-mode="lr-tb" unicode-bidi="normal" text-decoration="none" transform="matrix(1 0 0 1 4175.95 1215)">2012</text></g><g clip-path="url(#clip24)"><text fill="#595959" fill-opacity="1" font-family="Calibri,Calibri_MSFontService,sans-serif" font-style="normal" font-variant="normal" font-weight="400" font-stretch="normal" font-size="41" text-anchor="start" direction="ltr" writing-mode="lr-tb" unicode-bidi="normal" text-decoration="none" transform="matrix(1 0 0 1 4305.84 1215)">2013</text></g><g clip-path="url(#clip25)"><text fill="#595959" fill-opacity="1" font-family="Calibri,Calibri_MSFontService,sans-serif" font-style="normal" font-variant="normal" font-weight="400" font-stretch="normal" font-size="41" text-anchor="start" direction="ltr" writing-mode="lr-tb" unicode-bidi="normal" text-decoration="none" transform="matrix(1 0 0 1 4435.74 1215)">2014</text></g><g clip-path="url(#clip26)"><text fill="#595959" fill-opacity="1" font-family="Calibri,Calibri_MSFontService,sans-serif" font-style="normal" font-variant="normal" font-weight="400" font-stretch="normal" font-size="41" text-anchor="start" direction="ltr" writing-mode="lr-tb" unicode-bidi="normal" text-decoration="none" transform="matrix(1 0 0 1 4565.63 1215)">2015</text></g><g clip-path="url(#clip27)"><text fill="#595959" fill-opacity="1" font-family="Calibri,Calibri_MSFontService,sans-serif" font-style="normal" font-variant="normal" font-weight="400" font-stretch="normal" font-size="41" text-anchor="start" direction="ltr" writing-mode="lr-tb" unicode-bidi="normal" text-decoration="none" transform="matrix(1 0 0 1 4695.53 1215)">2016</text></g><g clip-path="url(#clip28)"><text fill="#595959" fill-opacity="1" font-family="Calibri,Calibri_MSFontService,sans-serif" font-style="normal" font-variant="normal" font-weight="400" font-stretch="normal" font-size="41" text-anchor="start" direction="ltr" writing-mode="lr-tb" unicode-bidi="normal" text-decoration="none" transform="matrix(1 0 0 1 4825.42 1215)">2017</text></g><g clip-path="url(#clip29)"><text fill="#595959" fill-opacity="1" font-family="Calibri,Calibri_MSFontService,sans-serif" font-style="normal" font-variant="normal" font-weight="400" font-stretch="normal" font-size="41" text-anchor="start" direction="ltr" writing-mode="lr-tb" unicode-bidi="normal" text-decoration="none" transform="matrix(1 0 0 1 4955.32 1215)">2018</text></g><g clip-path="url(#clip30)"><text fill="#595959" fill-opacity="1" font-family="Calibri,Calibri_MSFontService,sans-serif" font-style="normal" font-variant="normal" font-weight="400" font-stretch="normal" font-size="64" text-anchor="start" direction="ltr" writing-mode="lr-tb" unicode-bidi="normal" text-decoration="none" transform="matrix(1 0 0 1 3620.03 361)">Average Call per day </text></g><g clip-path="url(#clip31)"><text fill="#595959" fill-opacity="1" font-family="Calibri,Calibri_MSFontService,sans-serif" font-style="normal" font-variant="normal" font-weight="400" font-stretch="normal" font-size="64" text-anchor="start" direction="ltr" writing-mode="lr-tb" unicode-bidi="normal" text-decoration="none" transform="matrix(1 0 0 1 4162.38 361)">-</text></g><g clip-path="url(#clip32)"><text fill="#595959" fill-opacity="1" font-family="Calibri,Calibri_MSFontService,sans-serif" font-style="normal" font-variant="normal" font-weight="400" font-stretch="normal" font-size="64" text-anchor="start" direction="ltr" writing-mode="lr-tb" unicode-bidi="normal" text-decoration="none" transform="matrix(1 0 0 1 4196.52 361)">SE</text></g><rect x="2788.5" y="266.5" width="2301" height="990" stroke="#D9D9D9" stroke-width="3.4375" stroke-linecap="butt" stroke-linejoin="round" stroke-miterlimit="10" stroke-opacity="1" fill="none"/></g></svg>