<svg width="9042" height="3336" xmlns="http://www.w3.org/2000/svg" xmlns:xlink="http://www.w3.org/1999/xlink" overflow="hidden"><defs><clipPath id="clip0"><rect x="3630" y="252" width="9042" height="3336"/></clipPath><clipPath id="clip1"><rect x="3632" y="255" width="9036" height="3330"/></clipPath><clipPath id="clip2"><rect x="3632" y="255" width="9036" height="3330"/></clipPath><clipPath id="clip3"><rect x="3909" y="745" width="8532" height="2610"/></clipPath><clipPath id="clip4"><rect x="3632" y="255" width="9036" height="3330"/></clipPath><clipPath id="clip5"><rect x="3632" y="255" width="9036" height="3330"/></clipPath><clipPath id="clip6"><rect x="3632" y="255" width="9036" height="3330"/></clipPath><clipPath id="clip7"><rect x="3632" y="255" width="9036" height="3330"/></clipPath><clipPath id="clip8"><rect x="3632" y="255" width="9036" height="3330"/></clipPath><clipPath id="clip9"><rect x="3632" y="255" width="9036" height="3330"/></clipPath><clipPath id="clip10"><rect x="3632" y="255" width="9036" height="3330"/></clipPath><clipPath id="clip11"><rect x="3632" y="255" width="9036" height="3330"/></clipPath><clipPath id="clip12"><rect x="3632" y="255" width="9036" height="3330"/></clipPath><clipPath id="clip13"><rect x="3632" y="255" width="9036" height="3330"/></clipPath><clipPath id="clip14"><rect x="3632" y="255" width="9036" height="3330"/></clipPath><clipPath id="clip15"><rect x="3632" y="255" width="9036" height="3330"/></clipPath><clipPath id="clip16"><rect x="3632" y="255" width="9036" height="3330"/></clipPath><clipPath id="clip17"><rect x="3632" y="255" width="9036" height="3330"/></clipPath><clipPath id="clip18"><rect x="3632" y="255" width="9036" height="3330"/></clipPath><clipPath id="clip19"><rect x="3632" y="255" width="9036" height="3330"/></clipPath><clipPath id="clip20"><rect x="3632" y="255" width="9036" height="3330"/></clipPath><clipPath id="clip21"><rect x="3632" y="255" width="9036" height="3330"/></clipPath><clipPath id="clip22"><rect x="3632" y="255" width="9036" height="3330"/></clipPath><clipPath id="clip23"><rect x="3632" y="255" width="9036" height="3330"/></clipPath><clipPath id="clip24"><rect x="3632" y="255" width="9036" height="3330"/></clipPath><clipPath id="clip25"><rect x="3632" y="255" width="9036" height="3330"/></clipPath><clipPath id="clip26"><rect x="3632" y="255" width="9036" height="3330"/></clipPath><clipPath id="clip27"><rect x="3632" y="255" width="9036" height="3330"/></clipPath><clipPath id="clip28"><rect x="3632" y="255" width="9036" height="3330"/></clipPath><clipPath id="clip29"><rect x="3632" y="255" width="9036" height="3330"/></clipPath><clipPath id="clip30"><rect x="3632" y="255" width="9036" height="3330"/></clipPath><clipPath id="clip31"><rect x="3632" y="255" width="9036" height="3330"/></clipPath><clipPath id="clip32"><rect x="3632" y="255" width="9036" height="3330"/></clipPath><clipPath id="clip33"><rect x="3632" y="255" width="9036" height="3330"/></clipPath><clipPath id="clip34"><rect x="3632" y="255" width="9036" height="3330"/></clipPath><clipPath id="clip35"><rect x="3632" y="255" width="9036" height="3330"/></clipPath><clipPath id="clip36"><rect x="3632" y="255" width="9036" height="3330"/></clipPath></defs><g clip-path="url(#clip0)" transform="translate(-3630 -252)"><rect x="3632" y="256" width="9036" height="3330" fill="#FFFFFF" fill-opacity="1"/><g clip-path="url(#clip1)"><path d="M3909.5 3351.5 12437.5 3351.5M3909.5 2917.6 12437.5 2917.6M3909.5 2482.58 12437.5 2482.58M3909.5 2048.57 12437.5 2048.57M3909.5 1613.55 12437.5 1613.55M3909.5 1179.54 12437.5 1179.54M3909.5 745.5 12437.5 745.5" stroke="#D9D9D9" stroke-width="3.4375" stroke-linecap="butt" stroke-linejoin="round" stroke-miterlimit="10" stroke-opacity="1" fill="none" fill-rule="evenodd"/></g><g clip-path="url(#clip2)"><path d="M3909.5 745.5 3909.5 3351.5M4762.66 745.5 4762.66 3351.5M5614.68 745.5 5614.68 3351.5M6467.71 745.5 6467.71 3351.5M7320.74 745.5 7320.74 3351.5M8173.77 745.5 8173.77 3351.5M9026.8 745.5 9026.8 3351.5M9878.82 745.5 9878.82 3351.5M10731.9 745.5 10731.9 3351.5M11584.9 745.5 11584.9 3351.5M12437.5 745.5 12437.5 3351.5" stroke="#D9D9D9" stroke-width="3.4375" stroke-linecap="butt" stroke-linejoin="round" stroke-miterlimit="10" stroke-opacity="1" fill="none" fill-rule="evenodd"/></g><g clip-path="url(#clip3)"><path d="M3957.13 745 4047.13 745 4047.13 3352 3957.13 3352ZM4142.14 1397.05 4233.14 1397.05 4233.14 3352 4142.14 3352ZM4327.14 1397.05 4418.15 1397.05 4418.15 3352 4327.14 3352ZM4513.15 1723.06 4604.15 1723.06 4604.15 3352 4513.15 3352ZM4698.15 3026.1 4789.16 3026.1 4789.16 3352 4698.15 3352ZM4883.16 2700.09 4974.16 2700.09 4974.16 3352 4883.16 3352ZM5069.17 2700.09 5160.17 2700.09 5160.17 3352 5069.17 3352ZM5254.17 2048.07 5345.18 2048.07 5345.18 3352 5254.17 3352ZM5625.18 1723.06 5716.19 1723.06 5716.19 3352 5625.18 3352ZM5810.19 2374.08 5901.19 2374.08 5901.19 3352 5810.19 3352ZM6737.22 2374.08 6828.22 2374.08 6828.22 3352 6737.22 3352ZM6923.23 2374.08 7014.23 2374.08 7014.23 3352 6923.23 3352ZM7108.23 2700.09 7199.24 2700.09 7199.24 3352 7108.23 3352ZM7294.24 3026.1 7384.24 3026.1 7384.24 3352 7294.24 3352ZM7850.26 2374.08 7941.26 2374.08 7941.26 3352 7850.26 3352ZM8035.26 2048.07 8126.27 2048.07 8126.27 3352 8035.26 3352ZM8220.27 2374.08 8311.27 2374.08 8311.27 3352 8220.27 3352ZM9518.31 1723.06 9609.32 1723.06 9609.32 3352 9518.31 3352ZM9704.32 745 9794.32 745 9794.32 3352 9704.32 3352ZM9889.32 1397.05 9980.33 1397.05 9980.33 3352 9889.32 3352ZM10260.3 745 10351.3 745 10351.3 3352 10260.3 3352ZM10445.3 2700.09 10536.3 2700.09 10536.3 3352 10445.3 3352ZM10631.3 1723.06 10721.4 1723.06 10721.4 3352 10631.3 3352ZM10816.4 2048.07 10907.4 2048.07 10907.4 3352 10816.4 3352ZM11001.4 1723.06 11092.4 1723.06 11092.4 3352 11001.4 3352ZM11187.4 2700.09 11278.4 2700.09 11278.4 3352 11187.4 3352ZM11372.4 1397.05 11463.4 1397.05 11463.4 3352 11372.4 3352ZM11557.4 1397.05 11648.4 1397.05 11648.4 3352 11557.4 3352ZM11743.4 1397.05 11834.4 1397.05 11834.4 3352 11743.4 3352ZM11928.4 1071.04 12019.4 1071.04 12019.4 3352 11928.4 3352ZM12114.4 745 12205.4 745 12205.4 3352 12114.4 3352ZM12299.4 745 12390.4 745 12390.4 3352 12299.4 3352Z" fill="#4472C4" fill-rule="evenodd" fill-opacity="1"/></g><g clip-path="url(#clip4)"><path d="M3909.5 3351.5 12437.5 3351.5" stroke="#D9D9D9" stroke-width="3.4375" stroke-linecap="butt" stroke-linejoin="round" stroke-miterlimit="10" stroke-opacity="1" fill="none" fill-rule="evenodd"/></g><g clip-path="url(#clip5)"><path d="M4943.6 1947.29C4943.6 1953.37 4938.68 1958.29 4932.6 1958.29 4926.53 1958.29 4921.6 1953.37 4921.6 1947.29 4921.6 1941.22 4926.53 1936.29 4932.6 1936.29 4938.68 1936.29 4943.6 1941.22 4943.6 1947.29Z" stroke="#ED7D31" stroke-width="57.2917" stroke-linecap="butt" stroke-linejoin="round" stroke-miterlimit="10" stroke-opacity="1" fill="#ED7D31" fill-rule="evenodd" fill-opacity="1"/><path d="M5284.6 1326.29C5284.6 1332.37 5279.68 1337.29 5273.6 1337.29 5267.53 1337.29 5262.6 1332.37 5262.6 1326.29 5262.6 1320.22 5267.53 1315.29 5273.6 1315.29 5279.68 1315.29 5284.6 1320.22 5284.6 1326.29Z" stroke="#ED7D31" stroke-width="57.2917" stroke-linecap="butt" stroke-linejoin="round" stroke-miterlimit="10" stroke-opacity="1" fill="#ED7D31" fill-rule="evenodd" fill-opacity="1"/><path d="M6137.6 1340.29C6137.6 1346.37 6132.68 1351.29 6126.6 1351.29 6120.53 1351.29 6115.6 1346.37 6115.6 1340.29 6115.6 1334.22 6120.53 1329.29 6126.6 1329.29 6132.68 1329.29 6137.6 1334.22 6137.6 1340.29Z" stroke="#ED7D31" stroke-width="57.2917" stroke-linecap="butt" stroke-linejoin="round" stroke-miterlimit="10" stroke-opacity="1" fill="#ED7D31" fill-rule="evenodd" fill-opacity="1"/><path d="M6308.6 1375.29C6308.6 1381.37 6303.68 1386.29 6297.6 1386.29 6291.53 1386.29 6286.6 1381.37 6286.6 1375.29 6286.6 1369.22 6291.53 1364.29 6297.6 1364.29 6303.68 1364.29 6308.6 1369.22 6308.6 1375.29Z" stroke="#ED7D31" stroke-width="57.2917" stroke-linecap="butt" stroke-linejoin="round" stroke-miterlimit="10" stroke-opacity="1" fill="#ED7D31" fill-rule="evenodd" fill-opacity="1"/><path d="M6990.6 1175.29C6990.6 1181.37 6985.68 1186.29 6979.6 1186.29 6973.53 1186.29 6968.6 1181.37 6968.6 1175.29 6968.6 1169.22 6973.53 1164.29 6979.6 1164.29 6985.68 1164.29 6990.6 1169.22 6990.6 1175.29Z" stroke="#ED7D31" stroke-width="57.2917" stroke-linecap="butt" stroke-linejoin="round" stroke-miterlimit="10" stroke-opacity="1" fill="#ED7D31" fill-rule="evenodd" fill-opacity="1"/><path d="M7161.6 1530.29C7161.6 1536.37 7156.68 1541.29 7150.6 1541.29 7144.53 1541.29 7139.6 1536.37 7139.6 1530.29 7139.6 1524.22 7144.53 1519.29 7150.6 1519.29 7156.68 1519.29 7161.6 1524.22 7161.6 1530.29Z" stroke="#ED7D31" stroke-width="57.2917" stroke-linecap="butt" stroke-linejoin="round" stroke-miterlimit="10" stroke-opacity="1" fill="#ED7D31" fill-rule="evenodd" fill-opacity="1"/><path d="M8184.6 3163.29C8184.6 3169.37 8179.68 3174.29 8173.6 3174.29 8167.53 3174.29 8162.6 3169.37 8162.6 3163.29 8162.6 3157.22 8167.53 3152.29 8173.6 3152.29 8179.68 3152.29 8184.6 3157.22 8184.6 3163.29Z" stroke="#ED7D31" stroke-width="57.2917" stroke-linecap="butt" stroke-linejoin="round" stroke-miterlimit="10" stroke-opacity="1" fill="#ED7D31" fill-rule="evenodd" fill-opacity="1"/><path d="M8355.6 2222.29C8355.6 2228.37 8350.68 2233.29 8344.6 2233.29 8338.53 2233.29 8333.6 2228.37 8333.6 2222.29 8333.6 2216.22 8338.53 2211.29 8344.6 2211.29 8350.68 2211.29 8355.6 2216.22 8355.6 2222.29Z" stroke="#ED7D31" stroke-width="57.2917" stroke-linecap="butt" stroke-linejoin="round" stroke-miterlimit="10" stroke-opacity="1" fill="#ED7D31" fill-rule="evenodd" fill-opacity="1"/><path d="M8866.6 2268.29C8866.6 2274.37 8861.68 2279.29 8855.6 2279.29 8849.53 2279.29 8844.6 2274.37 8844.6 2268.29 8844.6 2262.22 8849.53 2257.29 8855.6 2257.29 8861.68 2257.29 8866.6 2262.22 8866.6 2268.29Z" stroke="#ED7D31" stroke-width="57.2917" stroke-linecap="butt" stroke-linejoin="round" stroke-miterlimit="10" stroke-opacity="1" fill="#ED7D31" fill-rule="evenodd" fill-opacity="1"/><path d="M9207.6 3143.29C9207.6 3149.37 9202.68 3154.29 9196.6 3154.29 9190.53 3154.29 9185.6 3149.37 9185.6 3143.29 9185.6 3137.22 9190.53 3132.29 9196.6 3132.29 9202.68 3132.29 9207.6 3137.22 9207.6 3143.29Z" stroke="#ED7D31" stroke-width="57.2917" stroke-linecap="butt" stroke-linejoin="round" stroke-miterlimit="10" stroke-opacity="1" fill="#ED7D31" fill-rule="evenodd" fill-opacity="1"/><path d="M9549.6 2595.29C9549.6 2601.37 9544.68 2606.29 9538.6 2606.29 9532.53 2606.29 9527.6 2601.37 9527.6 2595.29 9527.6 2589.22 9532.53 2584.29 9538.6 2584.29 9544.68 2584.29 9549.6 2589.22 9549.6 2595.29Z" stroke="#ED7D31" stroke-width="57.2917" stroke-linecap="butt" stroke-linejoin="round" stroke-miterlimit="10" stroke-opacity="1" fill="#ED7D31" fill-rule="evenodd" fill-opacity="1"/><path d="M9719.6 2309.29C9719.6 2315.37 9714.68 2320.29 9708.6 2320.29 9702.53 2320.29 9697.6 2315.37 9697.6 2309.29 9697.6 2303.22 9702.53 2298.29 9708.6 2298.29 9714.68 2298.29 9719.6 2303.22 9719.6 2309.29Z" stroke="#ED7D31" stroke-width="57.2917" stroke-linecap="butt" stroke-linejoin="round" stroke-miterlimit="10" stroke-opacity="1" fill="#ED7D31" fill-rule="evenodd" fill-opacity="1"/><path d="M9890.6 2680.29C9890.6 2686.37 9885.68 2691.29 9879.6 2691.29 9873.53 2691.29 9868.6 2686.37 9868.6 2680.29 9868.6 2674.22 9873.53 2669.29 9879.6 2669.29 9885.68 2669.29 9890.6 2674.22 9890.6 2680.29Z" stroke="#ED7D31" stroke-width="57.2917" stroke-linecap="butt" stroke-linejoin="round" stroke-miterlimit="10" stroke-opacity="1" fill="#ED7D31" fill-rule="evenodd" fill-opacity="1"/><path d="M10060.6 1184.29C10060.6 1190.37 10055.7 1195.29 10049.6 1195.29 10043.5 1195.29 10038.6 1190.37 10038.6 1184.29 10038.6 1178.22 10043.5 1173.29 10049.6 1173.29 10055.7 1173.29 10060.6 1178.22 10060.6 1184.29Z" stroke="#ED7D31" stroke-width="57.2917" stroke-linecap="butt" stroke-linejoin="round" stroke-miterlimit="10" stroke-opacity="1" fill="#ED7D31" fill-rule="evenodd" fill-opacity="1"/><path d="M10401.6 1918.29C10401.6 1924.37 10396.7 1929.29 10390.6 1929.29 10384.5 1929.29 10379.6 1924.37 10379.6 1918.29 10379.6 1912.22 10384.5 1907.29 10390.6 1907.29 10396.7 1907.29 10401.6 1912.22 10401.6 1918.29Z" stroke="#ED7D31" stroke-width="57.2917" stroke-linecap="butt" stroke-linejoin="round" stroke-miterlimit="10" stroke-opacity="1" fill="#ED7D31" fill-rule="evenodd" fill-opacity="1"/><path d="M10742.6 1257.29C10742.6 1263.37 10737.7 1268.29 10731.6 1268.29 10725.5 1268.29 10720.6 1263.37 10720.6 1257.29 10720.6 1251.22 10725.5 1246.29 10731.6 1246.29 10737.7 1246.29 10742.6 1251.22 10742.6 1257.29Z" stroke="#ED7D31" stroke-width="57.2917" stroke-linecap="butt" stroke-linejoin="round" stroke-miterlimit="10" stroke-opacity="1" fill="#ED7D31" fill-rule="evenodd" fill-opacity="1"/><path d="M11084.6 1954.29C11084.6 1960.37 11079.7 1965.29 11073.6 1965.29 11067.5 1965.29 11062.6 1960.37 11062.6 1954.29 11062.6 1948.22 11067.5 1943.29 11073.6 1943.29 11079.7 1943.29 11084.6 1948.22 11084.6 1954.29Z" stroke="#ED7D31" stroke-width="57.2917" stroke-linecap="butt" stroke-linejoin="round" stroke-miterlimit="10" stroke-opacity="1" fill="#ED7D31" fill-rule="evenodd" fill-opacity="1"/></g><g clip-path="url(#clip6)"><text fill="#595959" fill-opacity="1" font-family="Calibri,Calibri_MSFontService,sans-serif" font-style="normal" font-variant="normal" font-weight="400" font-stretch="normal" font-size="110" text-anchor="start" direction="ltr" writing-mode="lr-tb" unicode-bidi="normal" text-decoration="none" transform="matrix(1 0 0 1 3929.35 3527)">Jan</text></g><g clip-path="url(#clip7)"><text fill="#595959" fill-opacity="1" font-family="Calibri,Calibri_MSFontService,sans-serif" font-style="normal" font-variant="normal" font-weight="400" font-stretch="normal" font-size="110" text-anchor="start" direction="ltr" writing-mode="lr-tb" unicode-bidi="normal" text-decoration="none" transform="matrix(1 0 0 1 4662.17 3527)">Feb</text></g><g clip-path="url(#clip8)"><text fill="#595959" fill-opacity="1" font-family="Calibri,Calibri_MSFontService,sans-serif" font-style="normal" font-variant="normal" font-weight="400" font-stretch="normal" font-size="110" text-anchor="start" direction="ltr" writing-mode="lr-tb" unicode-bidi="normal" text-decoration="none" transform="matrix(1 0 0 1 5392.74 3527)">Mar</text></g><g clip-path="url(#clip9)"><text fill="#595959" fill-opacity="1" font-family="Calibri,Calibri_MSFontService,sans-serif" font-style="normal" font-variant="normal" font-weight="400" font-stretch="normal" font-size="110" text-anchor="start" direction="ltr" writing-mode="lr-tb" unicode-bidi="normal" text-decoration="none" transform="matrix(1 0 0 1 6146.97 3527)">Apr</text></g><g clip-path="url(#clip10)"><text fill="#595959" fill-opacity="1" font-family="Calibri,Calibri_MSFontService,sans-serif" font-style="normal" font-variant="normal" font-weight="400" font-stretch="normal" font-size="110" text-anchor="start" direction="ltr" writing-mode="lr-tb" unicode-bidi="normal" text-decoration="none" transform="matrix(1 0 0 1 6684.77 3527)">May</text></g><g clip-path="url(#clip11)"><text fill="#595959" fill-opacity="1" font-family="Calibri,Calibri_MSFontService,sans-serif" font-style="normal" font-variant="normal" font-weight="400" font-stretch="normal" font-size="110" text-anchor="start" direction="ltr" writing-mode="lr-tb" unicode-bidi="normal" text-decoration="none" transform="matrix(1 0 0 1 7421.93 3527)">June</text></g><g clip-path="url(#clip12)"><text fill="#595959" fill-opacity="1" font-family="Calibri,Calibri_MSFontService,sans-serif" font-style="normal" font-variant="normal" font-weight="400" font-stretch="normal" font-size="110" text-anchor="start" direction="ltr" writing-mode="lr-tb" unicode-bidi="normal" text-decoration="none" transform="matrix(1 0 0 1 8182.24 3527)">July</text></g><g clip-path="url(#clip13)"><text fill="#595959" fill-opacity="1" font-family="Calibri,Calibri_MSFontService,sans-serif" font-style="normal" font-variant="normal" font-weight="400" font-stretch="normal" font-size="110" text-anchor="start" direction="ltr" writing-mode="lr-tb" unicode-bidi="normal" text-decoration="none" transform="matrix(1 0 0 1 8921.17 3527)">Aug</text></g><g clip-path="url(#clip14)"><text fill="#595959" fill-opacity="1" font-family="Calibri,Calibri_MSFontService,sans-serif" font-style="normal" font-variant="normal" font-weight="400" font-stretch="normal" font-size="110" text-anchor="start" direction="ltr" writing-mode="lr-tb" unicode-bidi="normal" text-decoration="none" transform="matrix(1 0 0 1 9667.82 3527)">Sep</text></g><g clip-path="url(#clip15)"><text fill="#595959" fill-opacity="1" font-family="Calibri,Calibri_MSFontService,sans-serif" font-style="normal" font-variant="normal" font-weight="400" font-stretch="normal" font-size="110" text-anchor="start" direction="ltr" writing-mode="lr-tb" unicode-bidi="normal" text-decoration="none" transform="matrix(1 0 0 1 10412.8 3527)">Oct</text></g><g clip-path="url(#clip16)"><text fill="#595959" fill-opacity="1" font-family="Calibri,Calibri_MSFontService,sans-serif" font-style="normal" font-variant="normal" font-weight="400" font-stretch="normal" font-size="110" text-anchor="start" direction="ltr" writing-mode="lr-tb" unicode-bidi="normal" text-decoration="none" transform="matrix(1 0 0 1 10957.8 3527)">Nov</text></g><g clip-path="url(#clip17)"><text fill="#595959" fill-opacity="1" font-family="Calibri,Calibri_MSFontService,sans-serif" font-style="normal" font-variant="normal" font-weight="400" font-stretch="normal" font-size="110" text-anchor="start" direction="ltr" writing-mode="lr-tb" unicode-bidi="normal" text-decoration="none" transform="matrix(1 0 0 1 11704.2 3527)">Dec</text></g><g clip-path="url(#clip18)"><text fill="#595959" fill-opacity="1" font-family="Calibri,Calibri_MSFontService,sans-serif" font-style="normal" font-variant="normal" font-weight="400" font-stretch="normal" font-size="92" text-anchor="start" direction="ltr" writing-mode="lr-tb" unicode-bidi="normal" text-decoration="none" transform="matrix(1 0 0 1 12522.6 3375)">0</text></g><g clip-path="url(#clip19)"><text fill="#595959" fill-opacity="1" font-family="Calibri,Calibri_MSFontService,sans-serif" font-style="normal" font-variant="normal" font-weight="400" font-stretch="normal" font-size="92" text-anchor="start" direction="ltr" writing-mode="lr-tb" unicode-bidi="normal" text-decoration="none" transform="matrix(1 0 0 1 12522.6 3115)">0.1</text></g><g clip-path="url(#clip20)"><text fill="#595959" fill-opacity="1" font-family="Calibri,Calibri_MSFontService,sans-serif" font-style="normal" font-variant="normal" font-weight="400" font-stretch="normal" font-size="92" text-anchor="start" direction="ltr" writing-mode="lr-tb" unicode-bidi="normal" text-decoration="none" transform="matrix(1 0 0 1 12522.6 2854)">0.2</text></g><g clip-path="url(#clip21)"><text fill="#595959" fill-opacity="1" font-family="Calibri,Calibri_MSFontService,sans-serif" font-style="normal" font-variant="normal" font-weight="400" font-stretch="normal" font-size="92" text-anchor="start" direction="ltr" writing-mode="lr-tb" unicode-bidi="normal" text-decoration="none" transform="matrix(1 0 0 1 12522.6 2593)">0.3</text></g><g clip-path="url(#clip22)"><text fill="#595959" fill-opacity="1" font-family="Calibri,Calibri_MSFontService,sans-serif" font-style="normal" font-variant="normal" font-weight="400" font-stretch="normal" font-size="92" text-anchor="start" direction="ltr" writing-mode="lr-tb" unicode-bidi="normal" text-decoration="none" transform="matrix(1 0 0 1 12522.6 2333)">0.4</text></g><g clip-path="url(#clip23)"><text fill="#595959" fill-opacity="1" font-family="Calibri,Calibri_MSFontService,sans-serif" font-style="normal" font-variant="normal" font-weight="400" font-stretch="normal" font-size="92" text-anchor="start" direction="ltr" writing-mode="lr-tb" unicode-bidi="normal" text-decoration="none" transform="matrix(1 0 0 1 12522.6 2072)">0.5</text></g><g clip-path="url(#clip24)"><text fill="#595959" fill-opacity="1" font-family="Calibri,Calibri_MSFontService,sans-serif" font-style="normal" font-variant="normal" font-weight="400" font-stretch="normal" font-size="92" text-anchor="start" direction="ltr" writing-mode="lr-tb" unicode-bidi="normal" text-decoration="none" transform="matrix(1 0 0 1 12522.6 1811)">0.6</text></g><g clip-path="url(#clip25)"><text fill="#595959" fill-opacity="1" font-family="Calibri,Calibri_MSFontService,sans-serif" font-style="normal" font-variant="normal" font-weight="400" font-stretch="normal" font-size="92" text-anchor="start" direction="ltr" writing-mode="lr-tb" unicode-bidi="normal" text-decoration="none" transform="matrix(1 0 0 1 12522.6 1551)">0.7</text></g><g clip-path="url(#clip26)"><text fill="#595959" fill-opacity="1" font-family="Calibri,Calibri_MSFontService,sans-serif" font-style="normal" font-variant="normal" font-weight="400" font-stretch="normal" font-size="92" text-anchor="start" direction="ltr" writing-mode="lr-tb" unicode-bidi="normal" text-decoration="none" transform="matrix(1 0 0 1 12522.6 1290)">0.8</text></g><g clip-path="url(#clip27)"><text fill="#595959" fill-opacity="1" font-family="Calibri,Calibri_MSFontService,sans-serif" font-style="normal" font-variant="normal" font-weight="400" font-stretch="normal" font-size="92" text-anchor="start" direction="ltr" writing-mode="lr-tb" unicode-bidi="normal" text-decoration="none" transform="matrix(1 0 0 1 12522.6 1030)">0.9</text></g><g clip-path="url(#clip28)"><text fill="#595959" fill-opacity="1" font-family="Calibri,Calibri_MSFontService,sans-serif" font-style="normal" font-variant="normal" font-weight="400" font-stretch="normal" font-size="92" text-anchor="start" direction="ltr" writing-mode="lr-tb" unicode-bidi="normal" text-decoration="none" transform="matrix(1 0 0 1 12522.6 769)">1</text></g><g clip-path="url(#clip29)"><text fill="#595959" fill-opacity="1" font-family="Calibri,Calibri_MSFontService,sans-serif" font-style="normal" font-variant="normal" font-weight="400" font-stretch="normal" font-size="92" text-anchor="start" direction="ltr" writing-mode="lr-tb" unicode-bidi="normal" text-decoration="none" transform="matrix(1 0 0 1 3661.89 3375)">26.5</text></g><g clip-path="url(#clip30)"><text fill="#595959" fill-opacity="1" font-family="Calibri,Calibri_MSFontService,sans-serif" font-style="normal" font-variant="normal" font-weight="400" font-stretch="normal" font-size="92" text-anchor="start" direction="ltr" writing-mode="lr-tb" unicode-bidi="normal" text-decoration="none" transform="matrix(1 0 0 1 3731.49 2941)">27</text></g><g clip-path="url(#clip31)"><text fill="#595959" fill-opacity="1" font-family="Calibri,Calibri_MSFontService,sans-serif" font-style="normal" font-variant="normal" font-weight="400" font-stretch="normal" font-size="92" text-anchor="start" direction="ltr" writing-mode="lr-tb" unicode-bidi="normal" text-decoration="none" transform="matrix(1 0 0 1 3661.89 2507)">27.5</text></g><g clip-path="url(#clip32)"><text fill="#595959" fill-opacity="1" font-family="Calibri,Calibri_MSFontService,sans-serif" font-style="normal" font-variant="normal" font-weight="400" font-stretch="normal" font-size="92" text-anchor="start" direction="ltr" writing-mode="lr-tb" unicode-bidi="normal" text-decoration="none" transform="matrix(1 0 0 1 3731.49 2072)">28</text></g><g clip-path="url(#clip33)"><text fill="#595959" fill-opacity="1" font-family="Calibri,Calibri_MSFontService,sans-serif" font-style="normal" font-variant="normal" font-weight="400" font-stretch="normal" font-size="92" text-anchor="start" direction="ltr" writing-mode="lr-tb" unicode-bidi="normal" text-decoration="none" transform="matrix(1 0 0 1 3661.89 1638)">28.5</text></g><g clip-path="url(#clip34)"><text fill="#595959" fill-opacity="1" font-family="Calibri,Calibri_MSFontService,sans-serif" font-style="normal" font-variant="normal" font-weight="400" font-stretch="normal" font-size="92" text-anchor="start" direction="ltr" writing-mode="lr-tb" unicode-bidi="normal" text-decoration="none" transform="matrix(1 0 0 1 3731.49 1203)">29</text></g><g clip-path="url(#clip35)"><text fill="#595959" fill-opacity="1" font-family="Calibri,Calibri_MSFontService,sans-serif" font-style="normal" font-variant="normal" font-weight="400" font-stretch="normal" font-size="92" text-anchor="start" direction="ltr" writing-mode="lr-tb" unicode-bidi="normal" text-decoration="none" transform="matrix(1 0 0 1 3661.89 769)">29.5</text></g><g clip-path="url(#clip36)"><text fill="#595959" fill-opacity="1" font-family="Calibri,Calibri_MSFontService,sans-serif" font-style="normal" font-variant="normal" font-weight="400" font-stretch="normal" font-size="303" text-anchor="start" direction="ltr" writing-mode="lr-tb" unicode-bidi="normal" text-decoration="none" transform="matrix(1 0 0 1 7843.65 578)">2002</text></g><rect x="3632.5" y="256.5" width="9036" height="3330" stroke="#D9D9D9" stroke-width="3.4375" stroke-linecap="butt" stroke-linejoin="round" stroke-miterlimit="10" stroke-opacity="1" fill="none"/></g></svg>