<svg width="2338" height="972" xmlns="http://www.w3.org/2000/svg" xmlns:xlink="http://www.w3.org/1999/xlink" overflow="hidden"><defs><clipPath id="clip0"><rect x="1434" y="1654" width="2338" height="972"/></clipPath><clipPath id="clip1"><rect x="1436" y="1656" width="2330" height="967"/></clipPath><clipPath id="clip2"><rect x="1436" y="1656" width="2330" height="967"/></clipPath><clipPath id="clip3"><rect x="1436" y="1656" width="2330" height="967"/></clipPath><clipPath id="clip4"><rect x="1566" y="1826" width="2108" height="691"/></clipPath><clipPath id="clip5"><rect x="1436" y="1656" width="2330" height="967"/></clipPath><clipPath id="clip6"><rect x="1436" y="1656" width="2330" height="967"/></clipPath><clipPath id="clip7"><rect x="1436" y="1656" width="2330" height="967"/></clipPath><clipPath id="clip8"><rect x="1436" y="1656" width="2330" height="967"/></clipPath><clipPath id="clip9"><rect x="1436" y="1656" width="2330" height="967"/></clipPath><clipPath id="clip10"><rect x="1436" y="1656" width="2330" height="967"/></clipPath><clipPath id="clip11"><rect x="1436" y="1656" width="2330" height="967"/></clipPath><clipPath id="clip12"><rect x="1436" y="1656" width="2330" height="967"/></clipPath><clipPath id="clip13"><rect x="1436" y="1656" width="2330" height="967"/></clipPath><clipPath id="clip14"><rect x="1436" y="1656" width="2330" height="967"/></clipPath><clipPath id="clip15"><rect x="1436" y="1656" width="2330" height="967"/></clipPath><clipPath id="clip16"><rect x="1436" y="1656" width="2330" height="967"/></clipPath><clipPath id="clip17"><rect x="1436" y="1656" width="2330" height="967"/></clipPath><clipPath id="clip18"><rect x="1436" y="1656" width="2330" height="967"/></clipPath><clipPath id="clip19"><rect x="1436" y="1656" width="2330" height="967"/></clipPath><clipPath id="clip20"><rect x="1436" y="1656" width="2330" height="967"/></clipPath><clipPath id="clip21"><rect x="1436" y="1656" width="2330" height="967"/></clipPath><clipPath id="clip22"><rect x="1436" y="1656" width="2330" height="967"/></clipPath><clipPath id="clip23"><rect x="1436" y="1656" width="2330" height="967"/></clipPath><clipPath id="clip24"><rect x="1436" y="1656" width="2330" height="967"/></clipPath><clipPath id="clip25"><rect x="1436" y="1656" width="2330" height="967"/></clipPath><clipPath id="clip26"><rect x="1436" y="1656" width="2330" height="967"/></clipPath><clipPath id="clip27"><rect x="1436" y="1656" width="2330" height="967"/></clipPath><clipPath id="clip28"><rect x="1436" y="1656" width="2330" height="967"/></clipPath><clipPath id="clip29"><rect x="1436" y="1656" width="2330" height="967"/></clipPath><clipPath id="clip30"><rect x="1436" y="1656" width="2330" height="967"/></clipPath><clipPath id="clip31"><rect x="1436" y="1656" width="2330" height="967"/></clipPath><clipPath id="clip32"><rect x="1436" y="1656" width="2330" height="967"/></clipPath></defs><g clip-path="url(#clip0)" transform="translate(-1434 -1654)"><rect x="1436" y="1656" width="2330" height="968" fill="#FFFFFF" fill-opacity="1"/><g clip-path="url(#clip1)"><path d="M1566.5 2448.58 3674.5 2448.58M1566.5 2379.58 3674.5 2379.58M1566.5 2309.58 3674.5 2309.58M1566.5 2240.57 3674.5 2240.57M1566.5 2171.57 3674.5 2171.57M1566.5 2102.57 3674.5 2102.57M1566.5 2033.57 3674.5 2033.57M1566.5 1964.56 3674.5 1964.56M1566.5 1895.56 3674.5 1895.56M1566.5 1826.5 3674.5 1826.5" stroke="#D9D9D9" stroke-width="3.4375" stroke-linecap="butt" stroke-linejoin="round" stroke-miterlimit="10" stroke-opacity="1" fill="none" fill-rule="nonzero"/></g><g clip-path="url(#clip2)"><path d="M1566.5 2517.5 3674.5 2517.5" stroke="#D9D9D9" stroke-width="3.4375" stroke-linecap="butt" stroke-linejoin="round" stroke-miterlimit="10" stroke-opacity="1" fill="none" fill-rule="evenodd"/></g><g clip-path="url(#clip3)"><path d="M1577.61 2180.61C1577.61 2186.69 1572.69 2191.61 1566.61 2191.61 1560.54 2191.61 1555.61 2186.69 1555.61 2180.61 1555.61 2174.54 1560.54 2169.61 1566.61 2169.61 1572.69 2169.61 1577.61 2174.54 1577.61 2180.61Z" stroke="#002060" stroke-width="3.4375" stroke-linecap="butt" stroke-linejoin="round" stroke-miterlimit="10" stroke-opacity="1" fill="#002060" fill-rule="nonzero" fill-opacity="1"/><path d="M1753.61 2168.61C1753.61 2174.69 1748.69 2179.61 1742.61 2179.61 1736.54 2179.61 1731.61 2174.69 1731.61 2168.61 1731.61 2162.54 1736.54 2157.61 1742.61 2157.61 1748.69 2157.61 1753.61 2162.54 1753.61 2168.61Z" stroke="#002060" stroke-width="3.4375" stroke-linecap="butt" stroke-linejoin="round" stroke-miterlimit="10" stroke-opacity="1" fill="#002060" fill-rule="nonzero" fill-opacity="1"/><path d="M1929.61 2190.61C1929.61 2196.69 1924.69 2201.61 1918.61 2201.61 1912.54 2201.61 1907.61 2196.69 1907.61 2190.61 1907.61 2184.54 1912.54 2179.61 1918.61 2179.61 1924.69 2179.61 1929.61 2184.54 1929.61 2190.61Z" stroke="#002060" stroke-width="3.4375" stroke-linecap="butt" stroke-linejoin="round" stroke-miterlimit="10" stroke-opacity="1" fill="#002060" fill-rule="nonzero" fill-opacity="1"/><path d="M2104.61 2169.61C2104.61 2175.69 2099.69 2180.61 2093.61 2180.61 2087.54 2180.61 2082.61 2175.69 2082.61 2169.61 2082.61 2163.54 2087.54 2158.61 2093.61 2158.61 2099.69 2158.61 2104.61 2163.54 2104.61 2169.61Z" stroke="#002060" stroke-width="3.4375" stroke-linecap="butt" stroke-linejoin="round" stroke-miterlimit="10" stroke-opacity="1" fill="#002060" fill-rule="nonzero" fill-opacity="1"/><path d="M2280.61 2264.61C2280.61 2270.69 2275.69 2275.61 2269.61 2275.61 2263.54 2275.61 2258.61 2270.69 2258.61 2264.61 2258.61 2258.54 2263.54 2253.61 2269.61 2253.61 2275.69 2253.61 2280.61 2258.54 2280.61 2264.61Z" stroke="#002060" stroke-width="3.4375" stroke-linecap="butt" stroke-linejoin="round" stroke-miterlimit="10" stroke-opacity="1" fill="#002060" fill-rule="nonzero" fill-opacity="1"/><path d="M2455.61 2019.61C2455.61 2025.69 2450.69 2030.61 2444.61 2030.61 2438.54 2030.61 2433.61 2025.69 2433.61 2019.61 2433.61 2013.54 2438.54 2008.61 2444.61 2008.61 2450.69 2008.61 2455.61 2013.54 2455.61 2019.61Z" stroke="#002060" stroke-width="3.4375" stroke-linecap="butt" stroke-linejoin="round" stroke-miterlimit="10" stroke-opacity="1" fill="#002060" fill-rule="nonzero" fill-opacity="1"/><path d="M2631.61 2458.61C2631.61 2464.69 2626.69 2469.61 2620.61 2469.61 2614.54 2469.61 2609.61 2464.69 2609.61 2458.61 2609.61 2452.54 2614.54 2447.61 2620.61 2447.61 2626.69 2447.61 2631.61 2452.54 2631.61 2458.61Z" stroke="#002060" stroke-width="3.4375" stroke-linecap="butt" stroke-linejoin="round" stroke-miterlimit="10" stroke-opacity="1" fill="#002060" fill-rule="nonzero" fill-opacity="1"/><path d="M2807.61 2030.61C2807.61 2036.69 2802.69 2041.61 2796.61 2041.61 2790.54 2041.61 2785.61 2036.69 2785.61 2030.61 2785.61 2024.54 2790.54 2019.61 2796.61 2019.61 2802.69 2019.61 2807.61 2024.54 2807.61 2030.61Z" stroke="#002060" stroke-width="3.4375" stroke-linecap="butt" stroke-linejoin="round" stroke-miterlimit="10" stroke-opacity="1" fill="#002060" fill-rule="nonzero" fill-opacity="1"/><path d="M2982.61 2180.61C2982.61 2186.69 2977.69 2191.61 2971.61 2191.61 2965.54 2191.61 2960.61 2186.69 2960.61 2180.61 2960.61 2174.54 2965.54 2169.61 2971.61 2169.61 2977.69 2169.61 2982.61 2174.54 2982.61 2180.61Z" stroke="#002060" stroke-width="3.4375" stroke-linecap="butt" stroke-linejoin="round" stroke-miterlimit="10" stroke-opacity="1" fill="#002060" fill-rule="nonzero" fill-opacity="1"/><path d="M3158.61 2079.61C3158.61 2085.69 3153.69 2090.61 3147.61 2090.61 3141.54 2090.61 3136.61 2085.69 3136.61 2079.61 3136.61 2073.54 3141.54 2068.61 3147.61 2068.61 3153.69 2068.61 3158.61 2073.54 3158.61 2079.61Z" stroke="#002060" stroke-width="3.4375" stroke-linecap="butt" stroke-linejoin="round" stroke-miterlimit="10" stroke-opacity="1" fill="#002060" fill-rule="nonzero" fill-opacity="1"/><path d="M3333.61 1999.61C3333.61 2005.69 3328.69 2010.61 3322.61 2010.61 3316.54 2010.61 3311.61 2005.69 3311.61 1999.61 3311.61 1993.54 3316.54 1988.61 3322.61 1988.61 3328.69 1988.61 3333.61 1993.54 3333.61 1999.61Z" stroke="#002060" stroke-width="3.4375" stroke-linecap="butt" stroke-linejoin="round" stroke-miterlimit="10" stroke-opacity="1" fill="#002060" fill-rule="nonzero" fill-opacity="1"/><path d="M3509.61 1872.61C3509.61 1878.69 3504.69 1883.61 3498.61 1883.61 3492.54 1883.61 3487.61 1878.69 3487.61 1872.61 3487.61 1866.54 3492.54 1861.61 3498.61 1861.61 3504.69 1861.61 3509.61 1866.54 3509.61 1872.61Z" stroke="#002060" stroke-width="3.4375" stroke-linecap="butt" stroke-linejoin="round" stroke-miterlimit="10" stroke-opacity="1" fill="#002060" fill-rule="nonzero" fill-opacity="1"/><path d="M3685.61 2040.61C3685.61 2046.69 3680.69 2051.61 3674.61 2051.61 3668.54 2051.61 3663.61 2046.69 3663.61 2040.61 3663.61 2034.54 3668.54 2029.61 3674.61 2029.61 3680.69 2029.61 3685.61 2034.54 3685.61 2040.61Z" stroke="#002060" stroke-width="3.4375" stroke-linecap="butt" stroke-linejoin="round" stroke-miterlimit="10" stroke-opacity="1" fill="#002060" fill-rule="nonzero" fill-opacity="1"/></g><g clip-path="url(#clip4)"><path d="M0.37605-3.41687 0.382884-3.41612C2.26997-3.20843 3.63139-1.51028 3.4237 0.376802 3.21602 2.26389 1.51787 3.62531-0.369216 3.41762L-0.37605 3.41687C-2.26313 3.20918-3.62456 1.51103-3.41687-0.37605-3.20918-2.26313-1.51103-3.62456 0.37605-3.41687ZM14.0503-1.91192 14.0572-1.91117C15.9442-1.7035 17.3057-0.00537092 17.098 1.88172 16.8904 3.7688 15.1922 5.13024 13.3051 4.92258L13.2983 4.92183C11.4112 4.71416 10.0498 3.01603 10.2574 1.12894 10.4651-0.758145 12.1632-2.11959 14.0503-1.91192ZM27.7246-0.406968 27.7315-0.406216C29.6186-0.198551 30.98 1.49958 30.7723 3.38667 30.5647 5.27376 28.8665 6.6352 26.9794 6.42753L26.9726 6.42678C25.0855 6.21911 23.7241 4.52098 23.9317 2.63389 24.1394 0.746807 25.8375-0.614633 27.7246-0.406968ZM41.3989 1.09798 41.4058 1.09874C43.2929 1.3064 44.6543 3.00453 44.4466 4.89162 44.239 6.77871 42.5408 8.14015 40.6538 7.93248L40.6469 7.93173C38.7598 7.72407 37.3984 6.02593 37.6061 4.13885 37.8137 2.25176 39.5119 0.89032 41.3989 1.09798ZM55.0732 2.60294 55.0801 2.60369C56.9672 2.81135 58.3286 4.50949 58.1209 6.39657 57.9133 8.28366 56.2151 9.6451 54.3281 9.43744L54.3212 9.43668C52.4341 9.22902 51.0727 7.53089 51.2804 5.6438 51.488 3.75671 53.1862 2.39527 55.0732 2.60294ZM68.7476 4.10789 68.7544 4.10864C70.6415 4.31631 72.0029 6.01444 71.7953 7.90153 71.5876 9.78861 69.8895 11.1501 68.0024 10.9424L67.9955 10.9416C66.1084 10.734 64.747 9.03584 64.9547 7.14875 65.1623 5.26166 66.8605 3.90022 68.7476 4.10789ZM82.4219 5.61284 82.4287 5.61359C84.3158 5.82126 85.6772 7.51939 85.4696 9.40648 85.2619 11.2936 83.5638 12.655 81.6767 12.4473L81.6698 12.4466C79.7828 12.2389 78.4213 10.5408 78.629 8.6537 78.8366 6.76662 80.5348 5.40518 82.4219 5.61284ZM96.0962 7.1178 96.103 7.11855C97.9901 7.32621 99.3515 9.02435 99.1439 10.9114 98.9362 12.7985 97.2381 14.16 95.351 13.9523L95.3441 13.9515C93.4571 13.7439 92.0956 12.0457 92.3033 10.1587 92.511 8.27157 94.2091 6.91013 96.0962 7.1178ZM109.771 8.62279 109.778 8.62354C111.665 8.8314 113.026 10.5297 112.818 12.4167 112.61 14.3038 110.912 15.6651 109.025 15.4572L109.018 15.4565C107.131 15.2486 105.77 13.5503 105.978 11.6633 106.185 9.7762 107.884 8.41493 109.771 8.62279ZM123.445 10.1277 123.452 10.1285C125.339 10.3363 126.7 12.0346 126.492 13.9217 126.285 15.8088 124.586 17.17 122.699 16.9622L122.692 16.9614C120.805 16.7536 119.444 15.0553 119.652 13.1682 119.86 11.2811 121.558 9.91988 123.445 10.1277ZM137.119 11.6327 137.126 11.6334C139.013 11.8413 140.375 13.5396 140.167 15.4266 139.959 17.3137 138.261 18.675 136.374 18.4671L136.367 18.4664C134.48 18.2585 133.118 16.5602 133.326 14.6732 133.534 12.7861 135.232 11.4248 137.119 11.6327ZM150.794 13.1376 150.801 13.1384C152.688 13.3463 154.049 15.0445 153.841 16.9316 153.633 18.8187 151.935 20.1799 150.048 19.9721L150.041 19.9713C148.154 19.7635 146.793 18.0652 147.001 16.1781 147.208 14.2911 148.907 12.9298 150.794 13.1376ZM164.468 14.6426 164.475 14.6434C166.362 14.8512 167.723 16.5495 167.515 18.4365 167.307 20.3236 165.609 21.6849 163.722 21.477L163.715 21.4763C161.828 21.2684 160.467 19.5701 160.675 17.6831 160.883 15.796 162.581 14.4347 164.468 14.6426ZM178.142 16.1476 178.149 16.1483C180.036 16.3562 181.398 18.0544 181.19 19.9415 180.982 21.8286 179.284 23.1898 177.396 22.982L177.39 22.9812C175.503 22.7734 174.141 21.0751 174.349 19.188 174.557 17.301 176.255 15.9397 178.142 16.1476ZM191.817 17.6525 191.823 17.6533C193.711 17.8611 195.072 19.5594 194.864 21.4465 194.656 23.3335 192.958 24.6948 191.071 24.4869L191.064 24.4862C189.177 24.2783 187.816 22.58 188.023 20.693 188.231 18.8059 189.93 17.4447 191.817 17.6525ZM205.491 19.1575 205.498 19.1582C207.385 19.3661 208.746 21.0643 208.538 22.9514 208.33 24.8385 206.632 26.1997 204.745 25.9919L204.738 25.9911C202.851 25.7833 201.49 24.085 201.698 22.1979 201.906 20.3109 203.604 18.9496 205.491 19.1575ZM219.165 20.6624 219.172 20.6632C221.059 20.871 222.42 22.5693 222.213 24.4564 222.005 26.3434 220.306 27.7047 218.419 27.4968L218.413 27.4961C216.525 27.2882 215.164 25.59 215.372 23.7029 215.58 21.8158 217.278 20.4546 219.165 20.6624ZM232.84 22.1674 232.846 22.1681C234.733 22.376 236.095 24.0742 235.887 25.9613 235.679 27.8484 233.981 29.2096 232.094 29.0018L232.087 29.001C230.2 28.7932 228.839 27.0949 229.046 25.2078 229.254 23.3208 230.952 21.9595 232.84 22.1674ZM246.514 23.6723 246.521 23.6731C248.408 23.8809 249.769 25.5792 249.561 27.4663 249.353 29.3533 247.655 30.7146 245.768 30.5067L245.761 30.506C243.874 30.2981 242.513 28.5999 242.721 26.7128 242.929 24.8257 244.627 23.4645 246.514 23.6723ZM260.188 25.1773 260.195 25.178C262.082 25.3859 263.443 27.0842 263.235 28.9712 263.028 30.8583 261.329 32.2196 259.442 32.0117L259.435 32.0109C257.548 31.8031 256.187 30.1048 256.395 28.2177 256.603 26.3307 258.301 24.9694 260.188 25.1773ZM273.862 26.6822 273.869 26.683C275.756 26.8908 277.118 28.5891 276.91 30.4762 276.702 32.3632 275.004 33.7245 273.117 33.5166L273.11 33.5159C271.223 33.308 269.861 31.6098 270.069 29.7227 270.277 27.8356 271.975 26.4744 273.862 26.6822ZM287.537 28.1872 287.544 28.1879C289.431 28.3958 290.792 30.0941 290.584 31.9811 290.376 33.8682 288.678 35.2295 286.791 35.0216L286.784 35.0208C284.897 34.813 283.536 33.1147 283.744 31.2277 283.951 29.3406 285.65 27.9793 287.537 28.1872ZM301.211 29.6921 301.218 29.6929C303.105 29.9007 304.466 31.599 304.258 33.4861 304.051 35.3731 302.352 36.7344 300.465 36.5266L300.458 36.5258C298.571 36.3179 297.21 34.6197 297.418 32.7326 297.626 30.8455 299.324 29.4843 301.211 29.6921ZM314.885 31.1971 314.892 31.1978C316.779 31.4057 318.141 33.104 317.933 34.991 317.725 36.8781 316.027 38.2394 314.139 38.0315L314.133 38.0308C312.246 37.8229 310.884 36.1246 311.092 34.2376 311.3 32.3505 312.998 30.9892 314.885 31.1971ZM328.56 32.702 328.566 32.7028C330.454 32.9106 331.815 34.6089 331.607 36.496 331.399 38.383 329.701 39.7443 327.814 39.5365L327.807 39.5357C325.92 39.3278 324.559 37.6296 324.766 35.7425 324.974 33.8554 326.673 32.4942 328.56 32.702ZM342.234 34.207 342.241 34.2077C344.128 34.4156 345.489 36.1139 345.281 38.0009 345.073 39.888 343.375 41.2493 341.488 41.0414L341.481 41.0407C339.594 40.8328 338.233 39.1345 338.441 37.2475 338.649 35.3604 340.347 33.9991 342.234 34.207ZM355.908 35.7119 355.915 35.7127C357.802 35.9206 359.163 37.6188 358.956 39.5059 358.748 41.3929 357.049 42.7542 355.162 42.5464L355.156 42.5456C353.268 42.3378 351.907 40.6395 352.115 38.7524 352.323 36.8653 354.021 35.5041 355.908 35.7119ZM369.583 37.2169 369.589 37.2176C371.476 37.4255 372.838 39.1238 372.63 41.0108 372.422 42.8979 370.724 44.2592 368.837 44.0513L368.83 44.0506C366.943 43.8427 365.582 42.1444 365.789 40.2574 365.997 38.3703 367.696 37.009 369.583 37.2169ZM383.258 38.722 383.265 38.7227C385.152 38.9313 386.513 40.63 386.304 42.517 386.095 44.404 384.397 45.7647 382.51 45.5561L382.503 45.5554C380.616 45.3468 379.255 43.6481 379.464 41.7611 379.672 39.8741 381.371 38.5134 383.258 38.722ZM396.932 40.2269 396.939 40.2277C398.826 40.4362 400.187 42.135 399.978 44.022 399.77 45.909 398.071 47.2696 396.184 47.0611L396.177 47.0603C394.29 46.8518 392.93 45.153 393.138 43.266 393.347 41.379 395.045 40.0184 396.932 40.2269ZM410.607 41.7319 410.614 41.7326C412.501 41.9412 413.861 43.6399 413.653 45.5269 413.444 47.4139 411.745 48.7746 409.858 48.566L409.852 48.5653C407.965 48.3567 406.604 46.658 406.812 44.771 407.021 42.884 408.72 41.5233 410.607 41.7319ZM424.281 43.2368 424.288 43.2376C426.175 43.4461 427.535 45.1449 427.327 47.0319 427.118 48.9189 425.42 50.2795 423.533 50.071L423.526 50.0702C421.639 49.8617 420.278 48.1629 420.487 46.2759 420.695 44.389 422.394 43.0283 424.281 43.2368ZM437.954 44.7416 437.961 44.7424C439.848 44.9502 441.209 46.6484 441.001 48.5354 440.794 50.4225 439.095 51.7839 437.208 51.5761L437.202 51.5753C435.314 51.3676 433.953 49.6694 434.161 47.7823 434.369 45.8952 436.067 44.5339 437.954 44.7416ZM451.628 46.2466 451.635 46.2473C453.522 46.4551 454.883 48.1533 454.676 50.0404 454.468 51.9275 452.77 53.2888 450.883 53.081L450.876 53.0803C448.989 52.8725 447.627 51.1743 447.835 49.2872 448.043 47.4002 449.741 46.0388 451.628 46.2466ZM465.303 47.7515 465.309 47.7523C467.196 47.96 468.558 49.6583 468.35 51.5453 468.142 53.4324 466.444 54.7938 464.557 54.586L464.55 54.5852C462.663 54.3775 461.302 52.6793 461.509 50.7922 461.717 48.9051 463.415 47.5438 465.303 47.7515ZM478.977 49.2565 478.984 49.2572C480.871 49.465 482.232 51.1632 482.024 53.0503 481.817 54.9374 480.118 56.2987 478.231 56.0909L478.224 56.0902C476.337 55.8824 474.976 54.1842 475.184 52.2971 475.392 50.4101 477.09 49.0487 478.977 49.2565ZM492.651 50.7614 492.658 50.7622C494.545 50.9699 495.906 52.6682 495.699 54.5552 495.491 56.4423 493.793 57.8037 491.906 57.5959L491.899 57.5951C490.012 57.3874 488.65 55.6892 488.858 53.8021 489.066 51.915 490.764 50.5537 492.651 50.7614ZM506.325 52.2664 506.332 52.2671C508.219 52.4749 509.581 54.1731 509.373 56.0602 509.165 57.9473 507.467 59.3086 505.58 59.1008L505.573 59.1001C503.686 58.8923 502.325 57.1941 502.532 55.307 502.74 53.42 504.438 52.0586 506.325 52.2664ZM520 53.7713 520.007 53.7721C521.894 53.9798 523.255 55.6781 523.047 57.5651 522.839 59.4522 521.141 60.8136 519.254 60.6058L519.247 60.605C517.36 60.3973 515.999 58.6991 516.207 56.812 516.414 54.9249 518.113 53.5636 520 53.7713ZM533.674 55.2763 533.681 55.277C535.568 55.4848 536.929 57.183 536.721 59.0701 536.514 60.9572 534.816 62.3185 532.928 62.1107L532.922 62.11C531.035 61.9022 529.673 60.204 529.881 58.3169 530.089 56.4299 531.787 55.0685 533.674 55.2763ZM547.348 56.7812 547.355 56.782C549.242 56.9897 550.604 58.688 550.396 60.575 550.188 62.4621 548.49 63.8235 546.603 63.6157L546.596 63.6149C544.709 63.4072 543.348 61.709 543.555 59.8219 543.763 57.9348 545.461 56.5735 547.348 56.7812ZM561.023 58.2862 561.029 58.2869C562.917 58.4947 564.278 60.1929 564.07 62.08 563.862 63.9671 562.164 65.3284 560.277 65.1206L560.27 65.1199C558.383 64.9121 557.022 63.2139 557.23 61.3268 557.437 59.4398 559.136 58.0784 561.023 58.2862ZM574.697 59.7911 574.704 59.7919C576.591 59.9996 577.952 61.6979 577.744 63.5849 577.537 65.472 575.838 66.8334 573.951 66.6256L573.945 66.6248C572.057 66.4171 570.696 64.7189 570.904 62.8318 571.112 60.9447 572.81 59.5834 574.697 59.7911ZM588.371 61.2961 588.378 61.2968C590.265 61.5046 591.627 63.2028 591.419 65.0899 591.211 66.977 589.513 68.3383 587.626 68.1305L587.619 68.1298C585.732 67.922 584.37 66.2238 584.578 64.3367 584.786 62.4497 586.484 61.0883 588.371 61.2961ZM602.046 62.801 602.052 62.8018C603.939 63.0095 605.301 64.7077 605.093 66.5948 604.885 68.4819 603.187 69.8432 601.3 69.6355L601.293 69.6347C599.406 69.427 598.045 67.7288 598.253 65.8417 598.46 63.9546 600.159 62.5933 602.046 62.801ZM615.72 64.306 615.727 64.3067C617.614 64.5145 618.975 66.2127 618.767 68.0998 618.56 69.9869 616.861 71.3482 614.974 71.1404L614.967 71.1397C613.08 70.9319 611.719 69.2337 611.927 67.3466 612.135 65.4596 613.833 64.0982 615.72 64.306ZM629.394 65.8109 629.401 65.8117C631.288 66.0194 632.649 67.7177 632.442 69.6047 632.234 71.4918 630.536 72.8531 628.649 72.6454L628.642 72.6446C626.755 72.4369 625.393 70.7387 625.601 68.8516 625.809 66.9645 627.507 65.6032 629.394 65.8109ZM643.068 67.3159 643.075 67.3166C644.962 67.5244 646.324 69.2226 646.116 71.1097 645.908 72.9967 644.21 74.3581 642.323 74.1503L642.316 74.1496C640.429 73.9418 639.068 72.2436 639.275 70.3565 639.483 68.4695 641.181 67.1081 643.068 67.3159ZM656.743 68.8208 656.75 68.8216C658.637 69.0293 659.998 70.7275 659.79 72.6146 659.583 74.5017 657.884 75.863 655.997 75.6553L655.99 75.6545C654.103 75.4468 652.742 73.7486 652.95 71.8615 653.157 69.9744 654.856 68.6131 656.743 68.8208ZM670.417 70.3258 670.424 70.3265C672.311 70.5343 673.672 72.2325 673.465 74.1196 673.257 76.0067 671.559 77.368 669.672 77.1602L669.665 77.1595C667.778 76.9517 666.416 75.2535 666.624 73.3664 666.832 71.4794 668.53 70.118 670.417 70.3258ZM684.091 71.8307 684.098 71.8315C685.985 72.0392 687.347 73.7374 687.139 75.6245 686.931 77.5116 685.233 78.8729 683.346 78.6652L683.339 78.6644C681.452 78.4567 680.091 76.7585 680.298 74.8714 680.506 72.9843 682.204 71.623 684.091 71.8307ZM697.766 73.3357 697.772 73.3364C699.66 73.5442 701.021 75.2424 700.813 77.1295 700.605 79.0165 698.907 80.3779 697.02 80.1701L697.013 80.1694C695.126 79.9616 693.765 78.2634 693.973 76.3763 694.18 74.4893 695.879 73.1279 697.766 73.3357ZM711.44 74.8406 711.447 74.8414C713.334 75.0491 714.695 76.7473 714.487 78.6344 714.28 80.5215 712.581 81.8828 710.694 81.6751L710.688 81.6743C708.8 81.4666 707.439 79.7684 707.647 77.8813 707.855 75.9942 709.553 74.6329 711.44 74.8406ZM725.114 76.3456 725.121 76.3463C727.008 76.5541 728.37 78.2523 728.162 80.1394 727.954 82.0264 726.256 83.3878 724.369 83.18L724.362 83.1793C722.475 82.9715 721.113 81.2733 721.321 79.3862 721.529 77.4992 723.227 76.1378 725.114 76.3456ZM738.789 77.8505 738.795 77.8513C740.682 78.059 742.044 79.7572 741.836 81.6443 741.628 83.5314 739.93 84.8927 738.043 84.685L738.036 84.6842C736.149 84.4765 734.788 82.7783 734.995 80.8912 735.203 79.0041 736.901 77.6428 738.789 77.8505ZM752.463 79.3555 752.47 79.3562C754.357 79.564 755.718 81.2622 755.51 83.1493 755.303 85.0363 753.604 86.3977 751.717 86.1899L751.71 86.1892C749.823 85.9814 748.462 84.2832 748.67 82.3961 748.878 80.5091 750.576 79.1477 752.463 79.3555ZM766.135 80.8602 766.142 80.8609C768.029 81.0673 769.391 82.7645 769.185 84.6518 768.979 86.539 767.281 87.9016 765.394 87.6951L765.387 87.6944C763.5 87.488 762.137 85.7907 762.344 83.9035 762.55 82.0163 764.247 80.6537 766.135 80.8602ZM779.809 82.3651 779.816 82.3659C781.703 82.5723 783.066 84.2695 782.859 86.1567 782.653 88.044 780.956 89.4065 779.068 89.2001L779.062 89.1993C777.174 88.9929 775.812 87.2957 776.018 85.4085 776.225 83.5213 777.922 82.1587 779.809 82.3651ZM793.483 83.8701 793.49 83.8708C795.377 84.0772 796.74 85.7745 796.534 87.6617 796.327 89.5489 794.63 90.9115 792.743 90.705L792.736 90.7043C790.849 90.4979 789.486 88.8007 789.692 86.9134 789.899 85.0262 791.596 83.6636 793.483 83.8701ZM807.158 85.375 807.164 85.3758C809.052 85.5822 810.414 87.2794 810.208 89.1666 810.001 91.0538 808.304 92.4164 806.417 92.21L806.41 92.2092C804.523 92.0028 803.16 90.3056 803.367 88.4184 803.573 86.5312 805.27 85.1686 807.158 85.375ZM820.832 86.88 820.839 86.8807C822.726 87.0871 824.089 88.7843 823.882 90.6716 823.676 92.5588 821.979 93.9214 820.091 93.7149L820.084 93.7142C818.197 93.5078 816.835 91.8105 817.041 89.9233 817.247 88.0361 818.945 86.6735 820.832 86.88ZM834.506 88.3849 834.513 88.3857C836.4 88.5921 837.763 90.2893 837.556 92.1765 837.35 94.0637 835.653 95.4263 833.766 95.2199L833.759 95.2191C831.871 95.0127 830.509 93.3155 830.715 91.4283 830.922 89.541 832.619 88.1785 834.506 88.3849ZM848.18 89.8899 848.187 89.8906C850.075 90.097 851.437 91.7943 851.231 93.6815 851.024 95.5687 849.327 96.9313 847.44 96.7248L847.433 96.7241C845.546 96.5177 844.183 94.8204 844.39 92.9332 844.596 91.046 846.293 89.6834 848.18 89.8899ZM861.858 91.3951 861.864 91.3959C863.752 91.6038 865.113 93.3021 864.905 95.1892 864.697 97.0763 862.998 98.4374 861.111 98.2295L861.105 98.2287C859.217 98.0208 857.856 96.3224 858.064 94.4354 858.272 92.5483 859.971 91.1872 861.858 91.3951ZM875.532 92.9001 875.539 92.9008C877.426 93.1088 878.787 94.8071 878.579 96.6942 878.371 98.5812 876.673 99.9424 874.786 99.7345L874.779 99.7337C872.892 99.5257 871.531 97.8274 871.739 95.9404 871.946 94.0533 873.645 92.6921 875.532 92.9001ZM889.206 94.405 889.213 94.4058C891.1 94.6137 892.461 96.3121 892.253 98.1991 892.045 100.086 890.347 101.447 888.46 101.239L888.453 101.239C886.566 101.031 885.205 99.3324 885.413 97.4453 885.621 95.5583 887.319 94.1971 889.206 94.405ZM902.88 95.91 902.887 95.9107C904.774 96.1187 906.136 97.817 905.928 99.7041 905.72 101.591 904.021 102.952 902.134 102.744L902.128 102.744C900.24 102.536 898.879 100.837 899.087 98.9503 899.295 97.0632 900.993 95.702 902.88 95.91ZM916.555 97.4149 916.562 97.4157C918.449 97.6236 919.81 99.322 919.602 101.209 919.394 103.096 917.696 104.457 915.809 104.249L915.802 104.249C913.915 104.041 912.553 102.342 912.761 100.455 912.969 98.5682 914.668 97.207 916.555 97.4149ZM930.229 98.9199 930.236 98.9206C932.123 99.1286 933.484 100.827 933.276 102.714 933.068 104.601 931.37 105.962 929.483 105.754L929.476 105.754C927.589 105.546 926.228 103.847 926.436 101.96 926.644 100.073 928.342 98.7119 930.229 98.9199ZM943.903 100.425 943.91 100.426C945.797 100.634 947.159 102.332 946.951 104.219 946.743 106.106 945.044 107.467 943.157 107.259L943.15 107.258C941.263 107.051 939.902 105.352 940.11 103.465 940.318 101.578 942.016 100.217 943.903 100.425ZM957.578 101.93 957.585 101.931C959.472 102.139 960.833 103.837 960.625 105.724 960.417 107.611 958.719 108.972 956.832 108.764L956.825 108.763C954.938 108.555 953.576 106.857 953.784 104.97 953.992 103.083 955.691 101.722 957.578 101.93ZM971.252 103.435 971.259 103.436C973.146 103.643 974.507 105.342 974.299 107.229 974.091 109.116 972.393 110.477 970.506 110.269L970.499 110.268C968.612 110.06 967.251 108.362 967.459 106.475 967.667 104.588 969.365 103.227 971.252 103.435ZM984.926 104.94 984.933 104.94C986.82 105.148 988.181 106.847 987.974 108.734 987.766 110.621 986.067 111.982 984.18 111.774L984.173 111.773C982.286 111.565 980.925 109.867 981.133 107.98 981.341 106.093 983.039 104.732 984.926 104.94ZM998.601 106.445 998.607 106.445C1000.49 106.653 1001.86 108.352 1001.65 110.239 1001.44 112.126 999.741 113.487 997.854 113.279L997.848 113.278C995.961 113.07 994.599 111.372 994.807 109.485 995.015 107.598 996.714 106.237 998.601 106.445ZM1012.27 107.95 1012.28 107.95C1014.17 108.158 1015.53 109.857 1015.32 111.744 1015.11 113.631 1013.42 114.992 1011.53 114.784L1011.52 114.783C1009.63 114.575 1008.27 112.877 1008.48 110.99 1008.69 109.103 1010.39 107.742 1012.27 107.95ZM1025.95 109.455 1025.96 109.455C1027.84 109.663 1029.2 111.362 1029 113.249 1028.79 115.136 1027.09 116.497 1025.2 116.289L1025.2 116.288C1023.31 116.08 1021.95 114.382 1022.16 112.495 1022.36 110.608 1024.06 109.247 1025.95 109.455ZM1039.62 110.96 1039.63 110.96C1041.52 111.168 1042.88 112.867 1042.67 114.754 1042.46 116.641 1040.76 118.002 1038.88 117.794L1038.87 117.793C1036.98 117.585 1035.62 115.887 1035.83 114 1036.04 112.113 1037.74 110.752 1039.62 110.96ZM1053.3 112.464 1053.3 112.465C1055.19 112.673 1056.55 114.372 1056.34 116.259 1056.14 118.146 1054.44 119.507 1052.55 119.299L1052.54 119.298C1050.66 119.09 1049.3 117.392 1049.5 115.505 1049.71 113.618 1051.41 112.257 1053.3 112.464ZM1066.97 113.969 1066.98 113.97C1068.87 114.178 1070.23 115.876 1070.02 117.764 1069.81 119.651 1068.11 121.012 1066.23 120.804L1066.22 120.803C1064.33 120.595 1062.97 118.897 1063.18 117.01 1063.39 115.123 1065.09 113.761 1066.97 113.969ZM1080.65 115.474 1080.65 115.475C1082.54 115.683 1083.9 117.381 1083.69 119.268 1083.49 121.156 1081.79 122.517 1079.9 122.309L1079.89 122.308C1078.01 122.1 1076.65 120.402 1076.85 118.515 1077.06 116.628 1078.76 115.266 1080.65 115.474ZM1094.32 116.979 1094.33 116.98C1096.21 117.188 1097.58 118.886 1097.37 120.773 1097.16 122.66 1095.46 124.022 1093.57 123.814L1093.57 123.813C1091.68 123.605 1090.32 121.907 1090.53 120.02 1090.74 118.133 1092.43 116.771 1094.32 116.979ZM1107.99 118.484 1108 118.485C1109.89 118.693 1111.25 120.391 1111.04 122.278 1110.83 124.165 1109.14 125.527 1107.25 125.319L1107.24 125.318C1105.35 125.11 1103.99 123.412 1104.2 121.525 1104.41 119.638 1106.11 118.276 1107.99 118.484ZM1121.67 119.989 1121.68 119.99C1123.56 120.198 1124.92 121.896 1124.72 123.783 1124.51 125.67 1122.81 127.032 1120.92 126.824L1120.92 126.823C1119.03 126.615 1117.67 124.917 1117.88 123.03 1118.08 121.142 1119.78 119.781 1121.67 119.989ZM1135.34 121.494 1135.35 121.495C1137.24 121.703 1138.6 123.401 1138.39 125.288 1138.18 127.175 1136.48 128.537 1134.6 128.329L1134.59 128.328C1132.7 128.12 1131.34 126.422 1131.55 124.535 1131.76 122.647 1133.46 121.286 1135.34 121.494ZM1149.02 122.999 1149.02 123C1150.91 123.208 1152.27 124.906 1152.07 126.793 1151.86 128.68 1150.16 130.042 1148.27 129.834L1148.26 129.833C1146.38 129.625 1145.02 127.927 1145.22 126.039 1145.43 124.152 1147.13 122.791 1149.02 122.999ZM1162.69 124.504 1162.7 124.505C1164.59 124.713 1165.95 126.411 1165.74 128.298 1165.53 130.185 1163.83 131.546 1161.95 131.339L1161.94 131.338C1160.05 131.13 1158.69 129.431 1158.9 127.544 1159.11 125.657 1160.81 124.296 1162.69 124.504ZM1176.37 126.009 1176.37 126.01C1178.26 126.218 1179.62 127.916 1179.41 129.803 1179.21 131.69 1177.51 133.051 1175.62 132.843L1175.61 132.843C1173.73 132.635 1172.37 130.936 1172.57 129.049 1172.78 127.162 1174.48 125.801 1176.37 126.009ZM1190.04 127.514 1190.05 127.515C1191.93 127.723 1193.3 129.421 1193.09 131.308 1192.88 133.195 1191.18 134.556 1189.29 134.348L1189.29 134.348C1187.4 134.14 1186.04 132.441 1186.25 130.554 1186.46 128.667 1188.15 127.306 1190.04 127.514ZM1203.72 129.019 1203.72 129.02C1205.61 129.228 1206.97 130.926 1206.76 132.813 1206.55 134.7 1204.86 136.061 1202.97 135.853L1202.96 135.853C1201.08 135.645 1199.71 133.946 1199.92 132.059 1200.13 130.172 1201.83 128.811 1203.72 129.019ZM1217.39 130.524 1217.4 130.525C1219.28 130.733 1220.64 132.431 1220.44 134.318 1220.23 136.205 1218.53 137.566 1216.64 137.358L1216.64 137.358C1214.75 137.15 1213.39 135.451 1213.6 133.564 1213.8 131.677 1215.5 130.316 1217.39 130.524ZM1231.06 132.029 1231.07 132.03C1232.96 132.238 1234.32 133.936 1234.11 135.823 1233.9 137.71 1232.2 139.071 1230.32 138.863L1230.31 138.863C1228.42 138.655 1227.06 136.956 1227.27 135.069 1227.48 133.182 1229.18 131.821 1231.06 132.029ZM1244.74 133.534 1244.74 133.535C1246.63 133.743 1247.99 135.441 1247.79 137.328 1247.58 139.215 1245.88 140.576 1243.99 140.368L1243.99 140.367C1242.1 140.16 1240.74 138.461 1240.94 136.574 1241.15 134.687 1242.85 133.326 1244.74 133.534ZM1258.41 135.039 1258.42 135.04C1260.31 135.248 1261.67 136.946 1261.46 138.833 1261.25 140.72 1259.55 142.081 1257.67 141.873L1257.66 141.872C1255.77 141.664 1254.41 139.966 1254.62 138.079 1254.83 136.192 1256.53 134.831 1258.41 135.039ZM1272.09 136.544 1272.09 136.545C1273.98 136.752 1275.34 138.451 1275.13 140.338 1274.93 142.225 1273.23 143.586 1271.34 143.378L1271.33 143.377C1269.45 143.169 1268.09 141.471 1268.29 139.584 1268.5 137.697 1270.2 136.336 1272.09 136.544ZM1285.76 138.049 1285.77 138.049C1287.65 138.257 1289.02 139.956 1288.81 141.843 1288.6 143.73 1286.9 145.091 1285.01 144.883L1285.01 144.882C1283.12 144.674 1281.76 142.976 1281.97 141.089 1282.18 139.202 1283.87 137.841 1285.76 138.049ZM1299.44 139.554 1299.44 139.554C1301.33 139.762 1302.69 141.461 1302.48 143.348 1302.27 145.235 1300.58 146.596 1298.69 146.388L1298.68 146.387C1296.8 146.179 1295.43 144.481 1295.64 142.594 1295.85 140.707 1297.55 139.346 1299.44 139.554ZM1313.11 141.059 1313.12 141.059C1315 141.267 1316.36 142.966 1316.16 144.853 1315.95 146.74 1314.25 148.101 1312.36 147.893L1312.36 147.892C1310.47 147.684 1309.11 145.986 1309.32 144.099 1309.52 142.212 1311.22 140.851 1313.11 141.059ZM1326.78 142.564 1326.79 142.564C1328.68 142.772 1330.04 144.471 1329.83 146.358 1329.62 148.245 1327.92 149.606 1326.04 149.398L1326.03 149.397C1324.14 149.189 1322.78 147.491 1322.99 145.604 1323.2 143.717 1324.9 142.356 1326.78 142.564ZM1340.46 144.069 1340.47 144.069C1342.35 144.277 1343.71 145.976 1343.51 147.863 1343.3 149.75 1341.6 151.111 1339.71 150.903L1339.71 150.902C1337.82 150.694 1336.46 148.996 1336.66 147.109 1336.87 145.222 1338.57 143.861 1340.46 144.069ZM1354.13 145.573 1354.14 145.574C1356.03 145.782 1357.39 147.481 1357.18 149.368 1356.97 151.255 1355.27 152.616 1353.39 152.408L1353.38 152.407C1351.49 152.199 1350.13 150.501 1350.34 148.614 1350.55 146.727 1352.25 145.366 1354.13 145.573ZM1367.81 147.078 1367.81 147.079C1369.7 147.287 1371.06 148.985 1370.85 150.873 1370.65 152.76 1368.95 154.121 1367.06 153.913L1367.05 153.912C1365.17 153.704 1363.81 152.006 1364.01 150.119 1364.22 148.232 1365.92 146.87 1367.81 147.078ZM1381.48 148.583 1381.49 148.584C1383.38 148.792 1384.74 150.49 1384.53 152.378 1384.32 154.265 1382.62 155.626 1380.73 155.418L1380.73 155.417C1378.84 155.209 1377.48 153.511 1377.69 151.624 1377.9 149.737 1379.59 148.375 1381.48 148.583ZM1395.16 150.088 1395.16 150.089C1397.05 150.297 1398.41 151.995 1398.2 153.882 1397.99 155.77 1396.3 157.131 1394.41 156.923L1394.4 156.922C1392.52 156.714 1391.15 155.016 1391.36 153.129 1391.57 151.242 1393.27 149.88 1395.16 150.088ZM1408.83 151.593 1408.84 151.594C1410.72 151.802 1412.08 153.5 1411.88 155.387 1411.67 157.274 1409.97 158.636 1408.08 158.428L1408.08 158.427C1406.19 158.219 1404.83 156.521 1405.04 154.634 1405.24 152.747 1406.94 151.385 1408.83 151.593ZM1422.5 153.098 1422.51 153.099C1424.4 153.307 1425.76 155.005 1425.55 156.892 1425.34 158.779 1423.64 160.141 1421.76 159.933L1421.75 159.932C1419.86 159.724 1418.5 158.026 1418.71 156.139 1418.92 154.251 1420.62 152.89 1422.5 153.098ZM1436.18 154.603 1436.19 154.604C1438.07 154.812 1439.43 156.51 1439.23 158.397 1439.02 160.284 1437.32 161.646 1435.43 161.438L1435.43 161.437C1433.54 161.229 1432.18 159.531 1432.39 157.644 1432.59 155.756 1434.29 154.395 1436.18 154.603ZM1449.85 156.108 1449.86 156.109C1451.75 156.317 1453.11 158.015 1452.9 159.902 1452.69 161.789 1450.99 163.151 1449.11 162.943L1449.1 162.942C1447.21 162.734 1445.85 161.036 1446.06 159.148 1446.27 157.261 1447.97 155.9 1449.85 156.108ZM1463.53 157.613 1463.53 157.614C1465.42 157.822 1466.78 159.52 1466.57 161.407 1466.37 163.294 1464.67 164.655 1462.78 164.448L1462.77 164.447C1460.89 164.239 1459.53 162.54 1459.73 160.653 1459.94 158.766 1461.64 157.405 1463.53 157.613ZM1477.2 159.118 1477.21 159.119C1479.1 159.327 1480.46 161.025 1480.25 162.912 1480.04 164.799 1478.34 166.16 1476.46 165.952L1476.45 165.952C1474.56 165.744 1473.2 164.045 1473.41 162.158 1473.62 160.271 1475.31 158.91 1477.2 159.118ZM1490.88 160.623 1490.88 160.624C1492.77 160.832 1494.13 162.53 1493.92 164.417 1493.71 166.304 1492.02 167.665 1490.13 167.457L1490.12 167.457C1488.24 167.249 1486.87 165.55 1487.08 163.663 1487.29 161.776 1488.99 160.415 1490.88 160.623ZM1504.55 162.128 1504.56 162.129C1506.44 162.337 1507.8 164.035 1507.6 165.922 1507.39 167.809 1505.69 169.17 1503.8 168.962L1503.8 168.962C1501.91 168.754 1500.55 167.055 1500.76 165.168 1500.96 163.281 1502.66 161.92 1504.55 162.128ZM1518.22 163.633 1518.23 163.634C1520.12 163.842 1521.48 165.54 1521.27 167.427 1521.06 169.314 1519.37 170.675 1517.48 170.467L1517.47 170.467C1515.58 170.259 1514.22 168.56 1514.43 166.673 1514.64 164.786 1516.34 163.425 1518.22 163.633ZM1531.9 165.138 1531.91 165.139C1533.79 165.347 1535.15 167.045 1534.95 168.932 1534.74 170.819 1533.04 172.18 1531.15 171.972L1531.15 171.972C1529.26 171.764 1527.9 170.065 1528.11 168.178 1528.31 166.291 1530.01 164.93 1531.9 165.138ZM1545.57 166.643 1545.58 166.644C1547.47 166.852 1548.83 168.55 1548.62 170.437 1548.41 172.324 1546.71 173.685 1544.83 173.477L1544.82 173.476C1542.93 173.269 1541.57 171.57 1541.78 169.683 1541.99 167.796 1543.69 166.435 1545.57 166.643ZM1559.25 168.148 1559.25 168.149C1561.14 168.357 1562.5 170.055 1562.29 171.942 1562.09 173.829 1560.39 175.19 1558.5 174.982L1558.49 174.981C1556.61 174.773 1555.25 173.075 1555.45 171.188 1555.66 169.301 1557.36 167.94 1559.25 168.148ZM1572.92 169.653 1572.93 169.654C1574.81 169.861 1576.18 171.56 1575.97 173.447 1575.76 175.334 1574.06 176.695 1572.17 176.487L1572.17 176.486C1570.28 176.278 1568.92 174.58 1569.13 172.693 1569.34 170.806 1571.03 169.445 1572.92 169.653ZM1586.6 171.158 1586.6 171.158C1588.49 171.366 1589.85 173.065 1589.64 174.952 1589.43 176.839 1587.74 178.2 1585.85 177.992L1585.84 177.991C1583.96 177.783 1582.59 176.085 1582.8 174.198 1583.01 172.311 1584.71 170.95 1586.6 171.158ZM1600.27 172.663 1600.28 172.663C1602.16 172.871 1603.52 174.57 1603.32 176.457 1603.11 178.344 1601.41 179.705 1599.52 179.497L1599.52 179.496C1597.63 179.288 1596.27 177.59 1596.48 175.703 1596.68 173.816 1598.38 172.455 1600.27 172.663ZM1613.94 174.168 1613.95 174.168C1615.84 174.376 1617.2 176.075 1616.99 177.962 1616.78 179.849 1615.08 181.21 1613.2 181.002L1613.19 181.001C1611.3 180.793 1609.94 179.095 1610.15 177.208 1610.36 175.321 1612.06 173.96 1613.94 174.168ZM1627.62 175.673 1627.63 175.673C1629.51 175.881 1630.87 177.58 1630.67 179.467 1630.46 181.354 1628.76 182.715 1626.87 182.507L1626.87 182.506C1624.98 182.298 1623.62 180.6 1623.82 178.713 1624.03 176.826 1625.73 175.465 1627.62 175.673ZM1641.29 177.178 1641.3 177.178C1643.19 177.386 1644.55 179.085 1644.34 180.972 1644.13 182.859 1642.43 184.22 1640.55 184.012L1640.54 184.011C1638.65 183.803 1637.29 182.105 1637.5 180.218 1637.71 178.331 1639.41 176.97 1641.29 177.178ZM1654.97 178.682 1654.97 178.683C1656.86 178.891 1658.22 180.59 1658.01 182.477 1657.81 184.364 1656.11 185.725 1654.22 185.517L1654.21 185.516C1652.33 185.308 1650.97 183.61 1651.17 181.723 1651.38 179.836 1653.08 178.475 1654.97 178.682ZM1668.64 180.187 1668.65 180.188C1670.53 180.396 1671.9 182.094 1671.69 183.981 1671.48 185.869 1669.78 187.23 1667.89 187.022L1667.89 187.021C1666 186.813 1664.64 185.115 1664.85 183.228 1665.06 181.341 1666.75 179.979 1668.64 180.187ZM1682.32 181.692 1682.32 181.693C1684.21 181.901 1685.57 183.599 1685.36 185.486 1685.15 187.374 1683.46 188.735 1681.57 188.527L1681.56 188.526C1679.68 188.318 1678.31 186.62 1678.52 184.733 1678.73 182.846 1680.43 181.484 1682.32 181.692ZM1695.99 183.197 1696 183.198C1697.88 183.406 1699.24 185.104 1699.04 186.991 1698.83 188.878 1697.13 190.24 1695.24 190.032L1695.24 190.031C1693.35 189.823 1691.99 188.125 1692.2 186.238 1692.4 184.351 1694.1 182.989 1695.99 183.197ZM1709.66 184.702 1709.67 184.703C1711.56 184.911 1712.92 186.609 1712.71 188.496 1712.5 190.383 1710.8 191.745 1708.92 191.537L1708.91 191.536C1707.02 191.328 1705.66 189.63 1705.87 187.743 1706.08 185.855 1707.78 184.494 1709.66 184.702ZM1723.33 186.207 1723.34 186.207C1725.23 186.412 1726.59 188.108 1726.39 189.996 1726.18 191.883 1724.48 193.247 1722.6 193.042L1722.59 193.041C1720.7 192.837 1719.34 191.14 1719.54 189.253 1719.75 187.366 1721.45 186.002 1723.33 186.207ZM1737.01 187.712 1737.01 187.712C1738.9 187.917 1740.27 189.613 1740.06 191.501 1739.86 193.388 1738.16 194.752 1736.27 194.547L1736.26 194.546C1734.38 194.341 1733.01 192.645 1733.22 190.758 1733.42 188.871 1735.12 187.507 1737.01 187.712ZM1750.68 189.216 1750.69 189.217C1752.58 189.422 1753.94 191.118 1753.73 193.006 1753.53 194.893 1751.83 196.257 1749.95 196.052L1749.94 196.051C1748.05 195.846 1746.69 194.15 1746.89 192.263 1747.1 190.376 1748.79 189.012 1750.68 189.216ZM1764.36 190.721 1764.36 190.722C1766.25 190.927 1767.61 192.623 1767.41 194.511 1767.2 196.398 1765.51 197.762 1763.62 197.557L1763.61 197.556C1761.73 197.351 1760.36 195.655 1760.57 193.768 1760.77 191.88 1762.47 190.517 1764.36 190.721ZM1778.03 192.226 1778.04 192.227C1779.92 192.432 1781.29 194.128 1781.08 196.016 1780.88 197.903 1779.18 199.267 1777.29 199.062L1777.29 199.061C1775.4 198.856 1774.04 197.16 1774.24 195.273 1774.45 193.385 1776.14 192.021 1778.03 192.226ZM1791.7 193.731 1791.71 193.732C1793.6 193.937 1794.96 195.633 1794.76 197.52 1794.55 199.408 1792.86 200.772 1790.97 200.567L1790.96 200.566C1789.07 200.361 1787.71 198.665 1787.92 196.778 1788.12 194.89 1789.82 193.526 1791.7 193.731ZM1805.38 195.236 1805.39 195.237C1807.27 195.442 1808.64 197.138 1808.43 199.025 1808.23 200.913 1806.53 202.277 1804.64 202.072L1804.64 202.071C1802.75 201.866 1801.39 200.17 1801.59 198.283 1801.79 196.395 1803.49 195.031 1805.38 195.236ZM1819.05 196.741 1819.06 196.742C1820.95 196.947 1822.31 198.643 1822.11 200.53 1821.9 202.418 1820.2 203.782 1818.32 203.577L1818.31 203.576C1816.42 203.371 1815.06 201.675 1815.26 199.788 1815.47 197.9 1817.17 196.536 1819.05 196.741ZM1832.73 198.246 1832.73 198.247C1834.62 198.452 1835.98 200.148 1835.78 202.035 1835.58 203.923 1833.88 205.287 1831.99 205.082L1831.98 205.081C1830.1 204.876 1828.73 203.18 1828.94 201.293 1829.14 199.405 1830.84 198.041 1832.73 198.246ZM1846.4 199.751 1846.41 199.752C1848.3 199.957 1849.66 201.653 1849.45 203.54 1849.25 205.428 1847.55 206.792 1845.67 206.587L1845.66 206.586C1843.77 206.381 1842.41 204.685 1842.61 202.798 1842.82 200.91 1844.51 199.546 1846.4 199.751ZM1860.08 201.256 1860.08 201.257C1861.97 201.462 1863.33 203.158 1863.13 205.045 1862.92 206.933 1861.23 208.296 1859.34 208.092L1859.33 208.091C1857.45 207.886 1856.08 206.19 1856.29 204.302 1856.49 202.415 1858.19 201.051 1860.08 201.256ZM1873.75 202.761 1873.76 202.762C1875.64 202.967 1877.01 204.663 1876.8 206.55 1876.6 208.437 1874.9 209.801 1873.01 209.597L1873.01 209.596C1871.12 209.391 1869.76 207.695 1869.96 205.807 1870.17 203.92 1871.86 202.556 1873.75 202.761ZM1887.42 204.266 1887.43 204.267C1889.32 204.472 1890.68 206.168 1890.48 208.055 1890.27 209.942 1888.58 211.306 1886.69 211.102L1886.68 211.101C1884.79 210.896 1883.43 209.2 1883.64 207.312 1883.84 205.425 1885.54 204.061 1887.42 204.266ZM1901.1 205.771 1901.11 205.772C1902.99 205.976 1904.36 207.673 1904.15 209.56 1903.95 211.447 1902.25 212.811 1900.36 212.606L1900.36 212.606C1898.47 212.401 1897.1 210.705 1897.31 208.817 1897.51 206.93 1899.21 205.566 1901.1 205.771ZM1914.77 207.276 1914.78 207.277C1916.67 207.481 1918.03 209.178 1917.83 211.065 1917.62 212.952 1915.92 214.316 1914.04 214.111L1914.03 214.111C1912.14 213.906 1910.78 212.21 1910.98 210.322 1911.19 208.435 1912.89 207.071 1914.77 207.276ZM1928.45 208.781 1928.45 208.781C1930.34 208.986 1931.7 210.682 1931.5 212.57 1931.3 214.457 1929.6 215.821 1927.71 215.616L1927.7 215.616C1925.82 215.411 1924.45 213.715 1924.66 211.827 1924.86 209.94 1926.56 208.576 1928.45 208.781ZM1942.12 210.286 1942.13 210.286C1944.02 210.491 1945.38 212.187 1945.17 214.075 1944.97 215.962 1943.27 217.326 1941.39 217.121L1941.38 217.121C1939.49 216.916 1938.13 215.22 1938.33 213.332 1938.54 211.445 1940.23 210.081 1942.12 210.286ZM1955.8 211.791 1955.8 211.791C1957.69 211.996 1959.05 213.692 1958.85 215.58 1958.64 217.467 1956.95 218.831 1955.06 218.626L1955.05 218.625C1953.17 218.421 1951.8 216.724 1952.01 214.837 1952.21 212.95 1953.91 211.586 1955.8 211.791ZM1969.47 213.296 1969.48 213.296C1971.36 213.501 1972.73 215.197 1972.52 217.085 1972.32 218.972 1970.62 220.336 1968.73 220.131L1968.73 220.13C1966.84 219.926 1965.48 218.229 1965.68 216.342 1965.89 214.455 1967.58 213.091 1969.47 213.296ZM1983.14 214.801 1983.15 214.801C1985.04 215.006 1986.4 216.702 1986.2 218.59 1985.99 220.477 1984.3 221.841 1982.41 221.636L1982.4 221.635C1980.51 221.43 1979.15 219.734 1979.36 217.847 1979.56 215.96 1981.26 214.596 1983.14 214.801ZM1996.82 216.305 1996.82 216.306C1998.71 216.511 2000.08 218.207 1999.87 220.095 1999.67 221.982 1997.97 223.346 1996.08 223.141L1996.08 223.14C1994.19 222.935 1992.82 221.239 1993.03 219.352 1993.23 217.465 1994.93 216.101 1996.82 216.305ZM2010.49 217.81 2010.5 217.811C2012.39 218.016 2013.75 219.712 2013.55 221.6 2013.34 223.487 2011.64 224.851 2009.76 224.646L2009.75 224.645C2007.86 224.44 2006.5 222.744 2006.7 220.857 2006.91 218.969 2008.61 217.606 2010.49 217.81ZM2024.17 219.315 2024.17 219.316C2026.06 219.521 2027.42 221.217 2027.22 223.104 2027.02 224.992 2025.32 226.356 2023.43 226.151L2023.42 226.15C2021.54 225.945 2020.17 224.249 2020.38 222.362 2020.58 220.474 2022.28 219.11 2024.17 219.315ZM2037.84 220.82 2037.85 220.821C2039.74 221.026 2041.1 222.722 2040.89 224.609 2040.69 226.497 2038.99 227.861 2037.11 227.656L2037.1 227.655C2035.21 227.45 2033.85 225.754 2034.05 223.867 2034.26 221.979 2035.95 220.615 2037.84 220.82ZM2051.52 222.325 2051.52 222.326C2053.41 222.531 2054.77 224.227 2054.57 226.114 2054.36 228.002 2052.67 229.366 2050.78 229.161L2050.77 229.16C2048.89 228.955 2047.52 227.259 2047.73 225.372 2047.93 223.484 2049.63 222.12 2051.52 222.325ZM2065.19 223.83 2065.2 223.831C2067.08 224.036 2068.45 225.732 2068.24 227.619 2068.04 229.507 2066.34 230.871 2064.45 230.666L2064.45 230.665C2062.56 230.46 2061.2 228.764 2061.4 226.877 2061.61 224.989 2063.3 223.625 2065.19 223.83ZM2078.86 225.335 2078.87 225.336C2080.76 225.541 2082.12 227.237 2081.92 229.124 2081.71 231.012 2080.02 232.376 2078.13 232.171L2078.12 232.17C2076.23 231.965 2074.87 230.269 2075.08 228.382 2075.28 226.494 2076.98 225.13 2078.86 225.335ZM2092.54 226.84 2092.54 226.841C2094.43 227.046 2095.8 228.742 2095.59 230.629 2095.39 232.517 2093.69 233.881 2091.8 233.676L2091.8 233.675C2089.91 233.47 2088.54 231.774 2088.75 229.887 2088.95 227.999 2090.65 226.635 2092.54 226.84ZM2106.21 228.345 2106.22 228.346C2108.11 228.551 2109.47 230.247 2109.27 232.134 2109.06 234.022 2107.36 235.386 2105.48 235.181L2105.47 235.18C2103.58 234.975 2102.22 233.279 2102.42 231.391 2102.63 229.504 2104.32 228.14 2106.21 228.345Z" fill="#002060" fill-rule="nonzero" fill-opacity="1" transform="matrix(1 0 0 -1 1566.5 2243.5)"/></g><g clip-path="url(#clip5)"><text fill="#595959" fill-opacity="1" font-family="Calibri,Calibri_MSFontService,sans-serif" font-style="normal" font-variant="normal" font-weight="400" font-stretch="normal" font-size="41" text-anchor="start" direction="ltr" writing-mode="lr-tb" unicode-bidi="normal" text-decoration="none" transform="matrix(1 0 0 1 3438.96 1764)">rho = 5.5882</text></g><g clip-path="url(#clip6)"><text fill="#595959" fill-opacity="1" font-family="Calibri,Calibri_MSFontService,sans-serif" font-style="normal" font-variant="normal" font-weight="400" font-stretch="normal" font-size="41" text-anchor="start" direction="ltr" writing-mode="lr-tb" unicode-bidi="normal" text-decoration="none" transform="matrix(1 0 0 1 1507.7 2528)">0</text></g><g clip-path="url(#clip7)"><text fill="#595959" fill-opacity="1" font-family="Calibri,Calibri_MSFontService,sans-serif" font-style="normal" font-variant="normal" font-weight="400" font-stretch="normal" font-size="41" text-anchor="start" direction="ltr" writing-mode="lr-tb" unicode-bidi="normal" text-decoration="none" transform="matrix(1 0 0 1 1486.8 2458)">20</text></g><g clip-path="url(#clip8)"><text fill="#595959" fill-opacity="1" font-family="Calibri,Calibri_MSFontService,sans-serif" font-style="normal" font-variant="normal" font-weight="400" font-stretch="normal" font-size="41" text-anchor="start" direction="ltr" writing-mode="lr-tb" unicode-bidi="normal" text-decoration="none" transform="matrix(1 0 0 1 1486.8 2389)">40</text></g><g clip-path="url(#clip9)"><text fill="#595959" fill-opacity="1" font-family="Calibri,Calibri_MSFontService,sans-serif" font-style="normal" font-variant="normal" font-weight="400" font-stretch="normal" font-size="41" text-anchor="start" direction="ltr" writing-mode="lr-tb" unicode-bidi="normal" text-decoration="none" transform="matrix(1 0 0 1 1486.8 2320)">60</text></g><g clip-path="url(#clip10)"><text fill="#595959" fill-opacity="1" font-family="Calibri,Calibri_MSFontService,sans-serif" font-style="normal" font-variant="normal" font-weight="400" font-stretch="normal" font-size="41" text-anchor="start" direction="ltr" writing-mode="lr-tb" unicode-bidi="normal" text-decoration="none" transform="matrix(1 0 0 1 1486.8 2251)">80</text></g><g clip-path="url(#clip11)"><text fill="#595959" fill-opacity="1" font-family="Calibri,Calibri_MSFontService,sans-serif" font-style="normal" font-variant="normal" font-weight="400" font-stretch="normal" font-size="41" text-anchor="start" direction="ltr" writing-mode="lr-tb" unicode-bidi="normal" text-decoration="none" transform="matrix(1 0 0 1 1465.9 2182)">100</text></g><g clip-path="url(#clip12)"><text fill="#595959" fill-opacity="1" font-family="Calibri,Calibri_MSFontService,sans-serif" font-style="normal" font-variant="normal" font-weight="400" font-stretch="normal" font-size="41" text-anchor="start" direction="ltr" writing-mode="lr-tb" unicode-bidi="normal" text-decoration="none" transform="matrix(1 0 0 1 1465.9 2113)">120</text></g><g clip-path="url(#clip13)"><text fill="#595959" fill-opacity="1" font-family="Calibri,Calibri_MSFontService,sans-serif" font-style="normal" font-variant="normal" font-weight="400" font-stretch="normal" font-size="41" text-anchor="start" direction="ltr" writing-mode="lr-tb" unicode-bidi="normal" text-decoration="none" transform="matrix(1 0 0 1 1465.9 2044)">140</text></g><g clip-path="url(#clip14)"><text fill="#595959" fill-opacity="1" font-family="Calibri,Calibri_MSFontService,sans-serif" font-style="normal" font-variant="normal" font-weight="400" font-stretch="normal" font-size="41" text-anchor="start" direction="ltr" writing-mode="lr-tb" unicode-bidi="normal" text-decoration="none" transform="matrix(1 0 0 1 1465.9 1974)">160</text></g><g clip-path="url(#clip15)"><text fill="#595959" fill-opacity="1" font-family="Calibri,Calibri_MSFontService,sans-serif" font-style="normal" font-variant="normal" font-weight="400" font-stretch="normal" font-size="41" text-anchor="start" direction="ltr" writing-mode="lr-tb" unicode-bidi="normal" text-decoration="none" transform="matrix(1 0 0 1 1465.9 1905)">180</text></g><g clip-path="url(#clip16)"><text fill="#595959" fill-opacity="1" font-family="Calibri,Calibri_MSFontService,sans-serif" font-style="normal" font-variant="normal" font-weight="400" font-stretch="normal" font-size="41" text-anchor="start" direction="ltr" writing-mode="lr-tb" unicode-bidi="normal" text-decoration="none" transform="matrix(1 0 0 1 1465.9 1836)">200</text></g><g clip-path="url(#clip17)"><text fill="#595959" fill-opacity="1" font-family="Calibri,Calibri_MSFontService,sans-serif" font-style="normal" font-variant="normal" font-weight="400" font-stretch="normal" font-size="41" text-anchor="start" direction="ltr" writing-mode="lr-tb" unicode-bidi="normal" text-decoration="none" transform="matrix(1 0 0 1 1525.07 2583)">2002</text></g><g clip-path="url(#clip18)"><text fill="#595959" fill-opacity="1" font-family="Calibri,Calibri_MSFontService,sans-serif" font-style="normal" font-variant="normal" font-weight="400" font-stretch="normal" font-size="41" text-anchor="start" direction="ltr" writing-mode="lr-tb" unicode-bidi="normal" text-decoration="none" transform="matrix(1 0 0 1 1700.67 2583)">2003</text></g><g clip-path="url(#clip19)"><text fill="#595959" fill-opacity="1" font-family="Calibri,Calibri_MSFontService,sans-serif" font-style="normal" font-variant="normal" font-weight="400" font-stretch="normal" font-size="41" text-anchor="start" direction="ltr" writing-mode="lr-tb" unicode-bidi="normal" text-decoration="none" transform="matrix(1 0 0 1 1876.27 2583)">2004</text></g><g clip-path="url(#clip20)"><text fill="#595959" fill-opacity="1" font-family="Calibri,Calibri_MSFontService,sans-serif" font-style="normal" font-variant="normal" font-weight="400" font-stretch="normal" font-size="41" text-anchor="start" direction="ltr" writing-mode="lr-tb" unicode-bidi="normal" text-decoration="none" transform="matrix(1 0 0 1 2051.88 2583)">2005</text></g><g clip-path="url(#clip21)"><text fill="#595959" fill-opacity="1" font-family="Calibri,Calibri_MSFontService,sans-serif" font-style="normal" font-variant="normal" font-weight="400" font-stretch="normal" font-size="41" text-anchor="start" direction="ltr" writing-mode="lr-tb" unicode-bidi="normal" text-decoration="none" transform="matrix(1 0 0 1 2227.48 2583)">2006</text></g><g clip-path="url(#clip22)"><text fill="#595959" fill-opacity="1" font-family="Calibri,Calibri_MSFontService,sans-serif" font-style="normal" font-variant="normal" font-weight="400" font-stretch="normal" font-size="41" text-anchor="start" direction="ltr" writing-mode="lr-tb" unicode-bidi="normal" text-decoration="none" transform="matrix(1 0 0 1 2403.08 2583)">2007</text></g><g clip-path="url(#clip23)"><text fill="#595959" fill-opacity="1" font-family="Calibri,Calibri_MSFontService,sans-serif" font-style="normal" font-variant="normal" font-weight="400" font-stretch="normal" font-size="41" text-anchor="start" direction="ltr" writing-mode="lr-tb" unicode-bidi="normal" text-decoration="none" transform="matrix(1 0 0 1 2578.68 2583)">2008</text></g><g clip-path="url(#clip24)"><text fill="#595959" fill-opacity="1" font-family="Calibri,Calibri_MSFontService,sans-serif" font-style="normal" font-variant="normal" font-weight="400" font-stretch="normal" font-size="41" text-anchor="start" direction="ltr" writing-mode="lr-tb" unicode-bidi="normal" text-decoration="none" transform="matrix(1 0 0 1 2754.29 2583)">2009</text></g><g clip-path="url(#clip25)"><text fill="#595959" fill-opacity="1" font-family="Calibri,Calibri_MSFontService,sans-serif" font-style="normal" font-variant="normal" font-weight="400" font-stretch="normal" font-size="41" text-anchor="start" direction="ltr" writing-mode="lr-tb" unicode-bidi="normal" text-decoration="none" transform="matrix(1 0 0 1 2929.89 2583)">2010</text></g><g clip-path="url(#clip26)"><text fill="#595959" fill-opacity="1" font-family="Calibri,Calibri_MSFontService,sans-serif" font-style="normal" font-variant="normal" font-weight="400" font-stretch="normal" font-size="41" text-anchor="start" direction="ltr" writing-mode="lr-tb" unicode-bidi="normal" text-decoration="none" transform="matrix(1 0 0 1 3105.49 2583)">2011</text></g><g clip-path="url(#clip27)"><text fill="#595959" fill-opacity="1" font-family="Calibri,Calibri_MSFontService,sans-serif" font-style="normal" font-variant="normal" font-weight="400" font-stretch="normal" font-size="41" text-anchor="start" direction="ltr" writing-mode="lr-tb" unicode-bidi="normal" text-decoration="none" transform="matrix(1 0 0 1 3281.09 2583)">2012</text></g><g clip-path="url(#clip28)"><text fill="#595959" fill-opacity="1" font-family="Calibri,Calibri_MSFontService,sans-serif" font-style="normal" font-variant="normal" font-weight="400" font-stretch="normal" font-size="41" text-anchor="start" direction="ltr" writing-mode="lr-tb" unicode-bidi="normal" text-decoration="none" transform="matrix(1 0 0 1 3456.7 2583)">2013</text></g><g clip-path="url(#clip29)"><text fill="#595959" fill-opacity="1" font-family="Calibri,Calibri_MSFontService,sans-serif" font-style="normal" font-variant="normal" font-weight="400" font-stretch="normal" font-size="41" text-anchor="start" direction="ltr" writing-mode="lr-tb" unicode-bidi="normal" text-decoration="none" transform="matrix(1 0 0 1 3632.3 2583)">2014</text></g><g clip-path="url(#clip30)"><text fill="#595959" fill-opacity="1" font-family="Calibri,Calibri_MSFontService,sans-serif" font-style="normal" font-variant="normal" font-weight="400" font-stretch="normal" font-size="64" text-anchor="start" direction="ltr" writing-mode="lr-tb" unicode-bidi="normal" text-decoration="none" transform="matrix(1 0 0 1 2263.72 1751)">Average Call per day </text></g><g clip-path="url(#clip31)"><text fill="#595959" fill-opacity="1" font-family="Calibri,Calibri_MSFontService,sans-serif" font-style="normal" font-variant="normal" font-weight="400" font-stretch="normal" font-size="64" text-anchor="start" direction="ltr" writing-mode="lr-tb" unicode-bidi="normal" text-decoration="none" transform="matrix(1 0 0 1 2806.07 1751)">-</text></g><g clip-path="url(#clip32)"><text fill="#595959" fill-opacity="1" font-family="Calibri,Calibri_MSFontService,sans-serif" font-style="normal" font-variant="normal" font-weight="400" font-stretch="normal" font-size="64" text-anchor="start" direction="ltr" writing-mode="lr-tb" unicode-bidi="normal" text-decoration="none" transform="matrix(1 0 0 1 2840.21 1751)">NW</text></g><rect x="1436.5" y="1656.5" width="2330" height="968" stroke="#D9D9D9" stroke-width="3.4375" stroke-linecap="butt" stroke-linejoin="round" stroke-miterlimit="10" stroke-opacity="1" fill="none"/></g></svg>